<?xml version="1.0" encoding="utf-8"?>
<svg xmlns="http://www.w3.org/2000/svg" stroke-linejoin="bevel" version="1.1" viewBox="0 0 2000 1880">
	<title>A music score of Roaring River, a song sung on the Red River plantation. The song is eighteen measure in two four time, in the key of F-sharp.</title>
	<path d="M 0,40.554191 H 1999.9878 M 0,68.555018 H 1999.9878 M 0,96.55476 H 1999.9878 M 0,124.5545 H 1999.9878 M 0,152.55425 H 1999.9878 M 0,460.5525 H 1999.9878 M 0,488.55332 H 1999.9878 M 0,516.55144 H 1999.9878 M 0,544.55227 H 1999.9878 M 0,572.55309 H 1999.9878 M 0,880.54593 H 1999.9878 M 0,908.55217 H 1999.9878 M 0,936.55029 H 1999.9878 M 0,964.5457 H 1999.9878 M 0,992.55194 H 1999.9878 M 0,1300.5475 H 1999.9878 M 0,1328.5537 H 1999.9878 M 0,1356.5491 H 1999.9878 M 0,1384.5473 H 1999.9878 M 0,1412.5427 H 1999.9878 M 0,1720.5463 H 1999.9878 M 0,1748.5445 H 1999.9878 M 0,1776.5507 H 1999.9878 M 0,1804.5488 H 1999.9878 M 0,1832.5442 h 1999.9878" fill="none" stroke="#000000" stroke-width="3.08321"/>
	<path d="m 986.32999,149.7547 c 51.31911,41.67369 153.95711,41.67369 205.28761,0 -51.3305,49.51392 -153.9685,49.51392 -205.28761,0 m 747.95391,-14.00041 c 47.2552,44.55478 147.4887,51.55485 200.4673,14.00041 -53.5205,45.37543 -153.754,38.37509 -200.4673,-14.00041 M 298.12468,569.75166 c 30.27205,28.83394 90.81425,28.83394 121.08521,0 -30.27096,36.67417 -90.81316,36.67417 -121.08521,0 m 601.32824,0 c 43.24753,37.51054 129.74258,37.51054 172.99008,0 -43.2475,45.35077 -129.74255,45.35077 -172.99008,0 m 292.82068,28.00082 c 28.1997,13.63926 71.1424,-0.36115 85.8854,-27.99974 -12.316,35.09247 -55.2587,49.09289 -85.8854,27.99974 m 171.7709,-28.00082 c 24.813,17.02808 67.7557,10.028 85.8743,-14.00042 -16.8655,31.7657 -59.7971,38.76604 -85.8743,14.00042 m 397.7147,-13.99906 c 40.222,40.96844 126.717,47.96852 172.9901,14.00041 -46.9051,41.78233 -133.4002,34.78226 -172.9901,-14.00041 m -589.941,313.593 c 62.8676,-49.65968 182.36,-42.66042 238.9959,14.00935 -57.0875,-48.8355 -176.591,-55.84587 -238.9959,-14.00935 m -669.78194,526.3993 c 59.3715,49.7271 183.33402,56.7264 247.92666,13.998 -65.03399,50.5626 -188.99678,43.5637 -247.92666,-13.998 M 1682.5793,1289.3472 c 65.0348,-50.5514 188.9976,-43.5524 247.9253,13.9982 -59.368,-49.7274 -183.3308,-56.7264 -247.9253,-13.9982 m -550.1275,526.3992 c 65.7121,52.0642 202.1264,59.0632 272.8285,13.9983 -71.1085,52.8881 -207.5228,45.8891 -272.8285,-13.9983" stroke="#000000" stroke-linecap="round" stroke-linejoin="round" stroke-width="1.96426"/>
	<path d="M 441.27162,39.014485 V 154.09395 M 929.20939,39.014485 V 154.09395 M 1463.3411,39.014485 V 154.09395 M 1997.47,39.014485 V 154.09395 M 657.81405,459.0136 V 574.09199 M 1135.1611,459.0136 V 574.09199 M 1520.123,459.0136 V 574.09199 M 1997.47,459.0136 v 115.07839" fill="none" stroke="#000000" stroke-width="5.03392"/>
	<path d="m 597.90285,922.55123 c 0,-3.24793 -2.57602,-5.93585 -5.82395,-5.93585 -3.24794,0 -5.82396,2.68792 -5.82396,5.93585 0,3.24793 2.57602,5.93585 5.82396,5.93585 3.24793,0 5.82395,-2.68792 5.82395,-5.93585 m 0,27.99541 c 0,-3.24793 -2.57602,-5.93585 -5.82395,-5.93585 -3.24794,0 -5.82396,2.68792 -5.82396,5.93585 0,3.2482 2.57602,5.93612 5.82396,5.93612 3.24793,0 5.82395,-2.68792 5.82395,-5.93612" fill-rule="nonzero" style="stroke-width:0.270932"/>
	<path d="M 611.67704,879.00974 V 994.08813" fill="none" stroke="#000000" stroke-width="5.03392"/>
	<path d="m 631.27626,879.00974 v 115.07839 m 0.0488,-115.07839 v 115.07839" fill="none" stroke="#000000" stroke-width="15.3971"/>
	<path d="M 650.92425,879.00974 V 994.08813" fill="none" stroke="#000000" stroke-width="5.03392"/>
	<path d="m 676.34309,922.55123 c 0,-3.24793 -2.57602,-5.93585 -5.82395,-5.93585 -3.24793,0 -5.82396,2.68792 -5.82396,5.93585 0,3.24793 2.57603,5.93585 5.82396,5.93585 3.24793,0 5.82395,-2.68792 5.82395,-5.93585 m 0,27.99541 c 0,-3.24793 -2.57602,-5.93585 -5.82395,-5.93585 -3.24793,0 -5.82396,2.68792 -5.82396,5.93585 0,3.2482 2.57603,5.93612 5.82396,5.93612 3.24793,0 5.82395,-2.68792 5.82395,-5.93612" fill-rule="nonzero" style="stroke-width:0.270932"/>
	<path d="M 859.7695,879.00974 V 994.08813 M 1474.8096,879.00974 V 994.08813 M 1997.47,879.00974 V 994.08813 M 816.92973,1299.0113 v 115.0784 m 544.07757,-115.0784 v 115.0784 M 1997.47,1299.0113 v 115.0784 M 784.31764,1719.0129 v 115.0783 m 696.22766,-115.0783 v 115.0783" fill="none" stroke="#000000" stroke-width="5.03392"/>
	<path d="m 1958.8731,1762.5408 c 0,-3.2479 -2.5761,-5.9358 -5.824,-5.9358 -3.2482,0 -5.8242,2.6879 -5.8242,5.9358 0,3.2479 2.576,5.9359 5.8242,5.9359 3.2479,0 5.824,-2.688 5.824,-5.9359 m 0,28.009 c 0,-3.248 -2.5761,-5.9359 -5.824,-5.9359 -3.2482,0 -5.8242,2.6879 -5.8242,5.9359 0,3.2479 2.576,5.9358 5.8242,5.9358 3.2479,0 5.824,-2.6879 5.824,-5.9358" fill-rule="nonzero" style="stroke-width:0.270932"/>
	<path d="m 1972.6472,1719.0129 v 115.0783" fill="none" stroke="#000000" stroke-width="5.03392"/>
	<path d="m 1992.2438,1719.0129 v 115.0783" fill="none" stroke="#000000" stroke-width="15.3971"/>
	<path d="M 316.19855,162.9705 V 68.555018 M 515.041,148.97009 V 48.537746 M 620.10031,120.97034 V 48.537746 m 65.66038,72.432594 V 48.537746 m 65.66309,72.432594 V 48.537746 M 856.4831,120.97034 V 48.537746 m 146.4984,72.432594 V 12.55472 m 68.432,80.41588 V 12.55472 m 68.4212,94.41629 V 12.55472 m 68.4347,108.41562 V 12.55472 m 68.432,136.41537 V 68.555018 m 109.4782,52.415322 V 68.555018 M 1537.1132,92.9706 V 21.847689 M 1644.0284,92.9706 V 21.847689 m 106.9179,85.123321 V 23.197743 M 1817.7635,92.9706 V 23.197743 m 66.8308,83.773267 V 23.197743 m 66.8173,97.772597 V 23.197743 M 254.2391,568.96866 V 465.87442 m 60.54248,75.09342 v -75.09342 m 60.54247,89.09518 v -89.09383 m 60.54248,75.09207 v -75.09342 m 60.54247,117.0933 v -66.12909 m 96.86904,52.13003 v -65.43361 m 138.3081,37.43279 v -72.4326 m 92.26049,72.4326 v -72.4326 m 92.26861,72.4326 v -97.77152 m 57.66247,69.7734 v -69.77177 m 57.66249,83.77083 v -83.77219 m 57.6624,97.77125 v -97.77152 m 119.8333,125.77234 v -64.45148 m 85.8719,36.45066 v -60.58718 m 85.8854,60.58718 v -59.12875 m 85.8855,45.12969 v -62.8416 m 127.3164,48.84254 v -67.11095 m 92.2632,67.11095 v -67.11095 m 92.2632,81.11001 v -81.11136 m 57.6652,67.1123 v -67.11095 m 57.6624,81.11001 v -81.11136 m 57.6625,95.11042 v -95.1107 M 254.2391,988.96209 V 887.5544 m 122.28789,73.41229 v -73.41148 m 122.29059,73.41148 v -73.41148 m 215.51561,24.7575 v 94.23939 M 900.2305,870.31824 v 63.28539 m 127.4627,-21.29092 v 50.56269 m 127.4735,-64.56175 v 72.94845 m 79.6649,-86.94751 v 86.9467 m 79.6648,-72.94764 v 72.94845 m 79.6649,-58.94939 v 58.95048 m 121.1066,-30.95507 v 58.9502 m 120.3047,-86.94561 v 86.9467 m 120.3073,-86.9467 v 86.9467 M 1876.1846,870.31824 V 999.25941 M 254.2391,1352.9593 v -72.4291 m 132.22839,72.4291 v -72.4291 m 132.22567,86.439 v -83.7744 m 82.6424,69.7645 v -69.765 m 82.6424,83.7749 v -83.7744 m 82.6424,97.7734 v -97.7726 m 124.08146,125.7681 v -128.1509 m 125.65828,100.1554 v -100.1546 m 125.6664,100.1546 v -100.1546 m 125.6556,44.1503 v -44.1508 m 133.7835,9.4932 v 64.6625 m 132.2257,-22.6545 v 60.2823 m 132.2257,-74.2814 v 72.9485 m 82.6478,-86.9475 v 86.9466 m 82.6451,-72.9476 v 72.9485 m 82.6343,-58.9494 v 58.9502 M 220.92828,1780.3112 v 80.2412 M 361.5309,1752.3131 v 108.2374 m 140.60018,-108.2374 v 108.2374 m 140.6029,-150.2427 v 150.2432 m 182.04194,-80.2398 v 61.6146 m 145.51218,-61.6146 v 61.6146 m 178.8151,-54.9659 v -83.7743 m 90.9438,69.7752 v -69.7761 m 90.9438,83.7752 v -83.7743 m 90.941,97.7734 v -97.7726 m 132.3855,125.7788 v -101.4191 m 142.5889,73.4129 v -73.4115 m 142.5779,73.4115 v -73.4115" fill="none" stroke="#000000" stroke-width="3.08321"/>
	<path d="m 316.62663,157.48277 c -2.01601,-3.69605 -6.27181,-5.71206 -11.42385,-5.71206 -3.80795,0 -7.95186,1.12003 -11.98387,3.24793 -7.39211,3.92012 -11.87197,10.52788 -11.87197,16.23994 0,1.56788 0.33595,3.13604 1.12003,4.59203 2.01601,3.69605 6.27181,5.59989 11.42385,5.59989 3.80795,0 7.95186,-1.00786 11.98387,-3.13604 7.39211,-3.91984 11.87197,-10.52787 11.87197,-16.23993 0,-1.56789 -0.33596,-3.13577 -1.12003,-4.59176 m 198.84244,-14.00041 c -2.01601,-3.69606 -6.27181,-5.71206 -11.42385,-5.71206 -3.80795,0 -7.95213,1.12003 -11.98387,3.24793 -7.39211,3.92012 -11.87197,10.52788 -11.87197,16.23994 0,1.56788 0.33596,3.13604 1.11976,4.59202 2.01601,3.69606 6.27208,5.5999 11.42412,5.5999 3.80795,0 7.95186,-1.00787 11.98387,-3.13604 7.39211,-3.91984 11.87197,-10.52788 11.87197,-16.23994 0,-1.56788 -0.33595,-3.13576 -1.12003,-4.59175 m 105.05932,-27.99975 c -2.01601,-3.69605 -6.27208,-5.71206 -11.42413,-5.71206 -3.80795,0 -7.95185,1.12004 -11.98386,3.24794 -7.39184,3.92011 -11.87197,10.52815 -11.87197,16.23994 0,1.56815 0.33595,3.13603 1.12003,4.59202 2.01601,3.69606 6.27208,5.5999 11.42412,5.5999 3.80795,0 7.95186,-1.00787 11.98387,-3.13577 7.39184,-3.92012 11.87197,-10.52815 11.87197,-16.23994 0,-1.56815 -0.33596,-3.13604 -1.12003,-4.59203 m 65.66308,0 c -2.016,-3.69605 -6.2718,-5.71206 -11.42385,-5.71206 -3.80794,0 -7.95212,1.12004 -11.98386,3.24794 -7.39211,3.92011 -11.87197,10.52815 -11.87197,16.23994 0,1.56815 0.33595,3.13603 1.11976,4.59202 2.01601,3.69606 6.27208,5.5999 11.42412,5.5999 3.80795,0 7.95186,-1.00787 11.98387,-3.13577 7.39211,-3.92012 11.87197,-10.52815 11.87197,-16.23994 0,-1.56815 -0.33596,-3.13604 -1.12004,-4.59203 m 65.66038,0 c -2.016,-3.69605 -6.2718,-5.71206 -11.42385,-5.71206 -3.80794,0 -7.95185,1.12004 -11.98386,3.24794 -7.39211,3.92011 -11.87197,10.52815 -11.87197,16.23994 0,1.56815 0.33595,3.13603 1.12003,4.59202 2.01601,3.69606 6.27181,5.5999 11.42385,5.5999 3.80795,0 7.95186,-1.00787 11.98387,-3.13577 7.39211,-3.92012 11.87197,-10.52815 11.87197,-16.23994 0,-1.56815 -0.33596,-3.13604 -1.12004,-4.59203 m 105.05932,0 c -2.016,-3.69605 -6.27208,-5.71206 -11.42385,-5.71206 -3.80795,0 -7.95212,1.12004 -11.98413,3.24794 -7.39184,3.92011 -11.87198,10.52815 -11.87198,16.23994 0,1.56815 0.33623,3.13603 1.12004,4.59202 2.016,3.69606 6.27207,5.5999 11.42412,5.5999 3.80795,0 7.95185,-1.00787 11.98386,-3.13577 7.39184,-3.92012 11.87197,-10.52815 11.87197,-16.23994 0,-1.56815 -0.33595,-3.13604 -1.12003,-4.59203 m 146.50113,0 c -2.0161,-3.69605 -6.27185,-5.71206 -11.4239,-5.71206 -3.80795,0 -7.95185,1.12004 -11.98386,3.24794 -7.39211,3.92011 -11.87197,10.52815 -11.87197,16.23994 0,1.56815 0.33595,3.13603 1.12003,4.59202 2.01601,3.69606 6.27181,5.5999 11.42385,5.5999 3.80795,0 7.95185,-1.00787 11.98387,-3.13577 7.39208,-3.92012 11.87198,-10.52815 11.87198,-16.23994 0,-1.56815 -0.336,-3.13604 -1.12,-4.59203 m 68.4211,-27.999738 c -2.016,-3.696055 -6.272,-5.71206 -11.4238,-5.71206 -3.808,0 -7.9521,1.120033 -11.9842,3.247933 -7.3918,3.920116 -11.8719,10.528148 -11.8719,16.239935 0,1.56816 0.3362,3.13604 1.12,4.59203 2.016,3.69605 6.2721,5.59989 11.4241,5.59989 3.808,0 7.9519,-1.00786 11.9839,-3.13576 7.3918,-3.92012 11.872,-10.528152 11.872,-16.239941 0,-1.568154 -0.336,-3.136038 -1.1201,-4.592027 m 68.4348,13.999328 c -2.0161,-3.696053 -6.2719,-5.712059 -11.4239,-5.712059 -3.8079,0 -7.9518,1.120033 -11.9839,3.247934 -7.3921,3.920115 -11.8719,10.528145 -11.8719,16.239935 0,1.56816 0.3359,3.13604 1.12,4.59203 2.016,3.69605 6.2718,5.59989 11.4239,5.59989 3.8079,0 7.9518,-1.00786 11.9838,-3.13576 7.3921,-3.92012 11.872,-10.52815 11.872,-16.23994 0,-1.56816 -0.336,-3.13604 -1.12,-4.59203 m 68.432,14.00041 c -2.016,-3.69605 -6.2721,-5.71206 -11.4242,-5.71206 -3.8079,0 -7.9518,1.12004 -11.9838,3.24794 -7.3919,3.92011 -11.872,10.52815 -11.872,16.23994 0,1.56815 0.336,3.13603 1.12,4.59202 2.0161,3.69606 6.2721,5.5999 11.4239,5.5999 3.8079,0 7.9521,-1.00787 11.9841,-3.13577 7.3919,-3.92012 11.872,-10.52815 11.872,-16.23994 0,-1.56815 -0.3362,-3.13604 -1.12,-4.59203 m 68.4211,27.99975 c -2.016,-3.69606 -6.2718,-5.71206 -11.4238,-5.71206 -3.808,0 -7.9519,1.12003 -11.9839,3.24793 -7.3921,3.92012 -11.8719,10.52788 -11.8719,16.23994 0,1.56788 0.3359,3.13604 1.12,4.59202 2.016,3.69606 6.2718,5.5999 11.4238,5.5999 3.808,0 7.9519,-1.00787 11.9839,-3.13604 7.3921,-3.91984 11.872,-10.52788 11.872,-16.23994 0,-1.56788 -0.336,-3.13576 -1.1201,-4.59175 m 109.4918,-27.99975 c -2.016,-3.69605 -6.2718,-5.71206 -11.4238,-5.71206 -3.808,0 -7.9519,1.12004 -11.9839,3.24794 -7.3921,3.92011 -11.872,10.52815 -11.872,16.23994 0,1.56815 0.336,3.13603 1.1201,4.59202 2.016,3.69606 6.2718,5.5999 11.4238,5.5999 3.808,0 7.9519,-1.00787 11.9839,-3.13577 7.3921,-3.92012 11.8719,-10.52815 11.8719,-16.23994 0,-1.56815 -0.3359,-3.13604 -1.12,-4.59203 m 150.9308,-27.999738 c -2.016,-3.696055 -6.272,-5.71206 -11.4241,-5.71206 -3.8079,0 -7.9518,1.120033 -11.9839,3.247933 -7.3918,3.920116 -11.8719,10.528148 -11.8719,16.239935 0,1.56816 0.3359,3.13604 1.12,4.59203 2.016,3.69605 6.2721,5.59989 11.4239,5.59989 3.8079,0 7.9521,-1.00786 11.9841,-3.13576 7.3918,-3.92012 11.872,-10.528152 11.872,-16.239941 0,-1.568154 -0.3363,-3.136038 -1.1201,-4.592027 m 106.9152,0 c -2.016,-3.696055 -6.272,-5.71206 -11.4241,-5.71206 -3.8079,0 -7.9518,1.120033 -11.9839,3.247933 -7.3918,3.920116 -11.8719,10.528148 -11.8719,16.239935 0,1.56816 0.3359,3.13604 1.12,4.59203 2.016,3.69605 6.2721,5.59989 11.4239,5.59989 3.8079,0 7.9521,-1.00786 11.9841,-3.13576 7.3918,-3.92012 11.872,-10.528152 11.872,-16.239941 0,-1.568154 -0.3363,-3.136038 -1.1201,-4.592027 M 1751.377,101.4822 c -2.016,-3.696053 -6.272,-5.712059 -11.4241,-5.712059 -3.8079,0 -7.9518,1.120033 -11.9838,3.247934 -7.3919,3.920115 -11.872,10.528145 -11.872,16.239935 0,1.56816 0.3359,3.13604 1.12,4.59203 2.016,3.69605 6.2721,5.59989 11.4239,5.59989 3.8079,0 7.9521,-1.00786 11.9841,-3.13576 7.3918,-3.92012 11.872,-10.52815 11.872,-16.23994 0,-1.56816 -0.3362,-3.13604 -1.1201,-4.59203 m 66.82,-13.999328 c -2.016,-3.696055 -6.2721,-5.71206 -11.4241,-5.71206 -3.808,0 -7.9519,1.120033 -11.9839,3.247933 -7.3918,3.920116 -11.8719,10.528148 -11.8719,16.239935 0,1.56816 0.3359,3.13604 1.12,4.59203 2.016,3.69605 6.2721,5.59989 11.4238,5.59989 3.808,0 7.9522,-1.00786 11.9842,-3.13576 7.3918,-3.92012 11.8719,-10.528152 11.8719,-16.239941 0,-1.568154 -0.3362,-3.136038 -1.12,-4.592027 m 66.8173,13.999328 c -2.016,-3.696053 -6.2721,-5.712059 -11.4241,-5.712059 -3.808,0 -7.9519,1.120033 -11.9839,3.247934 -7.3919,3.920115 -11.872,10.528145 -11.872,16.239935 0,1.56816 0.336,3.13604 1.1201,4.59203 2.016,3.69605 6.272,5.59989 11.4238,5.59989 3.8079,0 7.9521,-1.00786 11.9841,-3.13576 7.3919,-3.92012 11.872,-10.52815 11.872,-16.23994 0,-1.56816 -0.3362,-3.13604 -1.12,-4.59203 m 66.8308,14.00041 c -2.016,-3.69605 -6.2718,-5.71206 -11.4239,-5.71206 -3.8079,0 -7.9518,1.12004 -11.9838,3.24794 -7.3921,3.92011 -11.872,10.52815 -11.872,16.23994 0,1.56815 0.336,3.13603 1.12,4.59202 2.016,3.69606 6.2718,5.5999 11.4239,5.5999 3.8079,0 7.9518,-1.00787 11.9838,-3.13577 7.3922,-3.92012 11.872,-10.52815 11.872,-16.23994 0,-1.56815 -0.3359,-3.13604 -1.12,-4.59203 M 254.66718,563.47958 c -2.01601,-3.69578 -6.27208,-5.71179 -11.42412,-5.71179 -3.80795,0 -7.95186,1.12003 -11.98387,3.24793 -7.39184,3.91985 -11.87197,10.52788 -11.87197,16.23994 0,1.56789 0.33596,3.13604 1.12003,4.59203 2.01601,3.69578 6.27208,5.59989 11.42412,5.59989 3.80795,0 7.95186,-1.00786 11.98387,-3.13604 7.39184,-3.91984 11.87197,-10.52787 11.87197,-16.23993 0,-1.56789 -0.33596,-3.13604 -1.12003,-4.59203 m 60.54247,-27.99812 c -2.016,-3.69605 -6.27181,-5.71206 -11.42385,-5.71206 -3.80795,0 -7.95213,1.12004 -11.98386,3.24794 -7.39211,3.92011 -11.87198,10.52787 -11.87198,16.23993 0,1.56789 0.33596,3.13604 1.11977,4.59203 2.016,3.69606 6.27207,5.5999 11.42412,5.5999 3.80795,0 7.95185,-1.00787 11.98386,-3.13604 7.39211,-3.91985 11.87197,-10.52788 11.87197,-16.23994 0,-1.56788 -0.33595,-3.13577 -1.12003,-4.59176 m 60.54518,13.99906 c -2.016,-3.69605 -6.27207,-5.71206 -11.42412,-5.71206 -3.80795,0 -7.95185,1.12003 -11.98386,3.24793 -7.39184,3.92012 -11.87197,10.52788 -11.87197,16.23994 0,1.56789 0.33595,3.13604 1.12003,4.59203 2.016,3.69605 6.27208,5.59989 11.42385,5.59989 3.80795,0 7.95212,-1.00786 11.98414,-3.13603 7.39183,-3.91985 11.87197,-10.52788 11.87197,-16.23994 0,-1.56789 -0.33623,-3.13577 -1.12004,-4.59176 m 60.53977,-13.99906 c -2.01601,-3.69605 -6.27208,-5.71206 -11.42385,-5.71206 -3.80795,0 -7.95213,1.12004 -11.98414,3.24794 -7.39184,3.92011 -11.87197,10.52787 -11.87197,16.23993 0,1.56789 0.33623,3.13604 1.12003,4.59203 2.01601,3.69606 6.27208,5.5999 11.42412,5.5999 3.80795,0 7.95186,-1.00787 11.98387,-3.13604 7.39184,-3.91985 11.87197,-10.52788 11.87197,-16.23994 0,-1.56788 -0.33595,-3.13577 -1.12003,-4.59176 m 60.54518,41.99989 c -2.01573,-3.69579 -6.2718,-5.71179 -11.42385,-5.71179 -3.80795,0 -7.95185,1.12003 -11.98386,3.24793 -7.39211,3.91985 -11.87198,10.52788 -11.87198,16.23994 0,1.56788 0.33596,3.13604 1.12004,4.59203 2.016,3.69578 6.2718,5.59989 11.42385,5.59989 3.80795,0 7.95212,-1.00787 11.98386,-3.13604 7.39211,-3.91984 11.87197,-10.52787 11.87197,-16.23993 0,-1.56789 -0.33595,-3.13604 -1.12003,-4.59203 m 96.86633,-14.00177 c -2.016,-3.69578 -6.27207,-5.71179 -11.42412,-5.71179 -3.80795,0 -7.95185,1.12003 -11.98386,3.24793 -7.39184,3.91985 -11.87197,10.52788 -11.87197,16.23994 0,1.56789 0.33595,3.13604 1.12003,4.59203 2.016,3.69578 6.27208,5.59989 11.42412,5.59989 3.80795,0 7.95185,-1.00786 11.98387,-3.13604 7.39183,-3.91984 11.87197,-10.52787 11.87197,-16.23993 0,-1.56789 -0.33596,-3.13604 -1.12004,-4.59203 m 138.3081,-27.99812 c -2.01573,-3.69605 -6.27181,-5.71206 -11.42385,-5.71206 -3.80795,0 -7.95185,1.12004 -11.98387,3.24794 -7.3921,3.92011 -11.87197,10.52787 -11.87197,16.23993 0,1.56789 0.33596,3.13604 1.12004,4.59203 2.016,3.69606 6.2718,5.5999 11.42385,5.5999 3.80795,0 7.95212,-1.00787 11.98386,-3.13604 7.39211,-3.91985 11.87197,-10.52788 11.87197,-16.23994 0,-1.56788 -0.33595,-3.13577 -1.12003,-4.59176 m 92.26049,0 c -2.01601,-3.69605 -6.27208,-5.71206 -11.42412,-5.71206 -3.80795,0 -7.95186,1.12004 -11.98387,3.24794 -7.39184,3.92011 -11.87197,10.52787 -11.87197,16.23993 0,1.56789 0.33596,3.13604 1.12003,4.59203 2.01601,3.69606 6.27208,5.5999 11.42412,5.5999 3.80795,0 7.95186,-1.00787 11.98387,-3.13604 7.39184,-3.91985 11.87197,-10.52788 11.87197,-16.23994 0,-1.56788 -0.33595,-3.13577 -1.12003,-4.59176 m 92.26319,0 c -2.016,-3.69605 -6.2718,-5.71206 -11.42384,-5.71206 -3.80795,0 -7.95213,1.12004 -11.98387,3.24794 -7.39211,3.92011 -11.87197,10.52787 -11.87197,16.23993 0,1.56789 0.33595,3.13604 1.11976,4.59203 2.01601,3.69606 6.27208,5.5999 11.42412,5.5999 3.80795,0 7.95186,-1.00787 11.98387,-3.13604 7.39211,-3.91985 11.87197,-10.52788 11.87197,-16.23994 0,-1.56788 -0.33596,-3.13577 -1.12004,-4.59176 m 57.65976,-28.00082 c -2.016,-3.69606 -6.27208,-5.71206 -11.42385,-5.71206 -3.80795,0 -7.95212,1.12003 -11.98413,3.24793 -7.39184,3.92012 -11.87198,10.52815 -11.87198,16.23994 0,1.56815 0.33623,3.13604 1.12004,4.59202 2.016,3.69606 6.27207,5.5999 11.42412,5.5999 3.80795,0 7.95185,-1.00787 11.98386,-3.13577 7.39184,-3.92011 11.87197,-10.52815 11.87197,-16.23994 0,-1.56815 -0.33595,-3.13603 -1.12003,-4.59202 m 57.66245,14.00176 c -2.016,-3.69605 -6.2718,-5.71206 -11.4238,-5.71206 -3.808,0 -7.9519,1.12004 -11.9839,3.24794 -7.3921,3.92011 -11.87197,10.52815 -11.87197,16.23994 0,1.56815 0.33596,3.13603 1.12003,4.59202 2.01601,3.69606 6.27184,5.5999 11.42384,5.5999 3.808,0 7.9519,-1.00787 11.9839,-3.13577 7.3921,-3.92012 11.872,-10.52815 11.872,-16.23994 0,-1.56815 -0.336,-3.13604 -1.1201,-4.59203 m 57.6652,13.99906 c -2.016,-3.69605 -6.2721,-5.71206 -11.4241,-5.71206 -3.808,0 -7.9519,1.12004 -11.9839,3.24794 -7.3918,3.92011 -11.872,10.52787 -11.872,16.23993 0,1.56789 0.336,3.13604 1.1201,4.59203 2.016,3.69606 6.272,5.5999 11.4238,5.5999 3.808,0 7.9521,-1.00787 11.9842,-3.13604 7.3918,-3.91985 11.8719,-10.52788 11.8719,-16.23994 0,-1.56788 -0.3362,-3.13577 -1.12,-4.59176 m 119.8305,27.99812 c -2.016,-3.69578 -6.2718,-5.71179 -11.4238,-5.71179 -3.808,0 -7.9519,1.12003 -11.9839,3.24793 -7.3921,3.91985 -11.872,10.52788 -11.872,16.23994 0,1.56789 0.336,3.13604 1.1201,4.59203 2.016,3.69578 6.2718,5.59989 11.4238,5.59989 3.808,0 7.9519,-1.00786 11.9839,-3.13604 7.3921,-3.91984 11.872,-10.52787 11.872,-16.23993 0,-1.56789 -0.336,-3.13604 -1.1201,-4.59203 m 85.8855,-27.99812 c -2.016,-3.69605 -6.2718,-5.71206 -11.4239,-5.71206 -3.8079,0 -7.9518,1.12004 -11.9838,3.24794 -7.3921,3.92011 -11.872,10.52787 -11.872,16.23993 0,1.56789 0.336,3.13604 1.12,4.59203 2.016,3.69606 6.2718,5.5999 11.4239,5.5999 3.8079,0 7.9518,-1.00787 11.9838,-3.13604 7.3922,-3.91985 11.872,-10.52788 11.872,-16.23994 0,-1.56788 -0.3359,-3.13577 -1.12,-4.59176 m 85.8854,0 c -2.016,-3.69605 -6.2718,-5.71206 -11.4238,-5.71206 -3.808,0 -7.9519,1.12004 -11.9839,3.24794 -7.3921,3.92011 -11.8719,10.52787 -11.8719,16.23993 0,1.56789 0.3359,3.13604 1.12,4.59203 2.016,3.69606 6.2718,5.5999 11.4238,5.5999 3.808,0 7.9519,-1.00787 11.9839,-3.13604 7.3921,-3.91985 11.872,-10.52788 11.872,-16.23994 0,-1.56788 -0.336,-3.13577 -1.1201,-4.59176 m 85.8719,-13.99906 c -2.016,-3.69605 -6.272,-5.71206 -11.4241,-5.71206 -3.8079,0 -7.9518,1.12004 -11.9838,3.24794 -7.3919,3.92011 -11.872,10.52815 -11.872,16.23994 0,1.56815 0.3359,3.13603 1.12,4.59202 2.016,3.69606 6.2721,5.5999 11.4239,5.5999 3.8079,0 7.9521,-1.00787 11.9841,-3.13577 7.3918,-3.92012 11.872,-10.52815 11.872,-16.23994 0,-1.56815 -0.3362,-3.13604 -1.1201,-4.59203 m 127.3273,-14.00176 c -2.016,-3.69606 -6.2721,-5.71206 -11.4239,-5.71206 -3.8079,0 -7.9521,1.12003 -11.9841,3.24793 -7.3919,3.92012 -11.872,10.52815 -11.872,16.23994 0,1.56815 0.3362,3.13604 1.12,4.59202 2.0161,3.69606 6.2721,5.5999 11.4242,5.5999 3.8079,0 7.9518,-1.00787 11.9838,-3.13577 7.3919,-3.92011 11.872,-10.52815 11.872,-16.23994 0,-1.56815 -0.336,-3.13603 -1.12,-4.59202 m 92.2632,0 c -2.016,-3.69606 -6.2721,-5.71206 -11.4242,-5.71206 -3.8079,0 -7.9518,1.12003 -11.9838,3.24793 -7.3919,3.92012 -11.872,10.52815 -11.872,16.23994 0,1.56815 0.336,3.13604 1.12,4.59202 2.016,3.69606 6.2721,5.5999 11.4239,5.5999 3.8079,0 7.9521,-1.00787 11.9841,-3.13577 7.3919,-3.92011 11.872,-10.52815 11.872,-16.23994 0,-1.56815 -0.3362,-3.13603 -1.12,-4.59202 m 92.2659,14.00176 c -2.016,-3.69605 -6.2718,-5.71206 -11.4239,-5.71206 -3.8079,0 -7.9518,1.12004 -11.9838,3.24794 -7.3922,3.92011 -11.872,10.52815 -11.872,16.23994 0,1.56815 0.3359,3.13603 1.12,4.59202 2.016,3.69606 6.2718,5.5999 11.4239,5.5999 3.8079,0 7.9518,-1.00787 11.9838,-3.13577 7.3921,-3.92012 11.872,-10.52815 11.872,-16.23994 0,-1.56815 -0.3359,-3.13604 -1.12,-4.59203 m 57.6624,-14.00176 c -2.016,-3.69606 -6.272,-5.71206 -11.4241,-5.71206 -3.8079,0 -7.9518,1.12003 -11.9838,3.24793 -7.3919,3.92012 -11.872,10.52815 -11.872,16.23994 0,1.56815 0.3359,3.13604 1.12,4.59202 2.016,3.69606 6.2721,5.5999 11.4239,5.5999 3.8079,0 7.9521,-1.00787 11.9841,-3.13577 7.3918,-3.92011 11.872,-10.52815 11.872,-16.23994 0,-1.56815 -0.3363,-3.13603 -1.1201,-4.59202 m 57.6625,14.00176 c -2.016,-3.69605 -6.2721,-5.71206 -11.4238,-5.71206 -3.808,0 -7.9522,1.12004 -11.9842,3.24794 -7.3918,3.92011 -11.872,10.52815 -11.872,16.23994 0,1.56815 0.3363,3.13603 1.1201,4.59202 2.016,3.69606 6.2721,5.5999 11.4241,5.5999 3.808,0 7.9519,-1.00787 11.9839,-3.13577 7.3918,-3.92012 11.8719,-10.52815 11.8719,-16.23994 0,-1.56815 -0.3359,-3.13604 -1.12,-4.59203 m 57.6652,13.99906 c -2.016,-3.69605 -6.2718,-5.71206 -11.4239,-5.71206 -3.8079,0 -7.9518,1.12004 -11.9838,3.24794 -7.3921,3.92011 -11.872,10.52787 -11.872,16.23993 0,1.56789 0.336,3.13604 1.12,4.59203 2.016,3.69606 6.2718,5.5999 11.4239,5.5999 3.8079,0 7.9518,-1.00787 11.9838,-3.13604 7.3922,-3.91985 11.872,-10.52788 11.872,-16.23994 0,-1.56788 -0.3359,-3.13577 -1.12,-4.59176 M 254.66718,983.48114 c -2.01601,-3.69606 -6.27208,-5.71206 -11.42412,-5.71206 -3.80795,0 -7.95186,1.12003 -11.98387,3.24793 -7.39184,3.92012 -11.87197,10.52815 -11.87197,16.23994 0,1.56815 0.33596,3.13605 1.12003,4.59205 2.01601,3.696 6.27208,5.5999 11.42412,5.5999 3.80795,0 7.95186,-1.0079 11.98387,-3.1358 7.39184,-3.9201 11.87197,-10.52815 11.87197,-16.23993 0,-1.56816 -0.33596,-3.13604 -1.12003,-4.59203 m 122.29059,-28.00625 c -2.016,-3.69605 -6.2718,-5.71206 -11.42385,-5.71206 -3.80795,0 -7.95185,1.12004 -11.98386,3.24794 -7.39211,3.92011 -11.87197,10.52814 -11.87197,16.23993 0,1.56816 0.33595,3.13604 1.12003,4.59203 2.016,3.69606 6.2718,5.5999 11.42385,5.5999 3.80795,0 7.95185,-1.00787 11.98386,-3.13577 7.39211,-3.92012 11.87197,-10.52815 11.87197,-16.23994 0,-1.56815 -0.33595,-3.13604 -1.12003,-4.59203 m 122.28789,0 c -2.01601,-3.69605 -6.27208,-5.71206 -11.42412,-5.71206 -3.80795,0 -7.95186,1.12004 -11.98387,3.24794 -7.39184,3.92011 -11.87197,10.52814 -11.87197,16.23993 0,1.56816 0.33596,3.13604 1.12003,4.59203 2.01601,3.69606 6.27208,5.5999 11.42412,5.5999 3.80795,0 7.95186,-1.00787 11.98387,-3.13577 7.39184,-3.92012 11.87197,-10.52815 11.87197,-16.23994 0,-1.56815 -0.33596,-3.13604 -1.12003,-4.59203 m 248.82669,-55.99352 c -2.016,-3.69606 -6.2718,-5.71206 -11.42385,-5.71206 -3.80795,0 -7.95185,1.12003 -11.98386,3.2482 -7.39211,3.91985 -11.87197,10.52788 -11.87197,16.23994 0,1.56788 0.33595,3.13577 1.12003,4.59176 2.016,3.69605 6.2718,5.60016 11.42385,5.60016 3.80795,0 7.95185,-1.00814 11.98386,-3.13604 7.39211,-3.92011 11.87198,-10.52787 11.87198,-16.23993 0,-1.56789 -0.33596,-3.13604 -1.12004,-4.59203 m 185.89189,-42.00531 c -2.016,-3.69578 -6.27207,-5.71178 -11.42385,-5.71178 -3.80795,0 -7.95212,1.12003 -11.98413,3.24793 -7.39184,3.91984 -11.87197,10.52788 -11.87197,16.23994 0,1.56788 0.33622,3.13603 1.12003,4.59202 2.016,3.69579 6.27208,5.5999 11.42412,5.5999 3.80795,0 7.95186,-1.00787 11.98387,-3.13604 7.39183,-3.91985 11.87197,-10.52788 11.87197,-16.23994 0,-1.56788 -0.33596,-3.13604 -1.12004,-4.59203 m 127.47356,42.00531 c -2.016,-3.69606 -6.2721,-5.71206 -11.4239,-5.71206 -3.8079,0 -7.9521,1.12003 -11.9841,3.2482 -7.3919,3.91985 -11.872,10.52788 -11.872,16.23994 0,1.56788 0.3362,3.13577 1.12,4.59176 2.016,3.69605 6.2721,5.60016 11.4242,5.60016 3.8079,0 7.9518,-1.00814 11.9838,-3.13604 7.3919,-3.92011 11.872,-10.52787 11.872,-16.23993 0,-1.56789 -0.336,-3.13604 -1.12,-4.59203 m 127.4627,-13.99906 c -2.016,-3.69578 -6.2718,-5.71179 -11.4239,-5.71179 -3.8079,0 -7.9518,1.12003 -11.9839,3.24793 -7.3921,3.91985 -11.8719,10.52788 -11.8719,16.23994 0,1.56788 0.3359,3.13604 1.12,4.59203 2.016,3.69578 6.2718,5.59989 11.4239,5.59989 3.8079,0 7.9518,-1.00786 11.9838,-3.13604 7.3921,-3.91984 11.872,-10.52787 11.872,-16.23993 0,-1.56789 -0.336,-3.13604 -1.12,-4.59203 m 79.6648,-14.0099 c -2.016,-3.69605 -6.2721,-5.71206 -11.4238,-5.71206 -3.808,0 -7.9522,1.12004 -11.9842,3.24821 -7.3918,3.91984 -11.8719,10.52788 -11.8719,16.23994 0,1.56788 0.3362,3.13576 1.12,4.59175 2.016,3.69606 6.2721,5.60017 11.4241,5.60017 3.808,0 7.9519,-1.00814 11.9839,-3.13604 7.3918,-3.92012 11.8719,-10.52788 11.8719,-16.23994 0,-1.56788 -0.3359,-3.13604 -1.12,-4.59203 m 79.6757,14.0099 c -2.016,-3.69578 -6.2718,-5.71179 -11.4238,-5.71179 -3.808,0 -7.9519,1.12003 -11.9839,3.24793 -7.3921,3.91985 -11.872,10.52788 -11.872,16.23994 0,1.56788 0.336,3.13604 1.1201,4.59203 2.016,3.69578 6.2718,5.59989 11.4238,5.59989 3.808,0 7.9519,-1.00786 11.9839,-3.13604 7.3921,-3.91984 11.8719,-10.52787 11.8719,-16.23993 0,-1.56789 -0.3359,-3.13604 -1.12,-4.59203 m 79.6649,13.99906 c -2.016,-3.69606 -6.2721,-5.71206 -11.4239,-5.71206 -3.8079,0 -7.9521,1.12003 -11.9841,3.2482 -7.3919,3.91985 -11.872,10.52788 -11.872,16.23994 0,1.56788 0.3362,3.13577 1.12,4.59176 2.016,3.69605 6.2721,5.60016 11.4242,5.60016 3.8079,0 7.9518,-1.00814 11.9838,-3.13604 7.3919,-3.92011 11.872,-10.52787 11.872,-16.23993 0,-1.56789 -0.336,-3.13604 -1.12,-4.59203 m 121.1066,27.99541 c -2.016,-3.69579 -6.2721,-5.71179 -11.4239,-5.71179 -3.8079,0 -7.9521,1.12003 -11.9841,3.24793 -7.3918,3.91984 -11.872,10.52788 -11.872,16.23994 0,1.56788 0.3363,3.13604 1.1201,4.59202 2.016,3.69579 6.272,5.5999 11.4241,5.5999 3.8079,0 7.9518,-1.00787 11.9838,-3.13604 7.3919,-3.91984 11.872,-10.52788 11.872,-16.23994 0,-1.56788 -0.3359,-3.13604 -1.12,-4.59202 m 120.3074,-27.99541 c -2.016,-3.69606 -6.2721,-5.71206 -11.4242,-5.71206 -3.8079,0 -7.9518,1.12003 -11.9838,3.2482 -7.3919,3.91985 -11.872,10.52788 -11.872,16.23994 0,1.56788 0.336,3.13577 1.12,4.59176 2.016,3.69605 6.2721,5.60016 11.4239,5.60016 3.8079,0 7.9521,-1.00814 11.9841,-3.13604 7.3919,-3.92011 11.872,-10.52787 11.872,-16.23993 0,-1.56789 -0.3362,-3.13604 -1.12,-4.59203 m 120.3046,0 c -2.016,-3.69606 -6.2718,-5.71206 -11.4238,-5.71206 -3.808,0 -7.9519,1.12003 -11.9839,3.2482 -7.3921,3.91985 -11.872,10.52788 -11.872,16.23994 0,1.56788 0.336,3.13577 1.1201,4.59176 2.016,3.69605 6.2718,5.60016 11.4238,5.60016 3.808,0 7.9519,-1.00814 11.9839,-3.13604 7.3921,-3.92011 11.872,-10.52787 11.872,-16.23993 0,-1.56789 -0.336,-3.13604 -1.1201,-4.59203 m 120.3047,-42.00531 c -2.016,-3.69578 -6.2721,-5.71178 -11.4239,-5.71178 -3.8079,0 -7.9521,1.12003 -11.9841,3.24793 -7.3918,3.91984 -11.872,10.52788 -11.872,16.23994 0,1.56788 0.3363,3.13603 1.1201,4.59202 2.016,3.69579 6.272,5.5999 11.4241,5.5999 3.8079,0 7.9518,-1.00787 11.9838,-3.13604 7.3919,-3.91985 11.872,-10.52788 11.872,-16.23994 0,-1.56788 -0.3359,-3.13604 -1.12,-4.59203 M 254.66718,1347.4783 c -2.01601,-3.696 -6.27208,-5.712 -11.42412,-5.712 -3.80795,0 -7.95186,1.12 -11.98387,3.2479 -7.39184,3.9201 -11.87197,10.5282 -11.87197,16.2399 0,1.5682 0.33596,3.1361 1.12003,4.5921 2.01601,3.696 6.27208,5.5999 11.42412,5.5999 3.80795,0 7.95186,-1.0079 11.98387,-3.1358 7.39184,-3.9201 11.87197,-10.5281 11.87197,-16.2399 0,-1.5682 -0.33596,-3.1361 -1.12003,-4.5921 m 132.22838,0 c -2.01601,-3.696 -6.27208,-5.712 -11.42412,-5.712 -3.80795,0 -7.95186,1.12 -11.98387,3.2479 -7.39184,3.9201 -11.87197,10.5282 -11.87197,16.2399 0,1.5682 0.33596,3.1361 1.12003,4.5921 2.01601,3.696 6.27208,5.5999 11.42385,5.5999 3.80795,0 7.95213,-1.0079 11.98414,-3.1358 7.39184,-3.9201 11.87197,-10.5281 11.87197,-16.2399 0,-1.5682 -0.33622,-3.1361 -1.12003,-4.5921 m 132.22567,13.9991 c -2.016,-3.6958 -6.2718,-5.7118 -11.42385,-5.7118 -3.80795,0 -7.95185,1.12 -11.98386,3.2479 -7.39211,3.9199 -11.87197,10.5279 -11.87197,16.24 0,1.5679 0.33595,3.136 1.12003,4.592 2.016,3.6958 6.2718,5.5999 11.42385,5.5999 3.80795,0 7.95185,-1.0079 11.98386,-3.136 7.39211,-3.9199 11.87197,-10.5279 11.87197,-16.24 0,-1.5679 -0.33595,-3.136 -1.12003,-4.592 m 82.6424,-13.9991 c -2.01573,-3.696 -6.2718,-5.712 -11.42385,-5.712 -3.80795,0 -7.95185,1.12 -11.98386,3.2479 -7.39211,3.9201 -11.87197,10.5282 -11.87197,16.2399 0,1.5682 0.33595,3.1361 1.12003,4.5921 2.016,3.696 6.2718,5.5999 11.42385,5.5999 3.80795,0 7.95212,-1.0079 11.98386,-3.1358 7.39211,-3.9201 11.87198,-10.5281 11.87198,-16.2399 0,-1.5682 -0.33596,-3.1361 -1.12004,-4.5921 m 82.6424,13.9991 c -2.016,-3.6958 -6.27207,-5.7118 -11.42412,-5.7118 -3.80795,0 -7.95185,1.12 -11.98386,3.2479 -7.39184,3.9199 -11.87198,10.5279 -11.87198,16.24 0,1.5679 0.33596,3.136 1.12004,4.592 2.016,3.6958 6.27207,5.5999 11.42385,5.5999 3.80795,0 7.95212,-1.0079 11.98413,-3.136 7.39184,-3.9199 11.87198,-10.5279 11.87198,-16.24 0,-1.5679 -0.33623,-3.136 -1.12004,-4.592 m 82.63969,13.9963 c -2.016,-3.696 -6.27207,-5.712 -11.42412,-5.712 -3.80795,0 -7.95185,1.12 -11.98386,3.2482 -7.39184,3.9198 -11.87197,10.5279 -11.87197,16.2399 0,1.5679 0.33595,3.1358 1.12003,4.5918 2.016,3.696 6.27208,5.6001 11.42385,5.6001 3.80795,0 7.95212,-1.0081 11.98414,-3.136 7.39183,-3.9201 11.87197,-10.5279 11.87197,-16.2399 0,-1.5679 -0.33623,-3.1361 -1.12004,-4.5921 m 124.08417,27.9982 c -2.01601,-3.6958 -6.27208,-5.7118 -11.42385,-5.7118 -3.80795,0 -7.95213,1.12 -11.98414,3.2479 -7.39184,3.9198 -11.87197,10.5279 -11.87197,16.2399 0,1.5679 0.33623,3.1361 1.12003,4.5921 2.01601,3.6958 6.27208,5.5999 11.42412,5.5999 3.80795,0 7.95186,-1.0079 11.98387,-3.1361 7.39184,-3.9198 11.87197,-10.5279 11.87197,-16.2399 0,-1.5679 -0.33595,-3.1361 -1.12003,-4.592 m 125.66101,-27.9982 c -2.016,-3.696 -6.2718,-5.712 -11.4239,-5.712 -3.8079,0 -7.95183,1.12 -11.98384,3.2482 -7.39211,3.9198 -11.87197,10.5279 -11.87197,16.2399 0,1.5679 0.33596,3.1358 1.12003,4.5918 2.01601,3.696 6.27181,5.6001 11.42385,5.6001 3.80795,0 7.95183,-1.0081 11.98383,-3.136 7.3921,-3.9201 11.872,-10.5279 11.872,-16.2399 0,-1.5679 -0.3359,-3.1361 -1.12,-4.5921 m 125.6555,0 c -2.016,-3.696 -6.272,-5.712 -11.4238,-5.712 -3.808,0 -7.9521,1.12 -11.9841,3.2482 -7.3919,3.9198 -11.872,10.5279 -11.872,16.2399 0,1.5679 0.3362,3.1358 1.12,4.5918 2.016,3.696 6.2721,5.6001 11.4241,5.6001 3.808,0 7.9519,-1.0081 11.9839,-3.136 7.3918,-3.9201 11.872,-10.5279 11.872,-16.2399 0,-1.5679 -0.336,-3.1361 -1.1201,-4.5921 m 125.6665,-55.9908 c -2.016,-3.6958 -6.2718,-5.7118 -11.4239,-5.7118 -3.8079,0 -7.9518,1.1201 -11.9839,3.248 -7.3921,3.9198 -11.8719,10.5278 -11.8719,16.2399 0,1.5679 0.3359,3.136 1.12,4.592 2.016,3.6958 6.2718,5.5999 11.4239,5.5999 3.8079,0 7.9518,-1.0078 11.9838,-3.136 7.3921,-3.9199 11.872,-10.5279 11.872,-16.2399 0,-1.5679 -0.336,-3.1361 -1.12,-4.5921 m 167.0973,-42.0053 c -2.016,-3.696 -6.2718,-5.712 -11.4239,-5.712 -3.8079,0 -7.9518,1.12 -11.9838,3.2479 -7.3921,3.9201 -11.872,10.5281 -11.872,16.2399 0,1.5682 0.336,3.1361 1.12,4.5921 2.016,3.696 6.2718,5.5999 11.4239,5.5999 3.8079,0 7.9518,-1.0079 11.9839,-3.1358 7.3921,-3.9201 11.8719,-10.5282 11.8719,-16.24 0,-1.5681 -0.3359,-3.136 -1.12,-4.592 m 132.2257,42.0053 c -2.016,-3.6958 -6.2721,-5.7118 -11.4239,-5.7118 -3.8079,0 -7.9521,1.1201 -11.9841,3.248 -7.3919,3.9198 -11.872,10.5278 -11.872,16.2399 0,1.5679 0.3362,3.136 1.12,4.592 2.016,3.6958 6.2721,5.5999 11.4242,5.5999 3.8079,0 7.9518,-1.0078 11.9838,-3.136 7.3919,-3.9199 11.872,-10.5279 11.872,-16.2399 0,-1.5679 -0.336,-3.1361 -1.12,-4.5921 m 132.2283,-14.0099 c -2.016,-3.696 -6.272,-5.712 -11.4241,-5.712 -3.8079,0 -7.9518,1.12 -11.9838,3.2482 -7.3919,3.9198 -11.872,10.5279 -11.872,16.2399 0,1.5679 0.3359,3.1358 1.12,4.5918 2.016,3.696 6.2721,5.6001 11.4239,5.6001 3.8079,0 7.9521,-1.0081 11.9841,-3.136 7.3918,-3.9201 11.872,-10.5279 11.872,-16.2399 0,-1.5679 -0.3362,-3.1361 -1.1201,-4.5921 m 82.6452,-13.999 c -2.016,-3.6958 -6.2718,-5.7118 -11.4239,-5.7118 -3.8079,0 -7.9518,1.12 -11.9839,3.2479 -7.3921,3.9199 -11.8719,10.5279 -11.8719,16.24 0,1.5678 0.3359,3.136 1.12,4.592 2.016,3.6958 6.2718,5.5999 11.4239,5.5999 3.8079,0 7.9518,-1.0079 11.9838,-3.1361 7.3921,-3.9198 11.872,-10.5278 11.872,-16.2399 0,-1.5679 -0.336,-3.136 -1.12,-4.592 m 82.6342,13.999 c -2.016,-3.696 -6.2718,-5.712 -11.4238,-5.712 -3.808,0 -7.9519,1.12 -11.9839,3.2482 -7.3921,3.9198 -11.872,10.5279 -11.872,16.2399 0,1.5679 0.336,3.1358 1.1201,4.5918 2.016,3.696 6.2718,5.6001 11.4238,5.6001 3.808,0 7.9519,-1.0081 11.9839,-3.136 7.3921,-3.9201 11.872,-10.5279 11.872,-16.2399 0,-1.5679 -0.336,-3.1361 -1.1201,-4.5921 m 82.6451,14.0099 c -2.016,-3.6958 -6.272,-5.7118 -11.4238,-5.7118 -3.808,0 -7.9521,1.1201 -11.9841,3.248 -7.3919,3.9198 -11.872,10.5278 -11.872,16.2399 0,1.5679 0.3362,3.136 1.12,4.592 2.016,3.6958 6.2721,5.5999 11.4241,5.5999 3.808,0 7.9519,-1.0078 11.9839,-3.136 7.3918,-3.9199 11.872,-10.5279 11.872,-16.2399 0,-1.5679 -0.336,-3.1361 -1.1201,-4.5921 m -1692.92152,447.997 c -2.01601,-3.6961 -6.27208,-5.7121 -11.42412,-5.7121 -3.80795,0 -7.95186,1.1201 -11.98387,3.2482 -7.39184,3.9199 -11.87197,10.5279 -11.87197,16.24 0,1.5679 0.33596,3.1357 1.12003,4.5917 2.01601,3.6961 6.27208,5.6002 11.42412,5.6002 3.80795,0 7.95186,-1.0081 11.98387,-3.136 7.39184,-3.9202 11.87197,-10.5279 11.87197,-16.24 0,-1.5679 -0.33596,-3.136 -1.12003,-4.592 m 140.60289,-28.009 c -2.01601,-3.696 -6.27181,-5.712 -11.42385,-5.712 -3.80795,0 -7.95213,1.12 -11.98387,3.2482 -7.39211,3.9198 -11.87197,10.5279 -11.87197,16.2399 0,1.5679 0.33596,3.1358 1.11976,4.5918 2.01601,3.696 6.27208,5.6001 11.42412,5.6001 3.80795,0 7.95186,-1.0081 11.98387,-3.136 7.39211,-3.9201 11.87197,-10.5279 11.87197,-16.2399 0,-1.5679 -0.33595,-3.1361 -1.12003,-4.5921 m 140.60289,0 c -2.01601,-3.696 -6.27181,-5.712 -11.42385,-5.712 -3.80795,0 -7.95185,1.12 -11.98387,3.2482 -7.39211,3.9198 -11.87197,10.5279 -11.87197,16.2399 0,1.5679 0.33596,3.1358 1.12004,4.5918 2.016,3.696 6.2718,5.6001 11.42385,5.6001 3.80795,0 7.95185,-1.0081 11.98386,-3.136 7.39211,-3.9201 11.87197,-10.5279 11.87197,-16.2399 0,-1.5679 -0.33595,-3.1361 -1.12003,-4.5921 m 140.60289,-41.9944 c -2.016,-3.6961 -6.27208,-5.7121 -11.42412,-5.7121 -3.80795,0 -7.95185,1.12 -11.98386,3.2482 -7.39184,3.9199 -11.87198,10.5279 -11.87198,16.24 0,1.5678 0.33596,3.1357 1.12004,4.5917 2.016,3.6961 6.27207,5.6002 11.42385,5.6002 3.80795,0 7.95212,-1.0082 11.98413,-3.1361 7.39184,-3.9201 11.87197,-10.5278 11.87197,-16.2399 0,-1.5679 -0.33622,-3.136 -1.12003,-4.592 m 182.03924,70.0034 c -2.01601,-3.6961 -6.27208,-5.7121 -11.42385,-5.7121 -3.80795,0 -7.95213,1.1201 -11.98414,3.2482 -7.39184,3.9199 -11.87197,10.5279 -11.87197,16.24 0,1.5679 0.33623,3.1357 1.12003,4.5917 2.01601,3.6961 6.27208,5.6002 11.42413,5.6002 3.80795,0 7.95185,-1.0081 11.98386,-3.136 7.39184,-3.9202 11.87197,-10.5279 11.87197,-16.24 0,-1.5679 -0.33595,-3.136 -1.12003,-4.592 m 145.50681,0 c -2.0161,-3.6961 -6.27186,-5.7121 -11.4239,-5.7121 -3.80795,0 -7.95185,1.1201 -11.98386,3.2482 -7.39211,3.9199 -11.87198,10.5279 -11.87198,16.24 0,1.5679 0.33596,3.1357 1.12004,4.5917 2.016,3.6961 6.2718,5.6002 11.42385,5.6002 3.80795,0 7.95185,-1.0081 11.98386,-3.136 7.39209,-3.9202 11.87199,-10.5279 11.87199,-16.24 0,-1.5679 -0.336,-3.136 -1.12,-4.592 m 145.5148,13.9991 c -2.016,-3.6961 -6.272,-5.7121 -11.4241,-5.7121 -3.8079,0 -7.9518,1.12 -11.9838,3.2479 -7.3919,3.9201 -11.872,10.5282 -11.872,16.24 0,1.5681 0.3359,3.136 1.12,4.592 2.016,3.696 6.2721,5.5999 11.4239,5.5999 3.8079,0 7.9521,-1.0079 11.9841,-3.1358 7.3918,-3.9201 11.872,-10.5281 11.872,-16.2399 0,-1.5682 -0.3363,-3.1361 -1.1201,-4.592 m 90.9411,-13.9991 c -2.016,-3.6961 -6.2718,-5.7121 -11.4239,-5.7121 -3.8079,0 -7.9518,1.1201 -11.9838,3.2482 -7.3921,3.9199 -11.872,10.5279 -11.872,16.24 0,1.5679 0.336,3.1357 1.12,4.5917 2.016,3.6961 6.2718,5.6002 11.4239,5.6002 3.8079,0 7.9518,-1.0081 11.9839,-3.136 7.3921,-3.9202 11.8719,-10.5279 11.8719,-16.24 0,-1.5679 -0.3359,-3.136 -1.12,-4.592 m 90.9437,13.9991 c -2.016,-3.6961 -6.272,-5.7121 -11.4238,-5.7121 -3.808,0 -7.9521,1.12 -11.9841,3.2479 -7.3919,3.9201 -11.872,10.5282 -11.872,16.24 0,1.5681 0.3362,3.136 1.12,4.592 2.016,3.696 6.2721,5.5999 11.4241,5.5999 3.808,0 7.9519,-1.0079 11.9839,-3.1358 7.3918,-3.9201 11.872,-10.5281 11.872,-16.2399 0,-1.5682 -0.336,-3.1361 -1.1201,-4.592 m 90.9438,13.9963 c -2.016,-3.6958 -6.2721,-5.7118 -11.4241,-5.7118 -3.808,0 -7.9519,1.12 -11.9839,3.2479 -7.3918,3.9199 -11.872,10.5279 -11.872,16.24 0,1.5679 0.336,3.136 1.1201,4.592 2.016,3.6958 6.2721,5.5999 11.4238,5.5999 3.808,0 7.9522,-1.0079 11.9842,-3.136 7.3918,-3.9199 11.8719,-10.5279 11.8719,-16.24 0,-1.5679 -0.3362,-3.136 -1.12,-4.592 m 274.9608,0 c -2.016,-3.6958 -6.2721,-5.7118 -11.4241,-5.7118 -3.808,0 -7.9519,1.12 -11.9839,3.2479 -7.3918,3.9199 -11.872,10.5279 -11.872,16.24 0,1.5679 0.336,3.136 1.1201,4.592 2.016,3.6958 6.2721,5.5999 11.4238,5.5999 3.808,0 7.9522,-1.0079 11.9842,-3.136 7.3918,-3.9199 11.8719,-10.5279 11.8719,-16.24 0,-1.5679 -0.3362,-3.136 -1.12,-4.592 m 142.5888,0 c -2.016,-3.6958 -6.2718,-5.7118 -11.4238,-5.7118 -3.808,0 -7.9519,1.12 -11.9839,3.2479 -7.3921,3.9199 -11.872,10.5279 -11.872,16.24 0,1.5679 0.336,3.136 1.1201,4.592 2.016,3.6958 6.2718,5.5999 11.4238,5.5999 3.808,0 7.9519,-1.0079 11.9839,-3.136 7.3921,-3.9199 11.872,-10.5279 11.872,-16.24 0,-1.5679 -0.336,-3.136 -1.1201,-4.592 m -285.1668,27.9981 c -2.016,-3.696 -6.2721,-5.712 -11.4241,-5.712 -3.808,0 -7.9519,1.12 -11.9839,3.2479 -7.3918,3.9201 -11.8719,10.5281 -11.8719,16.2399 0,1.5682 0.3359,3.1361 1.12,4.5921 2.016,3.696 6.2721,5.5998 11.4238,5.5998 3.808,0 7.9522,-1.0078 11.9842,-3.1357 7.3918,-3.9201 11.872,-10.5282 11.872,-16.24 0,-1.5681 -0.3363,-3.136 -1.1201,-4.592 M 93.352073,117.98034 C 91.974654,111.89845 89.017702,107.62017 88.144217,106.45543 84.571436,101.67294 80.080196,98.481087 74.827365,96.969016 71.344263,95.972257 67.984164,95.848982 65.27376,96.050556 64.109023,89.31952 62.98899,82.733975 61.970015,76.630147 68.073843,69.719484 72.128341,63.223617 74.681875,58.407529 78.568124,51.038178 79.856135,45.908621 79.912218,45.684561 81.838545,39.849226 82.241692,31.225459 81.009764,22.030297 79.878622,13.574237 77.53777,6.0591241 74.905936,2.4191522 73.752307,0.81740196 72.576191,0 71.411454,0 70.045144,0 67.233953,1.3887976 63.997128,4.4909695 61.421106,6.9550964 57.758647,11.311955 54.891644,18.04299 c -3.360099,7.907423 -3.595268,18.535816 -3.203229,26.062308 0.425634,8.14232 1.66867,14.515184 1.679778,14.571267 0.02249,0.100786 0.31374,1.780565 0.817673,4.658947 -0.257656,0.257656 -0.526421,0.504205 -0.806294,0.772969 -1.164736,1.120033 -2.497722,2.396665 -4.043118,3.942332 -0.963435,0.963164 -2.027385,1.98241 -3.147418,3.068848 -9.463927,9.116863 -23.788646,22.91489 -23.788646,44.362949 0,5.26394 1.008138,10.21441 3.001656,14.70565 1.780837,4.03201 4.356858,7.70558 7.638387,10.91992 8.657634,8.45579 20.518225,12.05106 28.425377,11.87197 3.304016,-0.0786 6.249589,-0.34733 8.926398,-0.85127 2.049601,10.75194 3.326504,18.6255 3.371207,24.60605 0.0447,7.29132 -1.803052,11.73759 -6.17129,14.84003 -2.721512,1.93771 -5.868659,3.00166 -9.340653,3.16964 -2.900869,0.13438 -5.431916,-0.39204 -7.033666,-0.851 h -0.01111 c 0,0 -0.324847,-0.0897 -0.335955,-0.31374 -0.01111,-0.20157 0.380659,-0.25766 0.392038,-0.25766 h 0.02222 c 2.150658,-0.49282 6.148802,-1.87024 8.792015,-5.5663 2.016006,-2.8223 2.990548,-7.99683 0.929568,-12.40977 -1.243036,-2.67654 -4.054227,-5.98055 -10.34852,-6.48448 -2.788974,-0.22407 -5.331401,0.34706 -7.571196,1.69115 -2.027384,1.20944 -3.707163,3.04636 -4.883279,5.28616 -2.755108,5.26421 -2.240066,11.68177 1.265524,15.98255 3.315395,4.0545 8.489655,6.64136 14.571267,7.29105 0.952055,0.10079 1.903839,0.14549 2.855894,0.14549 4.961579,0 9.889562,-1.34382 13.887977,-3.81906 4.099201,-2.87838 6.47365,-7.33602 7.23524,-13.64142 0.627207,-5.19702 0.190194,-11.81589 -1.37769,-20.85446 -0.403147,-2.34085 -1.007867,-5.73427 -1.74724,-9.94537 6.440054,-2.15066 11.099273,-6.1488 15.321477,-12.70102 3.684947,-6.42868 4.737789,-13.2605 3.136039,-20.31638 m -38.314938,29.33245 c -5.196748,-1.36631 -10.158326,-4.16639 -14.369423,-8.08623 -1.467368,-1.37769 -3.561673,-3.80822 -5.208127,-7.60479 -1.534288,-3.53919 -2.273661,-7.38074 -2.217578,-11.40164 0.0783,-5.25283 1.545667,-10.65115 4.356858,-16.01587 3.27042,-6.249594 8.377489,-12.4431 15.164608,-18.412817 1.623967,-1.433501 3.158526,-2.867003 4.603135,-4.300775 0.851269,4.771384 1.780837,10.023944 2.766487,15.489727 -4.311883,1.422122 -9.631905,4.950195 -13.115278,11.278085 -3.964548,7.35852 -3.80795,13.54092 -2.990277,17.43854 1.052842,4.99518 3.88652,9.20627 7.761661,11.54713 1.041463,0.6272 5.667086,3.01276 7.727795,2.36307 0.414526,-0.13439 0.716886,-0.38066 0.873756,-0.75049 0.571124,-1.31022 -0.571396,-2.02684 -2.318366,-3.10217 -0.672182,-0.41452 -1.422393,-0.88486 -2.240066,-1.47847 -3.718271,-2.78871 -5.342509,-7.77277 -4.143905,-12.67827 0.649424,-2.68792 2.083196,-5.10734 4.143905,-7.01118 1.870515,-1.73613 4.155285,-2.96806 6.820714,-3.68467 2.28477,12.58858 4.592027,25.07638 6.428947,34.43979 0.14549,0.7727 0.30236,1.52291 0.44785,2.27339 -4.905495,1.04174 -9.777666,0.94095 -14.492696,-0.30236 m 12.678264,-37.16131 c 11.592099,-0.52642 16.37432,7.80637 17.371079,13.2158 0.526421,2.83368 0.515313,7.80636 -1.209441,12.52166 -1.310498,3.56141 -4.065606,8.11984 -9.811261,10.4271 -0.0783,-0.47034 -0.167978,-0.95179 -0.257657,-1.43351 -1.724753,-9.82237 -3.897357,-22.13108 -6.09272,-34.73105 M 59.516996,30.699039 c 1.993789,-6.428676 5.062365,-10.068648 7.291323,-12.006354 1.959922,-1.702266 3.80795,-2.497722 4.838304,-2.497722 0.15687,0 0.291252,0.02249 0.403147,0.05608 0.515313,0.156869 1.108925,0.795185 1.635346,1.769728 2.58713,4.804709 1.758349,12.319821 0.257385,17.292508 -1.82554,6.048016 -5.09596,12.342309 -14.951926,23.105626 C 58.800381,57.175601 58.621024,55.999756 58.453046,54.90221 57.05314,45.617369 57.411583,37.475049 59.516996,30.699039 M 93.352073,537.97675 c -1.377419,-6.08161 -4.334371,-10.3599 -5.207856,-11.52464 -3.572781,-4.78249 -8.064021,-7.97434 -13.316852,-9.48641 -3.483102,-0.99676 -6.843201,-1.12004 -9.553605,-0.91846 -1.164737,-6.73104 -2.28477,-13.31658 -3.303745,-19.42068 6.103828,-6.9104 10.158326,-13.40626 12.71186,-18.22235 3.886249,-7.36935 5.17426,-12.49891 5.230343,-12.72297 1.926327,-5.83533 2.329474,-14.45937 1.097546,-23.65426 -1.131142,-8.45606 -3.471994,-15.97117 -6.103828,-19.61115 -1.153629,-1.60175 -2.329745,-2.41942 -3.494482,-2.41942 -1.36631,0 -4.177501,1.3888 -7.414326,4.49124 -2.576022,2.46413 -6.238481,6.82071 -9.105484,13.55202 -3.360099,7.90715 -3.595268,18.53582 -3.203229,26.06231 0.425634,8.14232 1.66867,14.51518 1.679778,14.57127 0.02249,0.10051 0.31374,1.78056 0.817673,4.65894 -0.257656,0.25766 -0.526421,0.50394 -0.806294,0.77297 -1.164736,1.12004 -2.497722,2.39667 -4.043118,3.94233 -0.963435,0.96317 -2.027385,1.98241 -3.147418,3.06858 -9.463927,9.11686 -23.788646,22.91516 -23.788646,44.36323 0,5.26393 1.008138,10.21413 3.001656,14.70537 1.780837,4.03201 4.356858,7.70585 7.638387,10.92019 8.657634,8.45579 20.518225,12.05106 28.425377,11.87197 3.304016,-0.0786 6.249589,-0.34733 8.926398,-0.85154 2.049601,10.75194 3.326504,18.6255 3.371207,24.60632 0.0447,7.29132 -1.803052,11.73759 -6.17129,14.84003 -2.721512,1.93744 -5.868659,3.00166 -9.340653,3.16964 -2.900869,0.13438 -5.431916,-0.39204 -7.033666,-0.85127 h -0.01111 c 0,0 -0.324847,-0.0894 -0.335955,-0.31347 -0.01111,-0.20184 0.380659,-0.25766 0.392038,-0.25766 h 0.02222 c 2.150658,-0.49282 6.148802,-1.87024 8.792015,-5.5663 2.016006,-2.82229 2.990548,-7.99683 0.929568,-12.40977 -1.243036,-2.67653 -4.054227,-5.98055 -10.34852,-6.48448 -2.788974,-0.22406 -5.331401,0.34706 -7.571196,1.69088 -2.027384,1.20971 -3.707163,3.04636 -4.883279,5.28643 -2.755108,5.26394 -2.240066,11.6815 1.265524,15.98255 3.315395,4.05423 8.489655,6.64136 14.571267,7.29105 0.952055,0.10079 1.903839,0.14549 2.855894,0.14549 4.961579,0 9.889562,-1.34382 13.887977,-3.81905 4.099201,-2.87839 6.47365,-7.33603 7.23524,-13.64143 0.627207,-5.19702 0.190194,-11.81589 -1.37769,-20.85445 -0.403147,-2.34086 -1.007867,-5.73428 -1.74724,-9.94538 6.440054,-2.15066 11.099273,-6.14907 15.321477,-12.70102 3.684947,-6.42868 4.737789,-13.2605 3.136039,-20.31665 m -38.314938,29.33273 c -5.196748,-1.36631 -10.158326,-4.1664 -14.369423,-8.08651 -1.467368,-1.37742 -3.561673,-3.80795 -5.208127,-7.60452 -1.534288,-3.53946 -2.273661,-7.38101 -2.217578,-11.40164 0.0783,-5.25283 1.545667,-10.65115 4.356858,-16.01587 3.27042,-6.24959 8.377489,-12.44337 15.164608,-18.41282 1.623967,-1.4335 3.158526,-2.867 4.603135,-4.30077 0.851269,4.77138 1.780837,10.02394 2.766487,15.48973 -4.311883,1.42212 -9.631905,4.9502 -13.115278,11.27808 -3.964548,7.35852 -3.80795,13.54092 -2.990277,17.43827 1.052842,4.99545 3.88652,9.20655 7.761661,11.5474 1.041463,0.62693 5.667086,3.01276 7.727795,2.36307 0.414526,-0.13438 0.716886,-0.38093 0.873756,-0.75048 0.571124,-1.31023 -0.571396,-2.02712 -2.318366,-3.10245 -0.672182,-0.41425 -1.422393,-0.88459 -2.240066,-1.4782 -3.718271,-2.78871 -5.342509,-7.77277 -4.143905,-12.67827 0.649424,-2.68818 2.083196,-5.10734 4.143905,-7.01145 1.870515,-1.73586 4.155285,-2.96779 6.820714,-3.6844 2.28477,12.58858 4.592027,25.07638 6.428947,34.43979 0.14549,0.7727 0.30236,1.52291 0.44785,2.2734 -4.905495,1.04146 -9.777666,0.94094 -14.492696,-0.30236 M 67.715399,530.1479 c 11.592099,-0.52615 16.37432,7.80663 17.371079,13.21606 0.526421,2.83368 0.515313,7.80636 -1.209441,12.5214 -1.310498,3.56167 -4.065606,8.1201 -9.811261,10.42736 -0.0783,-0.47034 -0.167978,-0.95206 -0.257657,-1.43378 -1.724753,-9.8221 -3.897357,-22.13108 -6.09272,-34.73104 m -8.198403,-79.45218 c 1.993789,-6.42868 5.062365,-10.06865 7.291323,-12.00635 1.959922,-1.70254 3.80795,-2.49773 4.838304,-2.49773 0.15687,0 0.291252,0.0225 0.403147,0.0561 0.515313,0.1566 1.108925,0.79518 1.635346,1.76972 2.58713,4.80444 1.758349,12.31983 0.257385,17.29251 -1.82554,6.04802 -5.09596,12.34231 -14.951926,23.10563 -0.190194,-1.24331 -0.369551,-2.41942 -0.537529,-3.5167 -1.399906,-9.28484 -1.041463,-17.42743 1.06395,-24.20317 m 33.835077,507.27446 c -1.377419,-6.08189 -4.334371,-10.36017 -5.207856,-11.52491 -3.572781,-4.78249 -8.064021,-7.97434 -13.316852,-9.48641 -3.483102,-0.99676 -6.843201,-1.12004 -9.553605,-0.91846 -1.164737,-6.73104 -2.28477,-13.31658 -3.303745,-19.42041 6.103828,-6.91067 10.158326,-13.40653 12.71186,-18.22262 3.886249,-7.36935 5.17426,-12.49891 5.230343,-12.72297 1.926327,-5.83533 2.329474,-14.4591 1.097546,-23.65426 -1.131142,-8.45606 -3.471994,-15.97118 -6.103828,-19.61115 -1.153629,-1.60175 -2.329745,-2.41915 -3.494482,-2.41915 -1.36631,0 -4.177501,1.3888 -7.414326,4.49097 -2.576022,2.46413 -6.238481,6.82098 -9.105484,13.55202 -3.360099,7.90742 -3.595268,18.53582 -3.203229,26.06231 0.425634,8.14232 1.66867,14.51518 1.679778,14.57126 0.02249,0.10079 0.31374,1.78057 0.817673,4.65895 -0.257656,0.25766 -0.526421,0.50421 -0.806294,0.77297 -1.164736,1.12003 -2.497722,2.39667 -4.043118,3.94233 -0.963435,0.96317 -2.027385,1.98241 -3.147418,3.06885 -9.463927,9.11686 -23.788646,22.91489 -23.788646,44.36295 0,5.26394 1.008138,10.21441 3.001656,14.70565 1.780837,4.03201 4.356858,7.70558 7.638387,10.91992 8.657634,8.45579 20.518225,12.05106 28.425377,11.87197 3.304016,-0.0786 6.249589,-0.34733 8.926398,-0.85127 2.049601,10.75197 3.326504,18.62547 3.371207,24.60607 0.0447,7.2913 -1.803052,11.7376 -6.17129,14.84 -2.721512,1.9377 -5.868659,3.0017 -9.340653,3.1696 -2.900869,0.1344 -5.431916,-0.392 -7.033666,-0.851 h -0.01111 c 0,0 -0.324847,-0.09 -0.335955,-0.3137 -0.01111,-0.2016 0.380659,-0.2577 0.392038,-0.2577 h 0.02222 c 2.150658,-0.4928 6.148802,-1.8702 8.792015,-5.5663 2.016006,-2.8223 2.990548,-7.9968 0.929568,-12.4097 -1.243036,-2.6766 -4.054227,-5.9806 -10.34852,-6.4845 -2.788974,-0.2241 -5.331401,0.347 -7.571196,1.6911 -2.027384,1.2095 -3.707163,3.0464 -4.883279,5.2862 -2.755108,5.2642 -2.240066,11.6818 1.265524,15.9826 3.315395,4.0544 8.489655,6.6413 14.571267,7.291 0.952055,0.1008 1.903839,0.1455 2.855894,0.1455 4.961579,0 9.889562,-1.3438 13.887977,-3.8191 4.099201,-2.8783 6.47365,-7.336 7.23524,-13.6414 0.627207,-5.197 0.190194,-11.8159 -1.37769,-20.8544 -0.403147,-2.34089 -1.007867,-5.73431 -1.74724,-9.94541 6.440054,-2.15066 11.099273,-6.1488 15.321477,-12.70102 3.684947,-6.42868 4.737789,-13.2605 3.136039,-20.31638 m -38.314938,29.33245 c -5.196748,-1.36631 -10.158326,-4.16639 -14.369423,-8.08623 -1.467368,-1.37769 -3.561673,-3.80822 -5.208127,-7.60479 -1.534288,-3.53919 -2.273661,-7.38074 -2.217578,-11.40164 0.0783,-5.25283 1.545667,-10.65115 4.356858,-16.01587 3.27042,-6.24959 8.377489,-12.4431 15.164608,-18.41282 1.623967,-1.4335 3.158526,-2.867 4.603135,-4.30077 0.851269,4.77138 1.780837,10.02394 2.766487,15.48972 -4.311883,1.42213 -9.631905,4.9502 -13.115278,11.27809 -3.964548,7.35852 -3.80795,13.54092 -2.990277,17.43854 1.052842,4.99518 3.88652,9.20627 7.761661,11.54713 1.041463,0.6272 5.667086,3.01276 7.727795,2.36307 0.414526,-0.13439 0.716886,-0.38066 0.873756,-0.75049 0.571124,-1.31022 -0.571396,-2.02684 -2.318366,-3.10217 -0.672182,-0.41452 -1.422393,-0.88486 -2.240066,-1.47847 -3.718271,-2.78871 -5.342509,-7.77277 -4.143905,-12.67827 0.649424,-2.68792 2.083196,-5.10734 4.143905,-7.01118 1.870515,-1.73613 4.155285,-2.96806 6.820714,-3.68467 2.28477,12.58858 4.592027,25.07638 6.428947,34.43979 0.14549,0.7727 0.30236,1.52291 0.44785,2.27339 -4.905495,1.04174 -9.777666,0.94095 -14.492696,-0.30236 m 12.678264,-37.16131 c 11.592099,-0.52642 16.37432,7.80637 17.371079,13.2158 0.526421,2.83368 0.515313,7.80636 -1.209441,12.52167 -1.310498,3.5614 -4.065606,8.11983 -9.811261,10.42709 -0.0783,-0.47034 -0.167978,-0.95179 -0.257657,-1.43351 -1.724753,-9.82237 -3.897357,-22.13108 -6.09272,-34.73105 m -8.198403,-79.45244 c 1.993789,-6.42868 5.062365,-10.06865 7.291323,-12.00635 1.959922,-1.70227 3.80795,-2.49773 4.838304,-2.49773 0.15687,0 0.291252,0.0225 0.403147,0.0561 0.515313,0.15687 1.108925,0.79518 1.635346,1.76972 2.58713,4.80471 1.758349,12.31983 0.257385,17.29251 -1.82554,6.04802 -5.09596,12.34231 -14.951926,23.10563 -0.190194,-1.24331 -0.369551,-2.41915 -0.537529,-3.5167 -1.399906,-9.28484 -1.041463,-17.42716 1.06395,-24.20317 m 33.835077,507.2828 c -1.377419,-6.0816 -4.334371,-10.3599 -5.207856,-11.5249 -3.572781,-4.7822 -8.064021,-7.9743 -13.316852,-9.4864 -3.483102,-0.9965 -6.843201,-1.1197 -9.553605,-0.9182 -1.164737,-6.7313 -2.28477,-13.3168 -3.303745,-19.4207 6.103828,-6.9103 10.158326,-13.4065 12.71186,-18.2223 3.886249,-7.3696 5.17426,-12.4992 5.230343,-12.7232 1.926327,-5.8351 2.329474,-14.4591 1.097546,-23.6543 -1.131142,-8.4558 -3.471994,-15.9712 -6.103828,-19.6111 -1.153629,-1.6015 -2.329745,-2.4192 -3.494482,-2.4192 -1.36631,0 -4.177501,1.3888 -7.414326,4.4912 -2.576022,2.4639 -6.238481,6.8208 -9.105484,13.5518 -3.360099,7.9074 -3.595268,18.5361 -3.203229,26.0623 0.425634,8.1423 1.66867,14.5155 1.679778,14.5713 0.02249,0.1007 0.31374,1.7808 0.817673,4.6592 -0.257656,0.2574 -0.526421,0.5039 -0.806294,0.7727 -1.164736,1.12 -2.497722,2.3966 -4.043118,3.9423 -0.963435,0.9634 -2.027385,1.9824 -3.147418,3.0689 -9.463927,9.1168 -23.788646,22.9151 -23.788646,44.3629 0,5.264 1.008138,10.2144 3.001656,14.7057 1.780837,4.032 4.356858,7.7055 7.638387,10.9199 8.657634,8.456 20.518225,12.051 28.425377,11.8719 3.304016,-0.078 6.249589,-0.3473 8.926398,-0.8512 2.049601,10.7519 3.326504,18.6255 3.371207,24.6063 0.0447,7.2911 -1.803052,11.7376 -6.17129,14.8398 -2.721512,1.9377 -5.868659,3.0016 -9.340653,3.1696 -2.900869,0.1344 -5.431916,-0.392 -7.033666,-0.851 h -0.01111 c 0,0 -0.324847,-0.09 -0.335955,-0.3137 -0.01111,-0.2016 0.380659,-0.2577 0.392038,-0.2577 h 0.02222 c 2.150658,-0.4926 6.148802,-1.8702 8.792015,-5.5663 2.016006,-2.8223 2.990548,-7.9968 0.929568,-12.4095 -1.243036,-2.6768 -4.054227,-5.9808 -10.34852,-6.4848 -2.788974,-0.224 -5.331401,0.3471 -7.571196,1.6912 -2.027384,1.2094 -3.707163,3.0464 -4.883279,5.2864 -2.755108,5.264 -2.240066,11.6815 1.265524,15.9823 3.315395,4.0545 8.489655,6.6416 14.571267,7.2911 0.952055,0.101 1.903839,0.1457 2.855894,0.1457 4.961579,0 9.889562,-1.3441 13.887977,-3.8193 4.099201,-2.8784 6.47365,-7.336 7.23524,-13.6414 0.627207,-5.1968 0.190194,-11.8159 -1.37769,-20.8545 -0.403147,-2.3406 -1.007867,-5.7343 -1.74724,-9.9454 6.440054,-2.1503 11.099273,-6.1488 15.321477,-12.7007 3.684947,-6.4287 4.737789,-13.2608 3.136039,-20.3167 m -38.314938,29.3325 c -5.196748,-1.3663 -10.158326,-4.1664 -14.369423,-8.0862 -1.467368,-1.3777 -3.561673,-3.808 -5.208127,-7.6048 -1.534288,-3.5392 -2.273661,-7.3808 -2.217578,-11.4014 0.0783,-5.2528 1.545667,-10.6514 4.356858,-16.0159 3.27042,-6.2498 8.377489,-12.4433 15.164608,-18.4128 1.623967,-1.4335 3.158526,-2.8673 4.603135,-4.301 0.851269,4.7714 1.780837,10.0242 2.766487,15.4897 -4.311883,1.4224 -9.631905,4.9502 -13.115278,11.2784 -3.964548,7.3582 -3.80795,13.5406 -2.990277,17.4382 1.052842,4.9952 3.88652,9.2063 7.761661,11.5471 1.041463,0.6273 5.667086,3.0128 7.727795,2.3631 0.414526,-0.1344 0.716886,-0.3806 0.873756,-0.7502 0.571124,-1.3105 -0.571396,-2.0271 -2.318366,-3.1024 -0.672182,-0.4143 -1.422393,-0.8849 -2.240066,-1.4782 -3.718271,-2.789 -5.342509,-7.7731 -4.143905,-12.6786 0.649424,-2.6879 2.083196,-5.107 4.143905,-7.0112 1.870515,-1.7358 4.155285,-2.968 6.820714,-3.6846 2.28477,12.5886 4.592027,25.0766 6.428947,34.4398 0.14549,0.7727 0.30236,1.5231 0.44785,2.2734 -4.905495,1.0417 -9.777666,0.9409 -14.492696,-0.3024 m 12.678264,-37.1613 c 11.592099,-0.5264 16.37432,7.8063 17.371079,13.216 0.526421,2.8335 0.515313,7.8064 -1.209441,12.5214 -1.310498,3.5617 -4.065606,8.1199 -9.811261,10.4274 -0.0783,-0.4706 -0.167978,-0.9521 -0.257657,-1.4338 -1.724753,-9.8223 -3.897357,-22.1311 -6.09272,-34.731 M 59.517,1290.6904 c 1.993789,-6.4286 5.062365,-10.0686 7.291323,-12.0063 1.959922,-1.7023 3.80795,-2.4975 4.838304,-2.4975 0.15687,0 0.291252,0.022 0.403147,0.056 0.515313,0.1569 1.108925,0.7955 1.635346,1.7698 2.58713,4.8047 1.758349,12.3201 0.257385,17.2928 -1.82554,6.0477 -5.09596,12.3423 -14.951926,23.1053 -0.190194,-1.2433 -0.369551,-2.4191 -0.537529,-3.5167 -1.399906,-9.2848 -1.041463,-17.4272 1.06395,-24.2032 m 33.835077,507.2829 c -1.377419,-6.0816 -4.334371,-10.3599 -5.207856,-11.5246 -3.572781,-4.7825 -8.064021,-7.9747 -13.316852,-9.4865 -3.483102,-0.9967 -6.843201,-1.12 -9.553605,-0.9184 -1.164737,-6.7313 -2.28477,-13.3166 -3.303745,-19.4207 6.103828,-6.9104 10.158326,-13.4063 12.71186,-18.2223 3.886249,-7.3694 5.17426,-12.499 5.230343,-12.723 1.926327,-5.8353 2.329474,-14.4594 1.097546,-23.6543 -1.131142,-8.456 -3.471994,-15.9714 -6.103828,-19.6114 -1.153629,-1.6015 -2.329745,-2.4191 -3.494482,-2.4191 -1.36631,0 -4.177501,1.3888 -7.414326,4.4912 -2.576022,2.4641 -6.238481,6.8207 -9.105484,13.552 -3.360099,7.9072 -3.595268,18.5358 -3.203229,26.0623 0.425634,8.1423 1.66867,14.5152 1.679778,14.5713 0.02249,0.1005 0.31374,1.7806 0.817673,4.6589 -0.257656,0.2577 -0.526421,0.504 -0.806294,0.773 -1.164736,1.12 -2.497722,2.3967 -4.043118,3.9423 -0.963435,0.9632 -2.027385,1.9822 -3.147418,3.0686 -9.463927,9.1169 -23.788646,22.9152 -23.788646,44.363 0,5.2642 1.008138,10.2144 3.001656,14.7056 1.780837,4.032 4.356858,7.7056 7.638387,10.9202 8.657634,8.4558 20.518225,12.0508 28.425377,11.8717 3.304016,-0.078 6.249589,-0.3473 8.926398,-0.8513 2.049601,10.752 3.326504,18.6255 3.371207,24.6064 0.0447,7.2913 -1.803052,11.7375 -6.17129,14.84 -2.721512,1.9374 -5.868659,3.0014 -9.340653,3.1696 -2.900869,0.1344 -5.431916,-0.392 -7.033666,-0.8512 H 51.2067 c 0,0 -0.324847,-0.09 -0.335955,-0.3135 -0.01111,-0.2019 0.380659,-0.2577 0.392038,-0.2577 h 0.02222 c 2.150658,-0.4928 6.148802,-1.8705 8.792015,-5.5663 2.016006,-2.8225 2.990548,-7.9968 0.929568,-12.4097 -1.243036,-2.6766 -4.054227,-5.9806 -10.34852,-6.4845 -2.788974,-0.2241 -5.331401,0.347 -7.571196,1.6909 -2.027384,1.2097 -3.707163,3.0463 -4.883279,5.2864 -2.755108,5.2639 -2.240066,11.6815 1.265524,15.9825 3.315395,4.0543 8.489655,6.6414 14.571267,7.2911 0.952055,0.1008 1.903839,0.1455 2.855894,0.1455 4.961579,0 9.889562,-1.3441 13.887977,-3.8191 4.099201,-2.8784 6.47365,-7.336 7.23524,-13.6414 0.627207,-5.197 0.190194,-11.8162 -1.37769,-20.8545 -0.403147,-2.3408 -1.007867,-5.7345 -1.74724,-9.9456 6.440054,-2.1504 11.099273,-6.1488 15.321477,-12.7008 3.684947,-6.4286 4.737789,-13.2605 3.136039,-20.3166 m -38.314938,29.3327 c -5.196748,-1.3666 -10.158326,-4.1664 -14.369423,-8.0865 -1.467368,-1.3774 -3.561673,-3.8079 -5.208127,-7.6045 -1.534288,-3.5395 -2.273661,-7.381 -2.217578,-11.4016 0.0783,-5.2529 1.545667,-10.6512 4.356858,-16.0159 3.27042,-6.2496 8.377489,-12.4434 15.164608,-18.4128 1.623967,-1.4335 3.158526,-2.867 4.603135,-4.3008 0.851269,4.7711 1.780837,10.0239 2.766487,15.4895 -4.311883,1.4223 -9.631905,4.9504 -13.115278,11.2783 -3.964548,7.3585 -3.80795,13.5409 -2.990277,17.4383 1.052842,4.9954 3.88652,9.2065 7.761661,11.5474 1.041463,0.6269 5.667086,3.0125 7.727795,2.363 0.414526,-0.1343 0.716886,-0.3809 0.873756,-0.7504 0.571124,-1.3105 -0.571396,-2.0272 -2.318366,-3.1025 -0.672182,-0.4142 -1.422393,-0.8846 -2.240066,-1.4782 -3.718271,-2.789 -5.342509,-7.7728 -4.143905,-12.6783 0.649424,-2.6881 2.083196,-5.1073 4.143905,-7.0114 1.870515,-1.7359 4.155285,-2.9678 6.820714,-3.6847 2.28477,12.5889 4.592027,25.0767 6.428947,34.4398 0.14549,0.7727 0.30236,1.5232 0.44785,2.2737 -4.905495,1.0414 -9.777666,0.9409 -14.492696,-0.3024 m 12.678264,-37.1616 c 11.592099,-0.5264 16.37432,7.8064 17.371079,13.2161 0.526421,2.8337 0.515313,7.8064 -1.209441,12.5214 -1.310498,3.5617 -4.065606,8.1201 -9.811261,10.4274 -0.0783,-0.4704 -0.167978,-0.9521 -0.257657,-1.4338 -1.724753,-9.8221 -3.897357,-22.1311 -6.09272,-34.7311 m -8.198403,-79.4524 c 1.993789,-6.4287 5.062365,-10.0687 7.291323,-12.0061 1.959922,-1.7025 3.80795,-2.4977 4.838304,-2.4977 0.15687,0 0.291252,0.023 0.403147,0.056 0.515313,0.1566 1.108925,0.7952 1.635346,1.7694 2.58713,4.8047 1.758349,12.3201 0.257385,17.2928 -1.82554,6.048 -5.09596,12.3423 -14.951926,23.1054 -0.190194,-1.2431 -0.369551,-2.4192 -0.537529,-3.5167 -1.399906,-9.2849 -1.041463,-17.4272 1.06395,-24.2032 M 148.15864,28.68222 c 0.67219,-0.111895 1.23193,-0.895972 1.23193,-1.567883 v -6.608033 c 0,-0.895972 -0.67191,-1.567883 -1.56788,-1.567883 h -0.22406 l -3.69579,0.784077 V 3.0344388 h -3.13603 V 20.394409 l -9.96814,2.016006 V 6.6183279 h -3.13576 V 23.082326 l -4.36797,0.895972 c -0.67218,0.112166 -1.2322,0.895973 -1.2322,1.568155 v 6.719927 -0.22406 c 0,0.895972 0.67218,1.567883 1.56816,1.567883 h 0.33595 l 3.69606,-0.783806 v 18.479732 l -4.36797,0.895973 c -0.67218,0.112166 -1.2322,0.896243 -1.2322,1.568154 v 6.495867 c 0,0.895972 0.67218,1.568155 1.56816,1.568155 h 0.33595 l 3.69606,-0.784078 v 16.687788 h 3.13576 V 60.378289 l 9.96814,-2.016005 v 15.791815 h 3.13603 V 57.690101 l 4.2558,-0.783806 c 0.67219,-0.112166 1.23193,-0.895972 1.23193,-1.568155 v -6.607761 c 0,-0.896244 -0.67191,-1.568155 -1.56788,-1.568155 h -0.22406 l -3.69579,0.784077 V 29.466298 l 4.2558,-0.784078 M 130.79867,50.746113 V 32.154215 l 9.96814,-2.016006 v 18.480004 l -9.96814,2.1279 m 17.35997,397.934147 c 0.67219,-0.1119 1.23193,-0.89598 1.23193,-1.56789 v -6.60803 c 0,-0.89597 -0.67191,-1.56788 -1.56788,-1.56788 h -0.22406 l -3.69579,0.78407 v -16.68806 h -3.13603 v 17.35998 l -9.96814,2.016 v -15.79209 h -3.13576 v 16.464 l -4.36797,0.89597 c -0.67218,0.11217 -1.2322,0.89598 -1.2322,1.56816 v 6.71993 -0.22406 c 0,0.89597 0.67218,1.56788 1.56816,1.56788 h 0.33595 l 3.69606,-0.78381 v 18.47974 l -4.36797,0.89597 c -0.67218,0.11216 -1.2322,0.89624 -1.2322,1.56815 v 6.49587 c 0,0.89597 0.67218,1.56815 1.56816,1.56815 h 0.33595 l 3.69606,-0.78407 v 16.68778 h 3.13576 v -17.3597 l 9.96814,-2.016 v 15.79182 h 3.13603 v -16.464 l 4.2558,-0.78381 c 0.67219,-0.11217 1.23193,-0.89597 1.23193,-1.56815 v -6.60777 c 0,-0.89624 -0.67191,-1.56815 -1.56788,-1.56815 h -0.22406 l -3.69579,0.78408 v -18.48001 l 4.2558,-0.78407 m -17.35997,22.06389 v -18.5919 l 9.96814,-2.01601 v 18.48001 l -9.96814,2.1279 m 17.35997,397.92954 c 0.67219,-0.1119 1.23193,-0.89598 1.23193,-1.56789 v -6.60803 c 0,-0.89597 -0.67191,-1.56788 -1.56788,-1.56788 h -0.22406 l -3.69579,0.78407 V 843.0259 h -3.13603 v 17.35997 l -9.96814,2.01601 v -15.79209 h -3.13576 v 16.464 l -4.36797,0.89597 c -0.67218,0.11217 -1.2322,0.89598 -1.2322,1.56816 v 6.71993 -0.22406 c 0,0.89597 0.67218,1.56788 1.56816,1.56788 h 0.33595 l 3.69606,-0.78381 v 18.47974 l -4.36797,0.89597 c -0.67218,0.11216 -1.2322,0.89624 -1.2322,1.56815 v 6.49587 c 0,0.89597 0.67218,1.56815 1.56816,1.56815 h 0.33595 l 3.69606,-0.78407 v 16.68778 h 3.13576 v -17.3597 l 9.96814,-2.016 v 15.79182 h 3.13603 v -16.464 l 4.2558,-0.78381 c 0.67219,-0.11217 1.23193,-0.89597 1.23193,-1.56815 v -6.60777 c 0,-0.89624 -0.67191,-1.56815 -1.56788,-1.56815 h -0.22406 l -3.69579,0.78408 v -18.48001 l 4.2558,-0.78407 m -17.35997,22.06389 v -18.5919 l 9.96814,-2.01601 v 18.48001 l -9.96814,2.1279 m 17.35997,397.93762 c 0.67219,-0.1121 1.23193,-0.8959 1.23193,-1.5681 v -6.6078 c 0,-0.8959 -0.67191,-1.5681 -1.56788,-1.5681 h -0.22406 l -3.69579,0.7841 v -16.6881 h -3.13603 v 17.36 l -9.96814,2.016 v -15.7918 h -3.13576 v 16.4637 l -4.36797,0.8962 c -0.67218,0.1119 -1.2322,0.896 -1.2322,1.5679 v 6.7199 -0.224 c 0,0.8959 0.67218,1.5681 1.56816,1.5681 h 0.33595 l 3.69606,-0.7841 v 18.4801 l -4.36797,0.8959 c -0.67218,0.1119 -1.2322,0.896 -1.2322,1.5679 v 6.4961 c 0,0.896 0.67218,1.5679 1.56816,1.5679 h 0.33595 l 3.69606,-0.784 v 16.688 h 3.13576 v -17.36 l 9.96814,-2.016 v 15.7919 h 3.13603 v -16.4638 l 4.2558,-0.7841 c 0.67219,-0.1118 1.23193,-0.8959 1.23193,-1.5678 v -6.6081 c 0,-0.8959 -0.67191,-1.5681 -1.56788,-1.5681 h -0.22406 l -3.69579,0.7841 v -18.48 l 4.2558,-0.7839 m -17.35997,22.0639 v -18.5919 l 9.96814,-2.016 v 18.4798 l -9.96814,2.1281 m 17.35997,397.9377 c 0.67219,-0.1119 1.23193,-0.896 1.23193,-1.5679 v -6.608 c 0,-0.896 -0.67191,-1.5679 -1.56788,-1.5679 h -0.22406 l -3.69579,0.7838 v -16.6878 h -3.13603 v 17.36 l -9.96814,2.0157 v -15.7918 h -3.13576 v 16.464 l -4.36797,0.896 c -0.67218,0.1119 -1.2322,0.896 -1.2322,1.5679 v 6.7199 -0.2238 c 0,0.896 0.67218,1.5679 1.56816,1.5679 h 0.33595 l 3.69606,-0.7841 v 18.48 l -4.36797,0.896 c -0.67218,0.1121 -1.2322,0.896 -1.2322,1.5681 v 6.4959 c 0,0.896 0.67218,1.5679 1.56816,1.5679 h 0.33595 l 3.69606,-0.7838 v 16.6878 h 3.13576 v -17.36 l 9.96814,-2.016 v 15.7921 h 3.13603 v -16.464 l 4.2558,-0.7841 c 0.67219,-0.1119 1.23193,-0.896 1.23193,-1.5679 v -6.608 c 0,-0.896 -0.67191,-1.5679 -1.56788,-1.5679 h -0.22406 l -3.69579,0.7838 v -18.4797 l 4.2558,-0.7841 m -17.35997,22.0639 v -18.5919 l 9.96814,-2.016 v 18.48 l -9.96814,2.1279 M 217.8448,73.483001 c -0.89597,2.464127 -3.13604,10.527877 -8.62376,10.527877 -7.28022,0 -8.8481,-4.479861 -14.89612,-4.479861 -0.89597,0 -1.79194,0.111895 -2.91198,0.335955 0,0 2.80009,-4.256071 14.67206,-7.951855 11.87197,-3.696055 14.89584,-9.52001 14.89584,-16.239937 0,-4.704193 -2.1279,-14.000143 -19.04002,-14.000143 -16.91185,0 -20.04789,10.192193 -20.04789,15.343965 0,4.592028 3.80823,8.288083 8.39998,8.288083 4.59203,0 8.28808,-3.696055 8.28808,-8.288083 0,-3.135767 -2.24006,-6.607761 -5.15204,-7.727794 -0.33596,-0.112166 -0.78408,-0.672182 -0.78408,-1.232199 0,-0.671911 0.56002,-1.455989 2.57602,-2.015734 0.56002,-0.224061 2.12818,-0.560017 3.80795,-0.560017 1.56816,0 3.3601,0.335956 4.7042,1.231928 2.1279,1.343823 2.91197,3.359828 2.91197,8.399977 0,13.103899 -15.56802,15.903982 -22.06389,25.647782 0,0 -3.3601,4.703922 -3.3601,9.96786 0,5.26421 2.68792,5.600166 4.03201,5.600166 1.79195,0 3.69606,-1.455989 3.69606,-3.471995 0,-0.448121 -0.11217,-0.895972 -0.33596,-1.455988 -0.67218,-1.568155 -0.89624,-2.800083 -0.89624,-3.696055 0,-0.335956 0,-0.671912 0.11217,-1.007867 0.11189,-0.672183 1.00786,-1.792216 3.69605,-1.792216 3.24793,0 4.47986,3.808221 6.49587,6.720199 2.016,2.911977 5.15204,4.703922 8.73593,4.703922 3.58389,0 8.39998,-2.576022 10.41598,-6.719928 2.01601,-4.144176 4.59203,-12.544153 4.59203,-15.568026 0,-1.455989 -0.89597,-2.1279 -1.90411,-2.1279 -0.78408,0 -1.56789,0.447851 -2.01601,1.567884 m -37.97546,65.090339 h 19.24133 v 8.31057 h -9.21738 c -0.87349,0 -1.57927,0.70551 -1.57927,1.57899 v 2.13928 c 0,0.87349 0.70578,1.57926 1.57927,1.57926 h 33.87978 c 0.87348,0 1.57926,-0.70577 1.57926,-1.57926 v -2.13928 c 0,-0.87348 -0.70578,-1.57899 -1.57926,-1.57899 h -10.01284 v -8.31057 h 10.01284 c 0.87348,0 1.57926,-0.70551 1.57926,-1.57899 v -2.13928 c 0,-0.87376 -0.70578,-1.57926 -1.57926,-1.57926 h -10.01284 v -17.87502 c 0,-0.60472 -0.33595,-1.14252 -0.87348,-1.41128 l -1.35521,-0.67191 c -0.59361,-0.29126 -1.29911,-0.19047 -1.78083,0.25765 l -10.13584,9.31817 c -0.32485,0.30263 -0.51531,0.71688 -0.51531,1.16501 v 9.21738 h -12.89122 c 0,0 12.45447,-13.47345 25.71524,-31.13579 0.97455,-1.28801 0.41453,-2.464122 0.20158,-2.676804 l -2.43053,-2.475235 c -0.30236,-0.291252 -0.70551,-0.45923 -1.12004,-0.45923 -0.67191,0 -15.8479,0.02249 -16.65419,0 -0.80629,-0.02222 -1.41128,0.672182 -1.48958,1.366581 0,0 -0.60472,8.243108 -3.5167,17.348588 -2.91198,9.09438 -6.20489,14.67206 -9.18406,18.73739 0,0 -0.60472,1.10893 -0.20157,1.93771 0.39204,0.83989 1.09755,2.06071 1.09755,2.06071 0,0 0.29125,0.59361 1.2433,0.59361 m 420.49628,31.08105 c 1.70579,1.70579 4.47119,1.70579 6.17698,0 1.70606,-1.70579 1.70606,-4.47146 0,-6.17725 -1.70579,-1.70579 -4.47119,-1.70579 -6.17698,0 -1.70606,1.70579 -1.70606,4.47146 0,6.17725 m 65.66309,0 c 1.70579,1.70579 4.47146,1.70579 6.17725,0 1.70579,-1.70579 1.70579,-4.47146 0,-6.17725 -1.70579,-1.70579 -4.47146,-1.70579 -6.17725,0 -1.70579,1.70579 -1.70579,4.47146 0,6.17725 m 65.66038,0 c 1.70579,1.70579 4.47146,1.70579 6.17725,0 1.70579,-1.70579 1.70579,-4.47146 0,-6.17725 -1.70579,-1.70579 -4.47146,-1.70579 -6.17725,0 -1.70579,1.70579 -1.70579,4.47146 0,6.17725 m 105.05932,0 c 1.70579,1.70579 4.47146,1.70579 6.17725,0 1.70579,-1.70579 1.70579,-4.47146 0,-6.17725 -1.70579,-1.70579 -4.47146,-1.70579 -6.17725,0 -1.70579,1.70579 -1.70579,4.47146 0,6.17725 m 680.63549,-27.99974 c 1.7058,1.70579 4.4712,1.70579 6.177,0 1.706,-1.70579 1.706,-4.47146 0,-6.17725 -1.7058,-1.70579 -4.4712,-1.70579 -6.177,0 -1.7061,1.70579 -1.7061,4.47146 0,6.17725 m 106.9043,0 c 1.7058,1.70579 4.4715,1.70579 6.1773,0 1.7058,-1.70579 1.7058,-4.47146 0,-6.17725 -1.7058,-1.70579 -4.4715,-1.70579 -6.1773,0 -1.7057,1.70579 -1.7057,4.47146 0,6.17725 M 711.85145,589.65162 c 1.70579,1.70578 4.47146,1.70578 6.17725,0 1.70579,-1.70579 1.70579,-4.47147 0,-6.17726 -1.70579,-1.70578 -4.47146,-1.70578 -6.17725,0 -1.70579,1.70579 -1.70579,4.47147 0,6.17726 m 92.26049,0 c 1.70578,1.70578 4.47146,1.70578 6.17725,0 1.70578,-1.70579 1.70578,-4.47147 0,-6.17726 -1.70579,-1.70578 -4.47147,-1.70578 -6.17725,0 -1.70579,1.70579 -1.70579,4.47147 0,6.17726 M 1574.1658,561.6535 c 1.7058,1.70579 4.4715,1.70579 6.1773,0 1.7058,-1.70579 1.7058,-4.47146 0,-6.17725 -1.7058,-1.70579 -4.4715,-1.70579 -6.1773,0 -1.7058,1.70579 -1.7058,4.47146 0,6.17725 m 92.2632,0 c 1.7058,1.70579 4.4712,1.70579 6.177,0 1.7061,-1.70579 1.7061,-4.47146 0,-6.17725 -1.7058,-1.70579 -4.4712,-1.70579 -6.177,0 -1.706,1.70579 -1.706,4.47146 0,6.17725 M 912.08377,805.84184 c 1.90384,4.70392 3.91985,20.72007 4.14391,31.80796 0,0.33596 0.67191,0.33596 0.7838,0.33596 0.11217,0 0.78408,0 0.78408,-0.33596 0.22406,-10.976 2.24007,-26.99188 4.14391,-31.80796 0,-0.1119 0,-0.33596 -0.22379,-0.33596 -0.11217,0 -2.46413,0.44812 -4.7042,0.44812 -2.35196,0 -4.59175,-0.44812 -4.70392,-0.44812 -0.22379,0 -0.22379,0.1119 -0.22379,0.33596 m 127.46273,27.02547 c 1.9038,4.70392 3.9198,20.72007 4.1439,31.80796 0,0.33596 0.6719,0.33596 0.784,0.33596 0.1119,0 0.7841,0 0.7841,-0.33596 0.2238,-10.976 2.2398,-26.99187 4.1439,-31.80796 0,-0.1119 0,-0.33596 -0.224,-0.33596 -0.1119,0 -2.4639,0.44812 -4.704,0.44812 -2.3519,0 -4.592,-0.44812 -4.7039,-0.44812 -0.224,0 -0.224,0.1119 -0.224,0.33596 m 489.2951,64.77443 c 1.7058,1.70579 4.4715,1.70579 6.1772,0 1.7058,-1.70579 1.7058,-4.47146 0,-6.17725 -1.7057,-1.70579 -4.4714,-1.70579 -6.1772,0 -1.7058,1.70579 -1.7058,4.47146 0,6.17725 m 120.3155,-27.99541 c 1.7058,1.70579 4.4712,1.70579 6.177,0 1.706,-1.70606 1.706,-4.47146 0,-6.17725 -1.7058,-1.70606 -4.4712,-1.70606 -6.177,0 -1.7061,1.70579 -1.7061,4.47119 0,6.17725 m 120.3074,0 c 1.7058,1.70579 4.4714,1.70579 6.1772,0 1.7058,-1.70606 1.7058,-4.47146 0,-6.17725 -1.7058,-1.70606 -4.4714,-1.70606 -6.1772,0 -1.7058,1.70579 -1.7058,4.47119 0,6.17725 m 120.3046,-27.99541 c 1.7058,1.70579 4.4715,1.70579 6.1773,0 1.7058,-1.70578 1.7058,-4.47146 0,-6.17725 -1.7058,-1.70578 -4.4715,-1.70578 -6.1773,0 -1.7058,1.70579 -1.7058,4.47147 0,6.17725 M 234.5055,1401.6539 c 1.70579,1.7058 4.47146,1.7058 6.17725,0 1.70579,-1.7058 1.70579,-4.4715 0,-6.1772 -1.70579,-1.7058 -4.47146,-1.7058 -6.17725,0 -1.70579,1.7057 -1.70579,4.4714 0,6.1772 m 132.2273,0 c 1.70578,1.7058 4.47146,1.7058 6.17725,0 1.70579,-1.7058 1.70579,-4.4715 0,-6.1772 -1.70579,-1.7058 -4.47147,-1.7058 -6.17725,0 -1.70579,1.7057 -1.70579,4.4714 0,6.1772 m 504.23433,41.9945 c 1.70578,1.7058 4.47119,1.7058 6.17698,0 1.70605,-1.7058 1.70605,-4.4715 0,-6.1773 -1.70579,-1.7058 -4.4712,-1.7058 -6.17698,0 -1.70606,1.7058 -1.70606,4.4715 0,6.1773 m 125.66369,-13.9991 c 1.70579,1.7058 4.47148,1.7058 6.17728,0 1.7058,-1.7058 1.7058,-4.4715 0,-6.1772 -1.7058,-1.7058 -4.47149,-1.7058 -6.17728,0 -1.70578,1.7057 -1.70578,4.4714 0,6.1772 m 125.65558,0 c 1.7058,1.7058 4.4715,1.7058 6.1772,0 1.7058,-1.7058 1.7058,-4.4715 0,-6.1772 -1.7057,-1.7058 -4.4714,-1.7058 -6.1772,0 -1.7058,1.7057 -1.7058,4.4714 0,6.1772 m 125.6664,-56.0043 c 1.7058,1.7057 4.4715,1.7057 6.1773,0 1.7057,-1.7058 1.7057,-4.4715 0,-6.1773 -1.7058,-1.7058 -4.4715,-1.7058 -6.1773,0 -1.7058,1.7058 -1.7058,4.4715 0,6.1773 M 234.5055,1737.6449 c 1.70579,1.7057 4.47146,1.7057 6.17725,0 1.70579,-1.7061 1.70579,-4.4715 0,-6.1773 -1.70579,-1.7061 -4.47146,-1.7061 -6.17725,0 -1.70579,1.7058 -1.70579,4.4712 0,6.1773 m 140.60181,-27.9955 c 1.70578,1.7058 4.47146,1.7058 6.17725,0 1.70578,-1.7057 1.70578,-4.4714 0,-6.1772 -1.70579,-1.7058 -4.47147,-1.7058 -6.17725,0 -1.70579,1.7058 -1.70579,4.4715 0,6.1772 m 140.60289,0 c 1.70579,1.7058 4.47146,1.7058 6.17725,0 1.70579,-1.7057 1.70579,-4.4714 0,-6.1772 -1.70579,-1.7058 -4.47146,-1.7058 -6.17725,0 -1.70579,1.7058 -1.70579,4.4715 0,6.1772 m 140.60289,-28.0089 c 1.70579,1.7058 4.47146,1.7058 6.17725,0 1.70579,-1.7058 1.70579,-4.4715 0,-6.1773 -1.70579,-1.7057 -4.47146,-1.7057 -6.17725,0 -1.70579,1.7058 -1.70579,4.4715 0,6.1773 m 182.04195,56.0044 c 1.70578,1.7057 4.47146,1.7057 6.17725,0 1.70578,-1.7061 1.70578,-4.4715 0,-6.1773 -1.70579,-1.7061 -4.47147,-1.7061 -6.17725,0 -1.70579,1.7058 -1.70579,4.4712 0,6.1773 m 145.50676,0 c 1.70579,1.7057 4.47146,1.7057 6.17725,0 1.70579,-1.7061 1.70579,-4.4715 0,-6.1773 -1.70579,-1.7061 -4.47146,-1.7061 -6.17725,0 -1.70579,1.7058 -1.70579,4.4712 0,6.1773 M 655.80916,843.8834 c -10.52788,-11.42412 -19.82383,-12.09603 -25.64779,-12.09603 -5.82395,0 -15.00801,0.67191 -25.53588,12.09603 -5.488,6.04802 -9.29595,18.03189 -9.29595,24.0799 0,2.1279 0.44785,3.58389 1.56788,3.58389 3.13604,0 1.56816,-9.6319 10.976,-19.15191 8.28808,-8.28809 19.37598,-8.39998 22.06389,-8.39998 h 0.44812 c 2.68792,0 13.77582,0.11189 22.0639,8.39998 9.40784,9.52001 7.83996,19.15191 10.97573,19.15191 1.12003,0 1.56815,-1.34409 1.56815,-3.58389 0,-6.04801 -3.69606,-18.14405 -9.18405,-24.0799 m -33.37585,21.39171 c 0,4.25608 3.47199,7.72807 7.72806,7.72807 4.2558,0 7.7278,-3.47199 7.7278,-7.72807 0,-4.2558 -3.472,-7.72779 -7.7278,-7.72779 -4.25607,0 -7.72806,3.47199 -7.72806,7.72779" fill-rule="nonzero" style="stroke-width:0.270932"/>
	<path d="M 513.5021,41.537675 H 687.30257 V 55.536733 H 513.5021 V 41.537675 m 105.05661,20.9994 h 68.74223 V 76.537489 H 618.55871 V 62.537075 m 131.32618,-20.9994 h 108.139 v 13.999058 h -108.139 V 41.537675 M 1001.4453,5.5554615 h 208.3581 V 19.554791 H 1001.4453 V 5.5554615 m 0,20.9996715 h 208.3581 V 40.554191 H 1001.4453 V 26.555133 m 273.7091,34.999814 h 112.5722 V 75.554276 H 1275.1544 V 61.554947 m 260.4117,-46.7076 h 109.9984 V 28.846676 H 1535.5661 V 14.847347 m 213.8331,1.351409 H 1952.948 V 30.197814 H 1749.3992 V 16.198756 m 0,20.9994 H 1952.948 V 51.198569 H 1749.3992 V 37.198156 M 252.70021,458.87543 h 184.70683 v 14.00041 H 252.70021 v -14.00041 m 0,20.99723 h 184.70683 v 14.00042 H 252.70021 v -14.00042 m 242.1699,30.32272 99.94791,-13.72623 v 14.13127 l -99.94791,13.72623 v -14.13127 m 235.17442,-48.6594 h 95.34099 v 14.00041 h -95.34099 v -14.00041 m 184.52369,-25.34027 h 176.07198 v 13.99933 H 914.56822 v -13.99933 m 0,20.99994 h 176.07198 v 14.00041 H 914.56822 v -14.00041 m 292.82068,40.91616 88.9673,-25.0027 v 14.54228 l -88.9673,25.00269 v -14.54227 m 171.76,-22.78539 88.9673,-18.34779 v 14.29492 l -88.9673,18.34779 v -14.29492 m 213.21,-36.47016 h 95.3342 v 13.99933 h -95.3342 v -13.99933 m 184.5183,0 h 176.0719 v 13.99933 h -176.0719 v -13.99933 m 0,20.99994 h 176.0719 v 14.00042 H 1776.8772 V 459.8562 M 252.70021,880.54593 H 500.3581 v 14.00962 H 252.70021 v -14.00962 m 645.98326,45.87692 130.55543,29.97186 v 14.3705 L 898.68347,940.78225 v -14.3594 m 254.93623,37.84108 h 242.0889 v 13.99824 h -242.0889 v -13.99824 m 0,-20.99723 h 242.0889 v 13.99824 H 1153.6197 V 943.2667 m 360.1147,48.99264 h 363.9972 v 14.00936 H 1513.7344 V 992.25934 M 252.70021,1273.5329 h 135.30698 v 13.9982 H 252.70021 v -13.9982 m 264.45406,2.6632 h 251.00607 v 13.998 H 517.15427 v -13.998 m 0,20.9972 h 251.00607 v 13.998 H 517.15427 v -13.998 m 372.00323,-23.3787 h 380.0608 v 13.9983 H 889.1575 v -13.9983 m 510.7719,73.8751 135.3078,38.5062 v 14.5626 l -135.3078,-38.5062 v -14.5626 m 264.4541,36.5758 h 251.0071 v 13.998 h -251.0071 v -13.998 m 0,-20.9972 h 251.0071 v 13.9979 h -251.0071 v -13.9979 M 219.3883,1853.5415 h 424.88647 v 14.0093 H 219.3883 v -14.0093 m 603.84873,-18.6158 h 148.58834 v 13.998 H 823.23703 v -13.998 m 324.33277,-138.7389 h 275.8982 v 14.0097 h -275.8982 v -14.0097 m 0,21.0081 h 275.8982 v 13.9983 h -275.8982 v -13.9983 m 405.2114,3.3514 h 288.25 v 13.9983 h -288.25 v -13.9983" style="stroke-width:0.270932"/>
	<path d="m 318.57734,72.475134 c -0.1119,-0.335956 -1.12004,-4.256072 -1.12004,-4.480133 -0.11189,-0.44785 -0.7838,-0.783806 -1.34382,-0.783806 -0.78408,0 -1.45599,0.671911 -1.45599,1.455989 V 93.97901 c 0,0.560016 0.44785,1.007867 0.89597,1.231928 4.70393,1.455988 14.448,7.615902 21.72794,20.047882 2.01601,3.472 5.26394,8.17592 5.26394,17.58404 0,8.06402 -1.23193,16.57589 -3.24793,24.41585 -0.33596,1.23193 -0.67219,2.35196 0.56001,2.80008 1.23193,0.44785 1.67978,-0.44812 2.1279,-1.56815 4.03201,-9.85597 5.03988,-20.15978 5.03988,-27.10377 v -2.12817 c -0.56002,-14.44773 -8.84783,-25.08777 -8.84783,-25.08777 0.33596,0 -10.30408,-13.775809 -13.32796,-18.480002 -4.1439,-6.383972 -6.15991,-12.767944 -6.27207,-13.215794 M 715.59302,1006.998 c 0,-0.224 1.00814,-4.032 1.12003,-4.3679 0.11217,-0.4479 2.12817,-6.83185 6.27208,-13.21582 3.02387,-4.70419 13.66391,-18.48 13.32796,-18.48 0,0 8.28781,-10.64005 8.84783,-25.08777 v -2.57602 c 0,-6.83209 -0.89598,-16.464 -4.81582,-26.20807 -0.44812,-1.11976 -0.89597,-2.2398 -2.12817,-1.79195 -1.23193,0.44813 -0.89597,1.79195 -0.56002,3.02415 2.01601,7.83996 3.13604,15.90371 3.13604,23.96773 0,9.40812 -3.35983,14.11204 -5.37583,17.58403 -7.39211,12.43199 -17.02402,18.47973 -21.72794,20.04789 -0.56002,0.22406 -0.89597,0.67191 -0.89597,1.23193 v 25.3118 c 0,0.7841 0.67191,1.456 1.45599,1.456 0.56001,0 1.23192,-0.4478 1.34382,-0.896 M 592.07239,816.33503 c 1.77786,-0.19182 2.88435,-0.5191 3.31784,-0.98212 0.43349,-0.46276 0.65023,-1.67057 0.65023,-3.62372 v -19.56346 c 0,-1.60311 -0.24167,-2.65297 -0.72718,-3.13821 -0.48524,-0.49689 -1.56571,-0.80168 -3.24089,-0.91439 v -0.83556 h 24.05416 l 0.1547,6.47988 h -1.25631 c -0.3094,-2.07723 -0.88974,-3.38665 -1.74209,-3.93989 -0.85208,-0.55297 -2.53538,-0.8239 -5.04936,-0.8239 h -6.174 c -0.60147,0 -0.98755,0.1016 -1.15688,0.3048 -0.16933,0.20319 -0.25413,0.60959 -0.25413,1.21919 v 10.06946 h 6.52729 c 1.9247,0 3.15284,-0.28204 3.68115,-0.85777 0.52941,-0.57573 0.95612,-1.73857 1.27907,-3.48825 h 1.05881 v 10.45337 h -1.05881 c -0.33758,-1.74968 -0.77107,-2.90114 -1.30047,-3.46576 -0.5294,-0.56435 -1.74968,-0.85777 -3.65975,-0.85777 h -6.52729 v 9.87764 c 0,1.67083 0.25413,2.7318 0.76077,3.19483 0.50692,0.46275 1.6134,0.75617 3.31892,0.89163 v 0.8128 h -12.65578 v -0.8128 m 28.29669,-27.64617 c 0,-0.63236 0.21999,-1.18533 0.66134,-1.63697 0.44135,-0.45165 0.98457,-0.68871 1.63128,-0.68871 0.63209,0 1.17287,0.22595 1.62099,0.67733 0.44839,0.45164 0.673,0.99351 0.673,1.64835 0,0.63208 -0.22461,1.16257 -0.673,1.61421 -0.44812,0.45165 -0.9889,0.67733 -1.62099,0.67733 -0.64671,0 -1.18993,-0.22568 -1.63128,-0.67733 -0.44135,-0.45164 -0.66134,-0.98213 -0.66134,-1.61421 m -2.8223,27.83827 c 1.57249,-0.14685 2.56491,-0.4064 2.97673,-0.80169 0.411,-0.38364 0.61772,-1.44488 0.61772,-3.1607 v -10.52137 c 0,-0.94826 -0.0666,-1.61421 -0.19886,-1.98675 -0.22,-0.59821 -0.68302,-0.90301 -1.38853,-0.90301 -0.16256,0 -0.32051,0.0225 -0.47413,0.045 -0.1547,0.0339 -0.5993,0.14685 -1.33434,0.35005 v -0.67733 l 0.94826,-0.3048 c 2.57169,-0.84666 4.36553,-1.47875 5.37909,-1.89653 0.41209,-0.18071 0.67624,-0.27093 0.79491,-0.27093 0.0293,0.1016 0.0439,0.21458 0.0439,0.32729 v 15.83841 c 0,1.67057 0.20212,2.72043 0.60635,3.14959 0.40396,0.42888 1.31835,0.69982 2.74427,0.8128 v 0.6207 h -10.71536 v -0.6207 m 12.47533,0 c 1.04309,-0.12436 1.77461,-0.38392 2.19347,-0.77893 0.41859,-0.38391 0.62856,-1.26444 0.62856,-2.60773 v -11.18732 c 0,-0.93688 -0.0881,-1.60311 -0.26416,-1.97564 -0.27987,-0.56435 -0.85343,-0.84666 -1.72041,-0.84666 -0.13195,0 -0.2685,0.0114 -0.40749,0.0228 -0.1398,0.0225 -0.31265,0.045 -0.51802,0.0677 v -0.76782 c 0.60283,-0.18044 2.02847,-0.63208 4.27721,-1.36577 l 2.07263,-0.68871 c 0.10268,0 0.16499,0.0339 0.18748,0.11298 0.0214,0.0677 0.0328,0.18044 0.0328,0.3048 v 3.2398 c 1.35223,-1.26444 2.4113,-2.12221 3.1756,-2.59634 1.14577,-0.72257 2.33679,-1.08373 3.5717,-1.08373 0.99892,0 1.91007,0.29342 2.73424,0.85778 1.58712,1.11759 2.38068,3.11571 2.38068,5.98326 v 10.29542 c 0,1.06097 0.2135,1.81741 0.63886,2.29154 0.42672,0.47413 1.13927,0.7112 2.13928,0.72258 v 0.6207 h -9.41489 v -0.6207 c 1.0737,-0.14685 1.8231,-0.44027 2.24874,-0.89191 0.42671,-0.44027 0.64021,-1.4224 0.64021,-2.9239 v -9.41489 c 0,-1.26417 -0.23598,-2.30292 -0.70551,-3.13821 -0.47088,-0.82417 -1.33786,-1.24168 -2.6023,-1.24168 -0.86698,0 -1.74968,0.29342 -2.64592,0.88053 -0.50014,0.33867 -1.14577,0.89164 -1.94069,1.67057 v 12.35016 c 0,1.06097 0.23598,1.77217 0.70551,2.13359 0.47088,0.34978 1.21377,0.55298 2.22733,0.57574 v 0.6207 h -9.63489 v -0.6207 m 32.10193,-20.06035 c 2.07263,0 3.88787,0.71119 5.44682,2.14496 1.55786,1.43351 2.33679,3.4655 2.33679,6.09598 h -14.00042 c 0.14685,3.42051 0.91792,5.90388 2.3143,7.46173 1.39639,1.55786 3.05016,2.33679 4.96158,2.33679 1.54296,0 2.84343,-0.40639 3.90251,-1.21919 1.05772,-0.80142 2.03524,-1.95288 2.93284,-3.43163 l 0.77107,0.25956 c -0.60282,1.86265 -1.73071,3.58985 -3.38448,5.18157 -1.65377,1.59173 -3.67791,2.38204 -6.07457,2.38204 -2.76351,0 -4.89818,-1.04987 -6.40538,-3.1271 -1.50584,-2.08835 -2.25876,-4.49287 -2.25876,-7.21357 0,-2.95776 0.87376,-5.50886 2.62344,-7.65383 1.74859,-2.14497 4.02686,-3.21731 6.83426,-3.21731 m -1.27772,1.61421 c -1.67652,0 -2.95559,0.73395 -3.83721,2.22408 -0.46952,0.79004 -0.80819,1.79492 -1.01382,2.99136 h 9.30434 c -0.16147,-1.46737 -0.44134,-2.56248 -0.83772,-3.28505 -0.72014,-1.28693 -1.92578,-1.93039 -3.61559,-1.93039 M 1925.4373,1683.4639 c 0,0.7337 0.1805,1.2192 0.5305,1.4562 0.3612,0.2371 1.1062,0.3501 2.2466,0.3501 3.5221,0 6.4232,-0.7001 8.7037,-2.0886 3.4993,-2.1561 5.2493,-5.8137 5.2493,-11.0067 0,-4.6283 -1.4452,-8.1165 -4.3238,-10.4533 -2.4723,-1.9982 -5.7346,-2.9917 -9.8099,-2.9917 -1.016,0 -1.7047,0.1016 -2.0659,0.3276 -0.35,0.2143 -0.5305,0.6998 -0.5305,1.4563 v 22.9501 m -8.5571,2.664 c 1.6484,-0.1693 2.7207,-0.4741 3.2173,-0.8916 0.4969,-0.4178 0.7451,-1.479 0.7451,-3.1834 V 1661.97 c 0,-1.6483 -0.2371,-2.7093 -0.7223,-3.1834 -0.4855,-0.4631 -1.5692,-0.7565 -3.2401,-0.8806 v -0.8355 h 12.1695 c 4.0978,0 7.5747,0.6773 10.4084,2.032 5.1138,2.4273 7.6763,6.7622 7.6763,13.0047 0,2.2466 -0.4628,4.3915 -1.3885,6.4122 -0.9144,2.0319 -2.303,3.7478 -4.1542,5.1477 -1.1743,0.8805 -2.3935,1.5464 -3.6576,1.9981 -2.3029,0.858 -5.1477,1.2869 -8.5119,1.2869 h -12.542 v -0.8242 m 39.2288,1.3436 c -0.6998,0 -1.2983,-0.2371 -1.7835,-0.734 -0.4855,-0.4966 -0.7226,-1.0837 -0.7226,-1.7721 0,-0.6887 0.2371,-1.2758 0.7337,-1.7611 0.4969,-0.4855 1.0837,-0.7339 1.7724,-0.7339 0.6887,0 1.2756,0.2484 1.7611,0.7339 0.4855,0.4853 0.7337,1.0724 0.7337,1.7611 0,0.6884 -0.2371,1.2755 -0.7224,1.7721 -0.4741,0.4969 -1.0612,0.734 -1.7724,0.734 m 20.6361,-30.9315 c 1.6367,0 3.3075,0.2484 5.0347,0.7337 1.7158,0.4855 2.6755,0.7226 2.8901,0.7226 0.4175,0 0.8239,-0.113 1.2078,-0.3501 0.3839,-0.2371 0.6434,-0.6096 0.7903,-1.1062 h 0.9482 l 0.4175,10.1486 h -1.0271 c -0.6096,-2.0206 -1.3999,-3.6462 -2.3595,-4.8768 -1.8627,-2.3254 -4.346,-3.4883 -7.4845,-3.4883 -3.1607,0 -5.7346,1.2531 -7.7441,3.7481 -2.0095,2.5061 -3.0141,5.9378 -3.0141,10.3293 0,4.0187 1.0613,7.2361 3.1721,9.6406 2.0997,2.4045 4.7752,3.6012 8.0153,3.6012 2.3367,0 4.4814,-0.5532 6.4571,-1.6708 1.1289,-0.6321 2.3706,-1.5918 3.7253,-2.8673 l 0.8353,0.8353 c -0.9933,1.2644 -2.2352,2.3706 -3.7253,3.3303 -2.5286,1.6142 -5.2718,2.427 -8.2182,2.427 -4.8543,0 -8.7037,-1.5465 -11.5599,-4.6511 -2.6302,-2.8673 -3.951,-6.4458 -3.951,-10.7357 0,-4.4026 1.3999,-8.0827 4.177,-11.0743 2.9236,-3.1269 6.728,-4.6961 11.413,-4.6961 m 20.7602,30.9315 c -0.7001,0 -1.2983,-0.2371 -1.7839,-0.734 -0.4852,-0.4966 -0.7223,-1.0837 -0.7223,-1.7721 0,-0.6887 0.2482,-1.2758 0.7337,-1.7611 0.4966,-0.4855 1.0837,-0.7339 1.7725,-0.7339 0.6998,0 1.2869,0.2484 1.7721,0.7339 0.4855,0.4853 0.7226,1.0724 0.7226,1.7611 0,0.6884 -0.2371,1.2755 -0.7112,1.7721 -0.4855,0.4969 -1.0723,0.734 -1.7835,0.734" fill-rule="nonzero" style="stroke-width:0.270932"/>
</svg>
