<?xml version="1.0" encoding="utf-8"?>
<svg xmlns="http://www.w3.org/2000/svg" clip-rule="evenodd" fill-rule="evenodd" stroke-linejoin="bevel" viewBox="0 0 7605 8750">
	<title>A music score of Roaring River, a song sung on the Red River plantation. The song is eighteen measure in two four time, in the key of F-sharp.</title>
	<path d="M113.904 1807.73l7381.88 0M113.904 1911.08l7381.88 0M113.904 2014.43l7381.88 0M113.904 2117.77l7381.88 0M113.904 2221.12l7381.88 0M113.904 3357.93l7381.88 0M113.904 3461.27l7381.88 0M113.904 3564.64l7381.88 0M113.904 3667.98l7381.88 0M113.904 3771.31l7381.88 0M113.904 4908.14l7381.88 0M113.904 5011.48l7381.88 0M113.904 5114.81l7381.88 0M113.904 5218.18l7381.88 0M113.904 5321.52l7381.88 0M113.904 6458.31l7381.88 0M113.904 6561.68l7381.88 0M113.904 6665.02l7381.88 0M113.904 6768.35l7381.88 0M113.904 6871.73l7381.88 0M113.904 8008.52l7381.88 0M113.904 8111.85l7381.88 0M113.904 8215.23l7381.88 0M113.904 8318.56l7381.88 0M113.904 8421.89l7381.88 0" fill="none" stroke="#000" stroke-width="11.38"/>
	<path d="M2788.09 344.997c11.283-.542 18.987-2.659 23.112-6.346 4.125-3.692 6.184-11.721 6.184-24.092l0-147.296c0-12.912-2.442-21.32-7.321-25.229-3.259-2.604-10.584-4.396-21.975-5.371l0-8.462 107.258 0c22.246 0 40.258 2.333 54.038 6.996 26.691 9.441 40.037 26.425 40.037 50.946 0 18.12-6.671 32.387-20.017 42.804-10.2 7.812-20.995 12.804-32.391 14.975l67.058 94.891c1.846 2.605 3.8 4.313 5.858 5.125 2.063.813 4.613 1.33 7.65 1.546l0 7.975-68.195 0-69.175-104.166-8.788 0 0 65.266c0 11.721 1.954 19.613 5.858 23.684 3.909 4.066 11.721 6.32 23.438 6.754l0 8.462-112.629 0 0-8.462m83.333-106.446c21.808-.325 37.408-3.392 46.796-9.196 9.383-5.804 14.075-19.233 14.075-40.283 0-12.913-1.788-23.113-5.371-30.6-6.183-12.692-17.467-19.042-33.854-19.042-8.896 0-14.729 1.113-17.496 3.338-2.767 2.225-4.15 5.887-4.15 10.987l0 84.796m159.308 38.575c0-23.221 7.138-42.588 21.405-58.104 14.27-15.517 32.2-23.275 53.791-23.275 22.029 0 40.067 7.921 54.121 23.762 14.05 15.842 21.075 35.046 21.075 57.617 0 22.242-6.942 41.367-20.833 57.371-13.888 16.008-32.009 24.008-54.363 24.008-21.7 0-39.658-7.783-53.871-23.354-14.216-15.571-21.325-34.913-21.325-58.025m48.992 0c0 23.329 1.196 39.658 3.583 48.992 3.796 14.429 11.338 21.645 22.621 21.645 10.742 0 17.796-5.533 21.159-16.6 3.366-11.07 5.045-29.079 5.045-54.037 0-24.85-1.762-42.833-5.287-53.954-3.525-11.125-10.446-16.684-20.754-16.684-11.284 0-18.825 7.217-22.621 21.646-2.496 9.659-3.746 25.988-3.746 48.992m183.433 57.292c5.425 0 10.471-1.63 15.138-4.884 2.604-1.954 5.696-4.991 9.275-9.112l0-48.667c-8.896 2.171-16.708 5.588-23.438 10.254-11.391 7.921-17.087 18.013-17.087 30.271 0 7.271 1.654 12.779 4.962 16.521 3.309 3.746 7.025 5.617 11.15 5.617m-64.616-12.046c0-14.971 7.216-26.854 21.646-35.642 14.433-8.792 37.054-17.633 67.87-26.533l0-24.25c0-9.875-2.087-17.171-6.266-21.892-4.175-4.721-11.584-7.079-22.217-7.079-5.967 0-10.875 1.112-14.729 3.337-3.85 2.225-5.779 5.017-5.779 8.384 0 1.3.221 2.383.654 3.254.433.867 1.083 1.787 1.95 2.767l1.954 2.279c1.521 1.841 2.742 3.879 3.663 6.104.92 2.221 1.383 4.583 1.383 7.079 0 6.292-2.088 11.15-6.267 14.567-4.175 3.416-9.033 5.125-14.566 5.125-6.4 0-11.855-1.896-16.359-5.696-4.5-3.796-6.754-9.275-6.754-16.438 0-12.804 6.025-22.95 18.067-30.437 12.046-7.488 26.858-11.229 44.433-11.229 18.883 0 34.671 3.633 47.363 10.904 12.587 7.379 18.883 20.942 18.883 40.692l0 80.729c0 2.387.621 4.421 1.871 6.1 1.246 1.683 2.629 2.525 4.15 2.525 1.304 0 2.466-.246 3.5-.734 1.029-.487 2.629-1.816 4.8-3.987l5.046 7c-6.509 7.596-13.725 12.912-21.646 15.95-4.992 1.954-10.254 2.929-15.788 2.929-9.875 0-17.091-2.875-21.65-8.625-2.604-3.254-4.5-8.083-5.696-14.487-9.22 9.225-19.637 15.733-31.25 19.533-7.05 2.387-13.995 3.579-20.833 3.579-9.112 0-17.629-2.904-25.554-8.708-7.921-5.804-11.879-14.838-11.879-27.1m164.225 23.112c6.4-.758 10.85-2.279 13.346-4.558 2.495-2.275 3.854-6.671 4.07-13.183l.325-9.763 0-90.658c0-6.946-1.195-11.667-3.583-14.163-2.383-2.496-7.104-4.175-14.158-5.046l0-8.137 63.312 0 0 26.204c7.042-9.221 14.042-16.546 21-21.971 6.959-5.425 14.959-8.137 24.084-8.137 6.833 0 13 2.196 18.458 6.591 5.5 4.396 8.25 10.825 8.25 19.288 0 6.508-1.958 11.879-5.792 16.112-3.833 4.234-8.875 6.346-15.041 6.346-7.084 0-13.167-3.308-18.334-9.925-5.125-6.621-8.75-9.929-10.833-9.929-4.417 0-8.917 2.738-13.417 8.217-4.5 5.483-6.75 13.321-6.75 23.521l0 62.987c0 11.067 1.625 17.988 4.792 20.754 3.208 2.767 9.583 4.584 19.125 5.45l0 7.975-88.854 0 0-7.975m161.896-196.45c0-7.162 2.541-13.266 7.583-18.312 5.042-5.046 11.167-7.567 18.333-7.567 7.042 0 13.084 2.521 18.125 7.567 5.042 5.046 7.584 11.15 7.584 18.312 0 7.163-2.542 13.263-7.584 18.309-5.041 5.045-11.083 7.57-18.125 7.57-7.166 0-13.291-2.525-18.333-7.57-5.042-5.046-7.583-11.146-7.583-18.309m-14.625 196.45c5.833-.975 9.875-2.441 12.041-4.391 3.25-2.934 4.875-8.196 4.875-15.792l0-97.979c0-6.729-1.125-11.313-3.416-13.754-2.292-2.442-6.792-4.259-13.5-5.455l0-8.137 63.958 0 0 126.629c0 7.271 1.083 11.938 3.25 13.996 2.167 2.062 6.25 3.692 12.208 4.883l0 7.975-79.416 0 0-7.975m92.583 0c6.083-.758 10.542-2.412 13.417-4.962 2.875-2.55 4.333-7.625 4.333-15.221l0-97.979c0-6.729-1.167-11.396-3.5-14-2.333-2.604-7.083-4.338-14.25-5.209l0-8.137 63.125 0 0 23.929c5.333-8.033 12.083-14.679 20.292-19.942 8.166-5.262 17.25-7.891 27.25-7.891 14.333 0 25.416 3.687 33.291 11.066 7.875 7.38 11.792 20.346 11.792 38.9l0 80.567c0 7.488 1.292 12.317 3.833 14.488 2.542 2.166 6.792 3.633 12.75 4.391l0 7.975-78.25 0 0-7.975c5.959-1.191 10-2.821 12.209-4.883 2.166-2.058 3.25-6.725 3.25-13.996l0-80.729c0-7.596-.792-13.292-2.292-17.092-2.625-6.833-7.75-10.254-15.458-10.254-5.75 0-11.042 2.092-15.875 6.267-4.834 4.179-8.542 8.383-11.167 12.616l0 89.192c0 7.271 1.083 11.938 3.292 13.996 2.166 2.062 6.208 3.692 12.208 4.883l0 7.975-80.25 0 0-7.975m236.292-95.704c0 12.804 1.083 22.3 3.25 28.483 3.25 9.767 9.5 14.65 18.708 14.65 8.375 0 14.125-3.662 17.25-10.987 3.167-7.325 4.75-18.038 4.75-32.146 0-14.971-1.667-25.875-5-32.712-3.292-6.838-8.958-10.255-17-10.255-8.792 0-14.625 3.663-17.583 10.988-2.917 7.321-4.375 17.983-4.375 31.979m-19.375 139.975c0 6.838 3.666 12.208 11 16.113 7.291 3.908 17.916 5.862 31.791 5.862 12.375 0 22.584-.979 30.625-2.929 15.084-3.692 22.625-10.475 22.625-20.346 0-5.754-2.166-10.067-6.458-12.942-4.25-2.875-12.042-4.312-23.333-4.312l-54.709 0c-3.458 2.821-5.958 5.208-7.458 7.162-2.708 3.58-4.083 7.38-4.083 11.392m-29.292 2.279c0-4.775 1.958-9.683 5.917-14.729 4-5.046 10.833-8.329 20.625-9.846l0-2.279c-6.542-2.496-11.25-5.046-14.167-7.65-5.208-4.667-7.833-10.904-7.833-18.717 0-9.333 4.125-17.308 12.291-23.929 8.209-6.616 16.209-11.229 24-13.833l0-2.279c-11.25-4.554-20.375-11.067-27.333-19.529-6.958-8.463-10.417-18.717-10.417-30.763 0-15.192 6.084-27.725 18.25-37.596 12.125-9.875 28.584-14.812 49.292-14.812 7.833 0 15 .758 21.5 2.279 6.5 1.517 11.542 3.092 15.125 4.721l43.958 0 0 17.737-27.041 0c4.375 4.234 7.708 9.171 10.041 14.813 2.334 5.641 3.5 11.775 3.5 18.391 0 20.834-9.958 35.105-29.791 42.809-10.417 4.121-23.375 6.183-38.917 6.183-3.375 0-5.542-.054-6.583-.162-1.042-.109-2.584-.163-4.625-.163-3.292.542-6.709 2.279-10.292 5.208-3.667 3.038-5.5 6.671-5.5 10.905 0 3.362.917 5.966 2.75 7.812 1.833 1.846 4.417 2.983 7.667 3.417 1.625.216 5.083.408 10.416.571 5.292.162 9.417.245 12.375.245l21.625.325c12.25.217 22.584 2.005 30.917 5.371 15.958 6.509 23.917 18.175 23.917 34.992 0 21.704-11.917 36.621-35.792 44.758-12.583 4.234-28.417 6.35-47.542 6.35-15.625 0-29.041-1.521-40.333-4.558-18.667-5.1-28-13.779-28-26.042m247.708-47.037c11.292-.542 19-2.659 23.125-6.346 4.125-3.692 6.167-11.721 6.167-24.092l0-147.296c0-12.912-2.417-21.32-7.292-25.229-3.291-2.604-10.583-4.396-22-5.371l0-8.462 107.25 0c22.25 0 40.292 2.333 54.042 6.996 26.708 9.441 40.042 26.425 40.042 50.946 0 18.12-6.667 32.387-20 42.804-10.209 7.812-21 12.804-32.417 14.975l67.083 94.891c1.834 2.605 3.792 4.313 5.834 5.125 2.083.813 4.625 1.33 7.666 1.546l0 7.975-68.208 0-69.167-104.166-8.791 0 0 65.266c0 11.721 1.958 19.613 5.875 23.684 3.916 4.066 11.708 6.32 23.416 6.754l0 8.462-112.625 0 0-8.462m83.334-106.446c21.833-.325 37.416-3.392 46.791-9.196 9.375-5.804 14.084-19.233 14.084-40.283 0-12.913-1.792-23.113-5.375-30.6-6.167-12.692-17.459-19.042-33.834-19.042-8.916 0-14.75 1.113-17.5 3.338-2.791 2.225-4.166 5.887-4.166 10.987l0 84.796m172-89.517c0-7.162 2.541-13.266 7.583-18.312 5.042-5.046 11.167-7.567 18.292-7.567 7.083 0 13.125 2.521 18.166 7.567 5.042 5.046 7.584 11.15 7.584 18.312 0 7.163-2.542 13.263-7.584 18.309-5.041 5.045-11.083 7.57-18.166 7.57-7.125 0-13.25-2.525-18.292-7.57-5.042-5.046-7.583-11.146-7.583-18.309m-14.625 196.45c5.833-.975 9.875-2.441 12.041-4.391 3.25-2.934 4.875-8.196 4.875-15.792l0-97.979c0-6.729-1.125-11.313-3.416-13.754-2.292-2.442-6.792-4.259-13.5-5.455l0-8.137 63.958 0 0 126.629c0 7.271 1.083 11.938 3.25 13.996 2.167 2.062 6.25 3.692 12.208 4.883l0 7.975-79.416 0 0-7.975m175.916-145.508l0 8.137c-5.875.221-10.291.871-13.291 1.955-2.959 1.087-4.459 3.42-4.459 7 0 .866.417 2.466 1.209 4.8.833 2.333 1.458 4.041 1.875 5.129l25.083 63.962 2.583 0 22.459-56.966c1.083-2.713 2-5.48 2.708-8.3.708-2.821 1.042-5.046 1.042-6.671 0-4.667-1.584-7.625-4.709-8.871-3.166-1.25-7.708-1.929-13.666-2.038l0-8.137 50.458 0 0 8.137c-4.458.33-8.083 1.767-10.917 4.317-2.833 2.55-5.583 7.133-8.291 13.75l-53.709 132-8.5 0-40.041-98.796c-2.792-6.946-5.542-13.454-8.209-19.529-2.666-6.079-5.458-11.992-8.375-17.742-3.041-5.858-5.416-9.55-7.166-11.066-1.709-1.521-4.875-2.496-9.417-2.934l0-8.137 83.333 0m85.417 76.987c0-25.608 6.833-45.491 20.458-59.654 13.584-14.158 30-21.237 49.209-21.237 10.958 0 21.291 2.875 30.916 8.625 9.667 5.75 17.125 13.725 22.334 23.925 3.875 7.704 6.583 17.687 8.125 29.95.75 5.75 1.125 10.146 1.125 13.183l-84.959 0c.75 13.346 2.959 24.9 6.5 34.667 6.542 18.337 17.959 27.508 34.375 27.508 7.792 0 15.167-2.442 22.125-7.325 4.209-2.929 9.5-7.867 15.792-14.812l7.625 4.72c-10.292 16.93-22.208 28.7-35.792 35.321-8.791 4.229-18.875 6.346-30.291 6.346-16.375 0-31.709-6.454-46.042-19.367-14.333-12.912-21.5-33.529-21.5-61.85m91.167-17.579c-.209-19.637-1.75-33.366-4.542-41.179-2.833-7.812-8.5-11.717-16.958-11.717-8.667 0-14.625 4.505-17.792 13.509-3.208 9.004-5.042 22.137-5.458 39.387l44.75 0m55.291 86.1c6.417-.758 10.875-2.279 13.375-4.558 2.459-2.275 3.834-6.671 4.042-13.183l.333-9.763 0-90.658c0-6.946-1.208-11.667-3.583-14.163-2.375-2.496-7.083-4.175-14.167-5.046l0-8.137 63.334 0 0 26.204c7.041-9.221 14.041-16.546 21-21.971 6.916-5.425 14.958-8.137 24.083-8.137 6.833 0 13 2.196 18.458 6.591 5.5 4.396 8.209 10.825 8.209 19.288 0 6.508-1.917 11.879-5.75 16.112-3.875 4.234-8.875 6.346-15.084 6.346-7.041 0-13.125-3.308-18.291-9.925-5.167-6.621-8.75-9.929-10.834-9.929-4.458 0-8.916 2.738-13.416 8.217-4.5 5.483-6.75 13.321-6.75 23.521l0 62.987c0 11.067 1.583 17.988 4.791 20.754 3.209 2.767 9.584 4.584 19.125 5.45l0 7.975-88.875 0 0-7.975M2318.54 813.338l-24.109-57.37-23.804 57.37 47.913 0m-89.925 53.509l0-3.763c5.358-.612 9.375-2.646 12.054-6.104 2.679-3.458 7.271-12.854 13.783-28.179l43.438-102.233 4.066 0 51.879 118.104c3.463 7.866 6.225 12.729 8.292 14.596 2.071 1.866 5.546 3.137 10.429 3.816l0 3.763-53 0 0-3.763c6.104-.546 10.038-1.204 11.8-1.987 1.763-.779 2.646-2.696 2.646-5.746 0-1.017-.342-2.813-1.017-5.392-.679-2.575-1.629-5.287-2.85-8.137l-8.645-20.042-54.525 0c-5.425 13.633-8.663 21.958-9.717 24.975-1.05 3.017-1.575 5.408-1.575 7.171 0 3.529 1.425 5.971 4.271 7.325 1.762.812 5.087 1.425 9.971 1.833l0 3.763-41.3 0m229.429-71.309c14.987-.545 25.704-2.104 32.146-4.679 11.054-4.546 16.583-13.091 16.583-25.637 0-12.071-4.954-20.309-14.854-24.717-5.288-2.375-12.309-3.562-21.059-3.562-5.9 0-9.508.425-10.833 1.27-1.321.85-1.983 2.834-1.983 5.95l0 51.375m-39.063 67.546c8.004-.75 12.988-2.308 14.954-4.683 1.967-2.371 2.95-7.9 2.95-16.579l0-90.229c0-7.325-1.1-12.125-3.304-14.396-2.204-2.271-7.071-3.713-14.6-4.321l0-3.867 57.679 0c12.005 0 22.009 1.525 30.009 4.575 15.191 5.767 22.787 16.379 22.787 31.842 0 10.375-3.375 18.346-10.121 23.904-6.75 5.563-15.92 9.225-27.516 10.988l42.925 52.795c2.646 3.255 5.291 5.63 7.937 7.121 2.642 1.492 6.034 2.442 10.171 2.85l0 3.763-33.571 0-49.641-64.088-11.596.509 0 40.995c0 7.73 1.171 12.63 3.508 14.7 2.342 2.067 7.446 3.442 15.313 4.121l0 3.763-57.884 0 0-3.763m184.304-91.658c9.563 0 17.938 3.308 25.125 9.921 7.188 6.612 10.784 15.987 10.784 28.125l-64.596 0c.679 15.733 4.237 27.196 10.679 34.383 6.446 7.192 14.075 10.783 22.888 10.783 7.12 0 13.125-1.862 18.008-5.595 4.883-3.73 9.392-9.017 13.529-15.867l3.558 1.221c-2.779 8.612-7.983 16.579-15.612 23.904-7.629 7.325-16.971 10.987-28.025 10.987-12.75 0-22.6-4.816-29.554-14.445-6.95-9.63-10.425-20.717-10.425-33.263 0-13.633 4.033-25.4 12.104-35.3 8.071-9.9 18.583-14.854 31.537-14.854m-5.9 7.429c-7.733 0-13.633 3.425-17.7 10.275-2.17 3.658-3.733 8.271-4.679 13.833l42.925 0c-.746-6.783-2.033-11.833-3.862-15.158-3.325-5.967-8.888-8.95-16.684-8.95m54.705 85.142c7.191-.338 11.92-1.679 14.191-4.017 2.271-2.342 3.409-7.275 3.409-14.8l0-65.308-17.396 0 0-6.817 17.396 0c0-10.717 1.458-19.767 4.375-27.158 5.562-14.175 15.766-21.263 30.62-21.263 5.967 0 11.309 1.188 16.021 3.559 4.713 2.375 7.071 5.562 7.071 9.562 0 2.242-.817 4.242-2.442 6.004-1.629 1.763-3.595 2.646-5.9 2.646-1.966 0-3.662-.596-5.087-1.783-1.425-1.184-3.121-3.271-5.088-6.254l-1.729-2.646c-.95-1.425-2.066-2.629-3.358-3.613-1.288-.983-3.083-1.475-5.388-1.475-5.154 0-8.65 2.546-10.479 7.629-1.016 2.717-1.525 6.275-1.525 10.684l0 24.108 25.534 0 0 6.817-25.33 0 0 65.308c0 7.663 1.034 12.563 3.1 14.696 2.071 2.137 7.48 3.512 16.225 4.121l0 2.85-54.22 0 0-2.85m66.183-.509c6.242-.541 10.379-1.645 12.412-3.304 2.034-1.662 3.05-5.204 3.05-10.633l0-45.875c0-6.717-.625-11.513-1.879-14.396-1.258-2.883-3.546-4.321-6.866-4.321-.68 0-1.58.084-2.696.254-1.121.167-2.292.388-3.513.659l0-3.354c3.867-1.359 7.834-2.75 11.904-4.171 4.067-1.425 6.884-2.442 8.442-3.054 3.392-1.288 6.883-2.746 10.479-4.375.475 0 .763.17.863.508.104.342.154 1.054.154 2.137l0 16.684c4.342-6.038 8.529-10.75 12.562-14.138 4.038-3.391 8.225-5.087 12.563-5.087 3.458 0 6.275 1.033 8.446 3.1 2.166 2.071 3.254 4.662 3.254 7.783 0 2.779-.833 5.121-2.492 7.021-1.662 1.896-3.75 2.846-6.258 2.846-2.575 0-5.171-1.188-7.779-3.559-2.613-2.375-4.663-3.562-6.154-3.562-2.375 0-5.292 1.917-8.75 5.75-3.459 3.829-5.188 7.779-5.188 11.85l0 45.879c0 5.829 1.354 9.883 4.067 12.154 2.712 2.271 7.225 3.342 13.529 3.204l0 3.359-50.15 0 0-3.359m128.133-53c-7.8 2.58-14.241 5.43-19.325 8.546-9.766 6.038-14.65 12.888-14.65 20.55 0 6.171 2.034 10.713 6.104 13.629 2.646 1.9 5.596 2.85 8.85 2.85 4.475 0 8.763-1.254 12.867-3.762 4.104-2.513 6.154-5.7 6.154-9.563l0-32.25m-52.083 36.113c0-9.833 4.917-18.038 14.75-24.617 6.242-4.066 18.683-9.596 37.333-16.579l0-8.646c0-6.921-.679-11.733-2.033-14.446-2.304-4.545-7.088-6.816-14.342-6.816-3.462 0-6.75.883-9.871 2.646-3.116 1.829-4.679 4.337-4.679 7.525 0 .816.171 2.187.509 4.12.341 1.934.508 3.171.508 3.713 0 3.8-1.254 6.446-3.763 7.937-1.425.88-3.12 1.321-5.087 1.321-3.05 0-5.388-1-7.017-3-1.629-2-2.441-4.221-2.441-6.662 0-4.75 2.933-9.717 8.8-14.904 5.866-5.188 14.462-7.784 25.787-7.784 13.154 0 22.075 4.275 26.754 12.817 2.509 4.683 3.763 11.496 3.763 20.45l0 40.792c0 3.933.271 6.645.812 8.137.884 2.646 2.713 3.967 5.496 3.967 1.558 0 2.846-.238 3.863-.713 1.02-.475 2.783-1.625 5.291-3.458l0 5.292c-2.171 2.641-4.508 4.812-7.021 6.508-3.795 2.579-7.662 3.867-11.595 3.867-4.613 0-7.95-1.492-10.021-4.475-2.067-2.988-3.204-6.546-3.409-10.684-5.154 4.475-9.558 7.8-13.22 9.971-6.171 3.663-12.038 5.492-17.6 5.492-5.834 0-10.884-2.05-15.159-6.154-4.271-4.105-6.408-9.309-6.408-15.617m101.908-111.083c0-2.917 1.017-5.425 3.054-7.525 2.034-2.105 4.542-3.155 7.525-3.155 2.917 0 5.409 1.034 7.48 3.1 2.066 2.071 3.1 4.596 3.1 7.58 0 2.916-1.034 5.408-3.1 7.479-2.071 2.066-4.563 3.1-7.48 3.1-2.983 0-5.491-1.034-7.525-3.1-2.037-2.071-3.054-4.563-3.054-7.479m-13.021 128.479c7.259-.679 11.834-1.917 13.734-3.713 1.9-1.796 2.85-6.662 2.85-14.596l0-48.525c0-4.408-.309-7.458-.917-9.154-1.017-2.779-3.154-4.171-6.408-4.171-.746 0-1.475.067-2.188.205-.712.133-2.762.679-6.154 1.625l0-3.15 4.375-1.425c11.867-3.867 20.142-6.784 24.821-8.75 1.9-.813 3.117-1.221 3.662-1.221.134.475.205.983.205 1.525l0 73.041c0 7.73.929 12.58 2.795 14.546 1.867 1.967 6.088 3.221 12.663 3.763l0 2.85-49.438 0 0-2.85m57.575 0c4.813-.609 8.188-1.813 10.121-3.609 1.934-1.8 2.9-5.816 2.9-12.058l0-51.571c0-4.341-.408-7.396-1.221-9.158-1.291-2.575-3.933-3.863-7.937-3.863-.608 0-1.238.034-1.879.1-.646.067-1.442.171-2.392.305l0-3.559c2.779-.816 9.358-2.916 19.733-6.308l9.563-3.154c.475 0 .762.171.867.508.1.342.15.817.15 1.425l0 14.954c6.241-5.833 11.125-9.833 14.65-12.004 5.291-3.321 10.783-4.983 16.479-4.983 4.612 0 8.816 1.321 12.612 3.966 7.325 5.155 10.988 14.342 10.988 27.567l0 47.508c0 4.88.983 8.409 2.95 10.58 1.966 2.166 5.258 3.287 9.866 3.354l0 2.85-43.437 0 0-2.85c4.954-.679 8.412-2.05 10.379-4.121 1.967-2.067 2.95-6.558 2.95-13.475l0-43.438c0-5.833-1.087-10.666-3.258-14.495-2.167-3.834-6.171-5.75-12-5.75-4.004 0-8.071 1.358-12.209 4.07-2.304 1.559-5.291 4.138-8.954 7.73l0 56.966c0 4.884 1.088 8.159 3.259 9.817 2.17 1.662 5.595 2.562 10.275 2.696l0 2.85-44.455 0 0-2.85m157.775-44.35c0-13.496 4.288-24.909 12.867-34.234 8.579-9.325 19.617-13.987 33.113-13.987 13.429 0 24.55 4.408 33.366 13.225 8.817 8.817 13.225 20.55 13.225 35.2 0 13.492-4.275 25.225-12.821 35.196-8.541 9.966-19.595 14.954-33.162 14.954-13.021 0-24.038-4.783-33.058-14.346-9.021-9.562-13.53-21.562-13.53-36.008m43.13-42.117c-5.355 0-10 1.763-13.934 5.292-6.783 6.171-10.175 16.816-10.175 31.941 0 12.071 2.729 23.33 8.192 33.771 5.458 10.446 13.037 15.667 22.733 15.667 7.596 0 13.446-3.492 17.55-10.479 4.1-6.984 6.154-16.138 6.154-27.463 0-11.733-2.612-22.787-7.833-33.162-5.225-10.379-12.783-15.567-22.687-15.567m59.816 86.467c7.188-.338 11.917-1.679 14.192-4.017 2.271-2.342 3.404-7.275 3.404-14.8l0-65.308-17.392 0 0-6.817 17.392 0c0-10.717 1.458-19.767 4.375-27.158 5.563-14.175 15.767-21.263 30.621-21.263 5.967 0 11.308 1.188 16.021 3.559 4.712 2.375 7.071 5.562 7.071 9.562 0 2.242-.813 4.242-2.442 6.004-1.629 1.763-3.596 2.646-5.9 2.646-1.967 0-3.663-.596-5.088-1.783-1.425-1.184-3.116-3.271-5.083-6.254l-1.729-2.646c-.95-1.425-2.071-2.629-3.358-3.613-1.288-.983-3.088-1.475-5.392-1.475-5.154 0-8.646 2.546-10.479 7.629-1.017 2.717-1.525 6.275-1.525 10.684l0 24.108 25.533 0 0 6.817-25.329 0 0 65.308c0 7.663 1.033 12.563 3.104 14.696 2.067 2.137 7.475 3.512 16.225 4.121l0 2.85-54.221 0 0-2.85m170.35-90.942l0 7.325-20.754 0-.204 58.592c0 5.154.442 9.054 1.325 11.7 1.625 4.679 4.812 7.021 9.562 7.021 2.442 0 4.559-.58 6.359-1.73 1.796-1.154 3.846-2.987 6.154-5.495l2.642 2.237-2.238 3.054c-3.525 4.746-7.254 8.104-11.187 10.071-3.934 1.967-7.734 2.95-11.396 2.95-8 0-13.425-3.562-16.275-10.683-1.559-3.863-2.338-9.221-2.338-16.071l0-61.646-11.091 0c-.338-.204-.592-.408-.763-.612-.167-.2-.254-.475-.254-.813 0-.679.154-1.204.458-1.575.304-.375 1.271-1.237 2.9-2.596 4.679-3.866 8.054-7 10.121-9.408 2.071-2.408 6.933-8.767 14.6-19.075.879 0 1.404.067 1.575.204.171.138.254.646.254 1.525l0 25.025 20.55 0m6.709 90.942c5.562-.746 9.204-2.117 10.937-4.121 1.729-2 2.592-6.729 2.592-14.188l0-97.658c0-3.796-.492-6.596-1.475-8.392-.984-1.795-3.375-2.695-7.171-2.695-.746 0-1.475.05-2.188.154-.712.1-1.508.221-2.391.354l0-3.663c2.983-.879 6.662-1.95 11.037-3.204 4.375-1.254 7.425-2.154 9.092-2.696l9.792-3.05.208.713 0 62.458c4.25-4.883 8.042-8.479 11.375-10.783 5.958-4.067 12.417-6.104 19.333-6.104 11 0 18.459 4.612 22.459 13.837 2.208 4.879 3.291 11.288 3.291 19.225l0 41.504c0 7.188.792 11.867 2.459 14.038 1.666 2.171 5.083 3.592 10.25 4.271l0 2.85-44.042 0 0-2.85c5.875-.813 9.667-2.204 11.375-4.171 1.708-1.967 2.542-6.679 2.542-14.138l0-41.2c0-6.579-1.084-11.9-3.292-15.97-2.208-4.071-6.375-6.105-12.458-6.105-5.292 0-10.417 1.9-15.375 5.696-4.959 3.8-7.417 6.275-7.417 7.429l0 50.15c0 7.596.875 12.342 2.625 14.242 1.792 1.896 5.542 3.254 11.292 4.067l0 2.85-44.85 0 0-2.85m150.058-92.571c9.542 0 17.917 3.308 25.125 9.921 7.167 6.612 10.75 15.987 10.75 28.125l-64.583 0c.666 15.733 4.25 27.196 10.708 34.383 6.417 7.192 14.042 10.783 22.875 10.783 7.125 0 13.125-1.862 18-5.595 4.875-3.73 9.375-9.017 13.542-15.867l3.541 1.221c-2.791 8.612-8 16.579-15.625 23.904-7.625 7.325-16.958 10.987-28 10.987-12.75 0-22.625-4.816-29.541-14.445-6.959-9.63-10.459-20.717-10.459-33.263 0-13.633 4.042-25.4 12.125-35.3 8.084-9.9 18.584-14.854 31.542-14.854m-5.917 7.429c-7.708 0-13.625 3.425-17.708 10.275-2.167 3.658-3.708 8.271-4.667 13.833l42.917 0c-.75-6.783-2.042-11.833-3.875-15.158-3.292-5.967-8.875-8.95-16.667-8.95m144.125 16.683c15-.545 25.709-2.104 32.167-4.679 11.042-4.546 16.542-13.091 16.542-25.637 0-12.071-4.917-20.309-14.834-24.717-5.291-2.375-12.291-3.562-21.041-3.562-5.917 0-9.542.425-10.834 1.27-1.333.85-2 2.834-2 5.95l0 51.375m-39.041 67.546c8-.75 12.958-2.308 14.916-4.683 2-2.371 2.959-7.9 2.959-16.579l0-90.229c0-7.325-1.084-12.125-3.292-14.396-2.208-2.271-7.083-3.713-14.583-4.321l0-3.867 57.666 0c12 0 22 1.525 30 4.575 15.209 5.767 22.792 16.379 22.792 31.842 0 10.375-3.375 18.346-10.125 23.904-6.75 5.563-15.917 9.225-27.5 10.988l42.917 52.795c2.625 3.255 5.291 5.63 7.916 7.121 2.667 1.492 6.042 2.442 10.167 2.85l0 3.763-33.542 0-49.666-64.088-11.584.509 0 40.995c0 7.73 1.167 12.63 3.5 14.7 2.334 2.067 7.459 3.442 15.334 4.121l0 3.763-57.875 0 0-3.763m184.291-91.658c9.542 0 17.917 3.308 25.125 9.921 7.167 6.612 10.792 15.987 10.792 28.125l-64.625 0c.708 15.733 4.25 27.196 10.708 34.383 6.417 7.192 14.042 10.783 22.875 10.783 7.125 0 13.125-1.862 18-5.595 4.875-3.73 9.417-9.017 13.542-15.867l3.542 1.221c-2.75 8.612-7.959 16.579-15.584 23.904-7.666 7.325-17 10.987-28.041 10.987-12.75 0-22.584-4.816-29.542-14.445-6.958-9.63-10.458-20.717-10.458-33.263 0-13.633 4.041-25.4 12.125-35.3 8.083-9.9 18.583-14.854 31.541-14.854m-5.916 7.429c-7.709 0-13.625 3.425-17.709 10.275-2.166 3.658-3.708 8.271-4.666 13.833l42.916 0c-.75-6.783-2-11.833-3.833-15.158-3.333-5.967-8.917-8.95-16.708-8.95m100-8.137c4.916 0 9.458 1.083 13.625 3.254 2.708 1.425 5.333 3.391 7.833 5.9l0-32.35c0-4.138-.458-6.984-1.375-8.546-.917-1.558-3.125-2.338-6.583-2.338-.792 0-1.5.034-2.125.1-.625.071-1.959.205-4.084.409l0-3.359 8.375-2.133c3.042-.817 6.084-1.662 9.125-2.546 3.084-.879 5.75-1.729 8.042-2.541 1.083-.342 2.875-.984 5.417-1.934l.583.204-.208 10.68c-.042 3.866-.125 7.85-.209 11.954-.041 4.104-.083 8.154-.083 12.154l-.208 83.112c0 4.409.541 7.492 1.625 9.255 1.083 1.766 3.958 2.645 8.666 2.645.75 0 1.5-.016 2.209-.05.75-.033 1.5-.12 2.25-.254l0 3.359c-.417.133-5.334 1.829-14.75 5.083l-15.959 6.004-.708-.917 0-12.512c-3.792 4.137-7.083 7.087-9.875 8.85-4.958 3.054-10.667 4.579-17.208 4.579-11.5 0-20.875-4.458-28-13.379-7.167-8.917-10.75-19.242-10.75-30.975 0-14.717 4.291-27.346 12.875-37.892 8.583-10.546 19.083-15.816 31.5-15.816m3.75 87.075c5.291 0 9.541-1.559 12.833-4.68 3.25-3.12 4.875-6.07 4.875-8.85l0-43.641c0-8.817-2.375-15.038-7.083-18.667-4.709-3.625-9.292-5.442-13.792-5.442-8.542 0-15.167 3.784-19.917 11.342-4.75 7.563-7.125 16.871-7.125 27.925 0 10.917 2.5 20.65 7.584 29.196 5.041 8.546 12.583 12.817 22.625 12.817m144.541-62.255c15-.545 25.709-2.104 32.167-4.679 11.042-4.546 16.583-13.091 16.583-25.637 0-12.071-4.958-20.309-14.875-24.717-5.291-2.375-12.291-3.562-21.041-3.562-5.917 0-9.5.425-10.834 1.27-1.333.85-2 2.834-2 5.95l0 51.375m-39.041 67.546c8-.75 12.958-2.308 14.958-4.683 1.958-2.371 2.917-7.9 2.917-16.579l0-90.229c0-7.325-1.084-12.125-3.292-14.396-2.208-2.271-7.083-3.713-14.583-4.321l0-3.867 57.666 0c12 0 22 1.525 30 4.575 15.209 5.767 22.792 16.379 22.792 31.842 0 10.375-3.375 18.346-10.125 23.904-6.75 5.563-15.917 9.225-27.5 10.988l42.917 52.795c2.625 3.255 5.291 5.63 7.916 7.121 2.667 1.492 6.042 2.442 10.209 2.85l0 3.763-33.584 0-49.625-64.088-11.625.509 0 40.995c0 7.73 1.167 12.63 3.5 14.7 2.375 2.067 7.459 3.442 15.334 4.121l0 3.763-57.875 0 0-3.763m153.666-127.566c0-2.917 1-5.425 3.042-7.525 2.042-2.105 4.542-3.155 7.542-3.155 2.916 0 5.416 1.034 7.458 3.1 2.083 2.071 3.125 4.596 3.125 7.58 0 2.916-1.042 5.408-3.125 7.479-2.042 2.066-4.542 3.1-7.458 3.1-3 0-5.5-1.034-7.542-3.1-2.042-2.071-3.042-4.563-3.042-7.479m-13 128.479c7.25-.679 11.834-1.917 13.709-3.713 1.916-1.796 2.875-6.662 2.875-14.596l0-48.525c0-4.408-.334-7.458-.917-9.154-1.042-2.779-3.167-4.171-6.417-4.171-.75 0-1.5.067-2.208.205-.708.133-2.75.679-6.125 1.625l0-3.15 4.375-1.425c11.833-3.867 20.125-6.784 24.792-8.75 1.916-.813 3.125-1.221 3.666-1.221.125.475.209.983.209 1.525l0 73.041c0 7.73.916 12.58 2.791 14.546 1.875 1.967 6.084 3.221 12.667 3.763l0 2.85-49.417 0 0-2.85m98.542-91.654l0 3.154c-3.5.408-6 .95-7.458 1.629-1.459.675-2.209 2.167-2.209 4.475 0 1.083.167 2.117.459 3.1.333.987.833 2.425 1.583 4.325l21.167 52.592 18.291-46.588c.917-2.242 1.709-4.579 2.5-7.021.792-2.441 1.167-4.308 1.167-5.596 0-2.645-1.25-4.541-3.75-5.695-1.5-.609-3.542-1.017-6.125-1.221l0-3.154 28.917 0 0 3.154c-3.334.271-5.709 1.375-7.167 3.304-1.458 1.933-3.583 6.392-6.375 13.379l-29.375 73.242c-.583 1.287-1 2.171-1.333 2.646-.334.475-.834.712-1.417.712-.708 0-1.292-.392-1.75-1.171-.458-.779-1-1.746-1.542-2.9l-31.125-74.462c-2.5-6.038-5.166-10.138-8-12.309-1.708-1.22-4.208-2.033-7.458-2.441l0-3.154 41 0m107.125-.917c9.542 0 17.917 3.308 25.125 9.921 7.208 6.612 10.792 15.987 10.792 28.125l-64.584 0c.667 15.733 4.209 27.196 10.667 34.383 6.417 7.192 14.083 10.783 22.875 10.783 7.125 0 13.125-1.862 18-5.595 4.875-3.73 9.417-9.017 13.542-15.867l3.541 1.221c-2.75 8.612-7.958 16.579-15.583 23.904-7.625 7.325-17 10.987-28.042 10.987-12.75 0-22.583-4.816-29.541-14.445-6.959-9.63-10.417-20.717-10.417-33.263 0-13.633 4-25.4 12.083-35.3 8.084-9.9 18.584-14.854 31.542-14.854m-5.917 7.429c-7.708 0-13.625 3.425-17.666 10.275-2.209 3.658-3.75 8.271-4.709 13.833l42.959 0c-.75-6.783-2.042-11.833-3.875-15.158-3.334-5.967-8.875-8.95-16.709-8.95m51.584 84.633c6.208-.541 10.375-1.645 12.416-3.304 2-1.662 3.042-5.204 3.042-10.633l0-45.875c0-6.717-.625-11.513-1.875-14.396-1.25-2.883-3.542-4.321-6.875-4.321-.667 0-1.583.084-2.708.254-1.125.167-2.292.388-3.5.659l0-3.354c3.875-1.359 7.833-2.75 11.916-4.171 4.042-1.425 6.875-2.442 8.417-3.054 3.417-1.288 6.875-2.746 10.5-4.375.458 0 .75.17.833.508.125.342.167 1.054.167 2.137l0 16.684c4.333-6.038 8.542-10.75 12.583-14.138 4-3.391 8.209-5.087 12.542-5.087 3.458 0 6.292 1.033 8.458 3.1 2.167 2.071 3.25 4.662 3.25 7.783 0 2.779-.833 5.121-2.5 7.021-1.666 1.896-3.75 2.846-6.25 2.846-2.583 0-5.166-1.188-7.791-3.559-2.625-2.375-4.667-3.562-6.167-3.562-2.375 0-5.292 1.917-8.75 5.75-3.458 3.829-5.167 7.779-5.167 11.85l0 45.879c0 5.829 1.334 9.883 4.084 12.154 2.708 2.271 7.208 3.342 13.5 3.204l0 3.359-50.125 0 0-3.359m210.625-96.637c0-12.75-5.5-21.5-16.5-26.246-5.875-2.575-13.334-3.867-22.375-3.867-4.25 0-6.875.425-7.875 1.271-1 .85-1.459 2.734-1.459 5.646l0 54.325c3.709.338 6.167.542 7.292.608 1.167.067 2.292.1 3.375.1 9.542 0 17.083-1.354 22.583-4.066 9.959-4.95 14.959-14.209 14.959-27.771m-86.792 96.233c7.958-.75 12.917-2.325 14.875-4.733 1.958-2.408 2.958-7.917 2.958-16.529l0-90.229c0-7.259-1.125-12.038-3.333-14.346-2.208-2.304-7.042-3.763-14.5-4.371l0-3.867 54.958 0c17.625 0 31.125 3.425 40.459 10.275 9.375 6.846 14.041 15.867 14.041 27.059 0 14.17-5.166 24.445-15.541 30.82-10.375 6.375-23.375 9.563-38.959 9.563-2.25 0-5.125-.05-8.625-.15-3.458-.104-6.083-.154-7.75-.154l0 37.841c0 7.867 1.209 12.817 3.584 14.85 2.416 2.038 7.791 3.359 16.125 3.971l0 3.763-58.292 0 0-3.763m116.75.913c6.292-.609 10.583-1.879 12.833-3.813 2.209-1.933 3.334-5.716 3.334-11.341l0-99.388c0-4.475-.375-7.562-1.125-9.258-1.334-2.846-4.084-4.271-8.209-4.271-.958 0-2 .1-3.125.304-1.125.204-2.541.508-4.208.917l0-3.359c9.167-2.441 20.167-5.695 33.042-9.762.5 0 .791.2.875.608.083.409.166 1.288.166 2.646l0 121.967c0 5.9 1 9.716 3.042 11.446 2.042 1.729 6.25 2.829 12.625 3.304l0 2.85-49.25 0 0-2.85m113.333-53.509c-7.833 2.58-14.25 5.43-19.333 8.546-9.792 6.038-14.667 12.888-14.667 20.55 0 6.171 2.042 10.713 6.125 13.629 2.625 1.9 5.584 2.85 8.834 2.85 4.5 0 8.75-1.254 12.875-3.762 4.083-2.513 6.166-5.7 6.166-9.563l0-32.25m-52.083 36.113c0-9.833 4.917-18.038 14.75-24.617 6.208-4.066 18.667-9.596 37.333-16.579l0-8.646c0-6.921-.708-11.733-2.041-14.446-2.334-4.545-7.084-6.816-14.334-6.816-3.458 0-6.75.883-9.875 2.646-3.125 1.829-4.708 4.337-4.708 7.525 0 .816.208 2.187.542 4.12.333 1.934.5 3.171.5 3.713 0 3.8-1.25 6.446-3.75 7.937-1.459.88-3.125 1.321-5.125 1.321-3.042 0-5.375-1-7-3-1.625-2-2.459-4.221-2.459-6.662 0-4.75 2.959-9.717 8.834-14.904 5.833-5.188 14.458-7.784 25.75-7.784 13.166 0 22.083 4.275 26.791 12.817 2.5 4.683 3.75 11.496 3.75 20.45l0 40.792c0 3.933.25 6.645.792 8.137.917 2.646 2.75 3.967 5.5 3.967 1.583 0 2.875-.238 3.875-.713 1-.475 2.792-1.625 5.292-3.458l0 5.292c-2.167 2.641-4.5 4.812-7 6.508-3.834 2.579-7.667 3.867-11.625 3.867-4.584 0-7.959-1.492-10-4.475-2.084-2.988-3.209-6.546-3.417-10.684-5.167 4.475-9.583 7.8-13.208 9.971-6.209 3.663-12.042 5.492-17.625 5.492-5.834 0-10.875-2.05-15.167-6.154-4.25-4.105-6.375-9.309-6.375-15.617m88.583 17.396c4.792-.609 8.167-1.813 10.125-3.609 1.917-1.8 2.875-5.816 2.875-12.058l0-51.571c0-4.341-.416-7.396-1.208-9.158-1.292-2.575-3.958-3.863-7.958-3.863-.584 0-1.209.034-1.875.1-.625.067-1.417.171-2.375.305l0-3.559c2.791-.816 9.333-2.916 19.708-6.308l9.583-3.154c.459 0 .75.171.875.508.084.342.125.817.125 1.425l0 14.954c6.25-5.833 11.125-9.833 14.667-12.004 5.292-3.321 10.792-4.983 16.458-4.983 4.625 0 8.834 1.321 12.625 3.966 7.334 5.155 11 14.342 11 27.567l0 47.508c0 4.88.959 8.409 2.959 10.58 1.958 2.166 5.25 3.287 9.833 3.354l0 2.85-43.417 0 0-2.85c4.959-.679 8.417-2.05 10.375-4.121 1.959-2.067 2.959-6.558 2.959-13.475l0-43.438c0-5.833-1.084-10.666-3.25-14.495-2.167-3.834-6.167-5.75-12-5.75-4 0-8.084 1.358-12.209 4.07-2.333 1.559-5.291 4.138-8.958 7.73l0 56.966c0 4.884 1.083 8.159 3.25 9.817 2.167 1.662 5.583 2.562 10.292 2.696l0 2.85-44.459 0 0-2.85m153.375-90.942l0 7.325-20.75 0-.208 58.592c0 5.154.458 9.054 1.333 11.7 1.625 4.679 4.834 7.021 9.584 7.021 2.416 0 4.541-.58 6.333-1.73 1.792-1.154 3.875-2.987 6.167-5.495l2.625 2.237-2.209 3.054c-3.541 4.746-7.291 8.104-11.208 10.071-3.917 1.967-7.708 2.95-11.375 2.95-8 0-13.458-3.562-16.292-10.683-1.541-3.863-2.333-9.221-2.333-16.071l0-61.646-11.083 0c-.334-.204-.625-.408-.792-.612-.167-.2-.25-.475-.25-.813 0-.679.167-1.204.458-1.575.334-.375 1.292-1.237 2.917-2.596 4.667-3.866 8.042-7 10.125-9.408 2.042-2.408 6.917-8.767 14.583-19.075.875 0 1.417.067 1.584.204.166.138.25.646.25 1.525l0 25.025 20.541 0m64.584 37.433c-7.792 2.58-14.209 5.43-19.292 8.546-9.792 6.038-14.667 12.888-14.667 20.55 0 6.171 2.042 10.713 6.125 13.629 2.625 1.9 5.584 2.85 8.834 2.85 4.458 0 8.75-1.254 12.875-3.762 4.083-2.513 6.125-5.7 6.125-9.563l0-32.25m-52.084 36.113c0-9.833 4.917-18.038 14.75-24.617 6.25-4.066 18.709-9.596 37.334-16.579l0-8.646c0-6.921-.667-11.733-2-14.446-2.334-4.545-7.084-6.816-14.375-6.816-3.459 0-6.75.883-9.834 2.646-3.125 1.829-4.708 4.337-4.708 7.525 0 .816.167 2.187.5 4.12.375 1.934.542 3.171.542 3.713 0 3.8-1.25 6.446-3.792 7.937-1.417.88-3.125 1.321-5.083 1.321-3.042 0-5.375-1-7-3-1.625-2-2.459-4.221-2.459-6.662 0-4.75 2.959-9.717 8.792-14.904 5.875-5.188 14.458-7.784 25.792-7.784 13.166 0 22.083 4.275 26.75 12.817 2.541 4.683 3.791 11.496 3.791 20.45l0 40.792c0 3.933.25 6.645.792 8.137.875 2.646 2.708 3.967 5.5 3.967 1.583 0 2.833-.238 3.875-.713 1-.475 2.792-1.625 5.292-3.458l0 5.292c-2.167 2.641-4.5 4.812-7.042 6.508-3.792 2.579-7.667 3.867-11.583 3.867-4.625 0-7.959-1.492-10-4.475-2.084-2.988-3.209-6.546-3.417-10.684-5.167 4.475-9.583 7.8-13.25 9.971-6.167 3.663-12.042 5.492-17.583 5.492-5.834 0-10.875-2.05-15.167-6.154-4.25-4.105-6.417-9.309-6.417-15.617m137.834-73.546l0 7.325-20.75 0-.209 58.592c0 5.154.459 9.054 1.334 11.7 1.625 4.679 4.791 7.021 9.541 7.021 2.459 0 4.584-.58 6.375-1.73 1.792-1.154 3.834-2.987 6.167-5.495l2.625 2.237-2.25 3.054c-3.5 4.746-7.25 8.104-11.167 10.071-3.958 1.967-7.75 2.95-11.416 2.95-8 0-13.417-3.562-16.25-10.683-1.584-3.863-2.334-9.221-2.334-16.071l0-61.646-11.083 0c-.375-.204-.625-.408-.792-.612-.166-.2-.25-.475-.25-.813 0-.679.167-1.204.459-1.575.291-.375 1.291-1.237 2.916-2.596 4.667-3.866 8.042-7 10.125-9.408 2.042-2.408 6.917-8.767 14.584-19.075.875 0 1.416.067 1.583.204.167.138.25.646.25 1.525l0 25.025 20.542 0m21.958-37.537c0-2.917 1.042-5.425 3.083-7.525 2-2.105 4.542-3.155 7.5-3.155 2.917 0 5.417 1.034 7.5 3.1 2.042 2.071 3.084 4.596 3.084 7.58 0 2.916-1.042 5.408-3.084 7.479-2.083 2.066-4.583 3.1-7.5 3.1-2.958 0-5.5-1.034-7.5-3.1-2.041-2.071-3.083-4.563-3.083-7.479m-13 128.479c7.25-.679 11.833-1.917 13.708-3.713 1.917-1.796 2.875-6.662 2.875-14.596l0-48.525c0-4.408-.333-7.458-.916-9.154-1.042-2.779-3.167-4.171-6.417-4.171-.75 0-1.458.067-2.208.205-.709.133-2.75.679-6.125 1.625l0-3.15 4.375-1.425c11.875-3.867 20.125-6.784 24.791-8.75 1.917-.813 3.125-1.221 3.667-1.221.167.475.208.983.208 1.525l0 73.041c0 7.73.959 12.58 2.792 14.546 1.875 1.967 6.083 3.221 12.667 3.763l0 2.85-49.417 0 0-2.85m59.083-44.35c0-13.496 4.292-24.909 12.875-34.234 8.584-9.325 19.625-13.987 33.125-13.987 13.417 0 24.542 4.408 33.334 13.225 8.833 8.817 13.25 20.55 13.25 35.2 0 13.492-4.292 25.225-12.834 35.196-8.541 9.966-19.583 14.954-33.166 14.954-13 0-24.042-4.783-33.042-14.346-9.042-9.562-13.542-21.562-13.542-36.008m43.125-42.117c-5.333 0-10 1.763-13.916 5.292-6.792 6.171-10.167 16.816-10.167 31.941 0 12.071 2.708 23.33 8.167 33.771 5.458 10.446 13.041 15.667 22.75 15.667 7.583 0 13.458-3.492 17.541-10.479 4.125-6.984 6.167-16.138 6.167-27.463 0-11.733-2.625-22.787-7.833-33.162-5.25-10.379-12.792-15.567-22.709-15.567m59.542 86.467c4.792-.609 8.167-1.813 10.083-3.609 1.959-1.8 2.917-5.816 2.917-12.058l0-51.571c0-4.341-.417-7.396-1.208-9.158-1.292-2.575-3.959-3.863-7.959-3.863-.583 0-1.208.034-1.875.1-.625.067-1.416.171-2.375.305l0-3.559c2.792-.816 9.334-2.916 19.709-6.308l9.583-3.154c.458 0 .75.171.875.508.083.342.125.817.125 1.425l0 14.954c6.25-5.833 11.125-9.833 14.667-12.004 5.291-3.321 10.791-4.983 16.458-4.983 4.625 0 8.833 1.321 12.625 3.966 7.333 5.155 11 14.342 11 27.567l0 47.508c0 4.88.958 8.409 2.958 10.58 1.959 2.166 5.25 3.287 9.834 3.354l0 2.85-43.417 0 0-2.85c4.958-.679 8.417-2.05 10.375-4.121 1.958-2.067 2.958-6.558 2.958-13.475l0-43.438c0-5.833-1.083-10.666-3.25-14.495-2.166-3.834-6.166-5.75-12-5.75-4 0-8.083 1.358-12.208 4.07-2.333 1.559-5.292 4.138-8.958 7.73l0 56.966c0 4.884 1.083 8.159 3.25 9.817 2.166 1.662 5.583 2.562 10.25 2.696l0 2.85-44.417 0 0-2.85" fill-rule="nonzero"/>
	<path d="M3754.41 2210.78c189.416 153.817 568.25 153.817 757.708 0-189.458 182.754-568.292 182.754-757.708 0M6515.08 2159.11c174.417 164.45 544.375 190.288 739.917 51.671-197.542 167.484-567.5 141.646-739.917-51.671M1214.28 3760.98c111.733 106.417 335.192 106.417 446.921 0-111.729 135.375-335.188 135.375-446.921 0M3433.75 3760.98c159.625 138.458 478.875 138.458 638.5 0-159.625 167.375-478.875 167.375-638.5 0M4514.54 3864.31c104.083 50.375 262.583-1.333 317-103.333-45.459 129.542-203.959 181.208-317 103.333M5148.54 3760.98c91.583 62.875 250.083 37 316.958-51.667-62.25 117.25-220.708 143.084-316.958 51.667M6616.5 3709.31c148.458 151.209 467.708 177.042 638.5 51.667-173.125 154.208-492.375 128.375-638.5-51.667M4439.04 4866.81c232.041-183.333 673.083-157.5 882.125 51.667-210.709-180.25-651.792-206.083-882.125-51.667M1966.9 6809.68c219.138 183.584 676.679 209.417 915.088 51.709-240.038 186.583-697.579 160.75-915.088-51.709M6324.25 6416.98c240.042-186.583 697.583-160.75 915.083 51.667-219.125-183.542-676.666-209.375-915.083-51.667M4293.75 8359.89c242.542 192.166 746.042 218 1007 51.666-262.458 195.209-765.958 169.375-1007-51.666" stroke="#000" stroke-linecap="round" stroke-linejoin="round" stroke-width="7.25"/>
	<path d="M1742.62 1802.05l0 424.754M3543.58 1802.05l0 424.754M5515.04 1802.05l0 424.754M7486.5 1802.05l0 424.754M2541.87 3352.27l0 424.75M4303.75 3352.27l0 424.75M5724.62 3352.27l0 424.75M7486.5 3352.27l0 424.75" fill="none" stroke="#000" stroke-width="18.58"/>
	<path d="M2320.74 5063.14c0-11.989-9.508-21.91-21.496-21.91-11.988 0-21.496 9.921-21.496 21.91 0 11.988 9.508 21.909 21.496 21.909 11.988 0 21.496-9.921 21.496-21.909M2320.74 5166.48c0-11.988-9.508-21.91-21.496-21.91-11.988 0-21.496 9.922-21.496 21.91 0 11.988 9.508 21.909 21.496 21.909 11.988 0 21.496-9.921 21.496-21.909" fill-rule="nonzero"/>
	<path d="M2371.58,4902.43l0,424.75" fill="none" stroke="#000" stroke-width="18.58"/>
	<path d="M2443.93 4902.43l0 424.75M2444.1 4902.43l0 424.75" fill="none" stroke="#000" stroke-width="56.83"/>
	<path d="M2516.44,4902.43l-0,424.75" fill="none" stroke="#000" stroke-width="18.58"/>
	<path d="M2610.26 5063.14c0-11.989-9.508-21.91-21.496-21.91-11.988 0-21.496 9.921-21.496 21.91 0 11.988 9.508 21.909 21.496 21.909 11.988 0 21.496-9.921 21.496-21.909M2610.26 5166.48c0-11.988-9.508-21.91-21.496-21.91-11.988 0-21.496 9.922-21.496 21.91 0 11.988 9.508 21.909 21.496 21.909 11.988 0 21.496-9.921 21.496-21.909" fill-rule="nonzero"/>
	<path d="M3287.28 4902.43l0 424.75M5557.37 4902.43l0 424.75M7486.5 4902.43l0 424.75M3129.16 6452.64l0 424.75M5137.33 6452.64l0 424.75M7486.5 6452.64l0 424.75M3008.79 8002.85l0 424.75M5578.54 8002.85l0 424.75" fill="none" stroke="#000" stroke-width="18.58"/>
	<path d="M7344.03 8163.56c0-11.988-9.508-21.909-21.496-21.909-11.989 0-21.496 9.921-21.496 21.909 0 11.988 9.507 21.91 21.496 21.91 11.988 0 21.496-9.922 21.496-21.91M7344.03 8266.89c0-11.989-9.508-21.91-21.496-21.91-11.989 0-21.496 9.921-21.496 21.91 0 11.988 9.507 21.909 21.496 21.909 11.988 0 21.496-9.921 21.496-21.909" fill-rule="nonzero"/>
	<path d="M7394.87,8002.85l-0,424.75" fill="none" stroke="#000" stroke-width="18.58"/>
	<path d="M7467.2,8002.85l0,424.75" fill="none" stroke="#000" stroke-width="56.83"/>
	<path d="M1280.98 2259.56l0-348.483M2014.9 2207.89l0-370.696M2402.67 2104.55l0-267.35M2645.03 2104.55l0-267.35M2887.38 2104.55l0-267.35M3275.15 2104.55l0-267.35M3815.87 2104.55l0-400.159M4068.45 2001.2l0-296.809M4321 2052.87l0-348.484M4573.58 2104.55l0-400.159M4826.16 2207.89l0-296.813M5230.25 2104.55l0-193.467M5787.33 2001.2l0-262.513M6181.95 2001.2l0-262.513M6576.58 2052.87l0-309.2M6823.2 2001.2l0-257.525M7069.87 2052.87l0-309.2M7316.5 2104.55l0-360.875M1052.29 3758.1l0-380.542M1275.75 3654.73l0-277.167M1499.21 3706.43l0-328.875M1722.67 3654.73l0-277.167M1946.13 3809.77l0-244.084M2303.67 3758.1l0-241.542M2814.16 3654.73l0-267.333M3154.69 3654.73l0-267.333M3495.25 3654.73l0-360.858M3708.08 3551.39l0-257.525M3920.91 3603.06l0-309.191M4133.75 3654.73l0-360.858M4576.04 3758.1l0-237.917M4893 3654.73l0-223.625M5210 3654.73l0-218.208M5527 3603.06l0-231.916M5996.91 3551.39l0-247.705M6337.45 3551.39l0-247.705M6678 3603.06l0-299.371M6890.83 3551.39l0-247.705M7103.66 3603.06l0-299.371M7316.5 3654.73l0-351.038M1052.29 5308.27l0-374.292M1503.65 5204.93l0-270.958M1955.02 5204.93l0-270.958M2750.48 5025.35l0 347.833M3436.62 4870.35l0 233.583M3907.08 5025.35l0 186.625M4377.58 4973.68l0 269.25M4671.62 4922.02l0 320.916M4965.66 4973.68l0 269.25M5259.7 5025.35l0 217.583M5706.7 5128.73l0 217.583M6150.75 5025.35l0 320.958M6594.79 5025.35l0 320.958M7038.83 4870.35l0 475.958M1052.29 6651.81l0-267.375M1540.34 6651.81l0-267.375M2028.38 6703.48l0-309.208M2333.41 6651.81l0-257.541M2638.44 6703.48l0-309.208M2943.47 6755.14l0-360.875M3401.45 6858.48l0-472.958M3865.25 6755.14l0-369.625M4329.08 6755.14l0-369.625M4792.87 6548.43l0-162.916M5286.66 6420.56l0 238.625M5774.7 6575.56l0 222.542M6262.75 6523.89l0 269.25M6567.79 6472.23l0 320.917M6872.83 6523.89l0 269.25M7177.83 6575.56l0 217.584M929.342 8229.1l0 296.167M1448.3 8125.77l0 399.5M1967.25 8125.77l0 399.5M2486.21 7970.73l0 554.542M3158.12 8229.1l0 227.417M3695.2 8229.1l0 227.417M4355.2 8253.64l0-309.167M4690.87 8201.98l0-257.5M5026.54 8253.64l0-309.167M5362.2 8305.35l0-360.875M5850.83 8408.68l0-374.333M6377.12 8305.35l0-271M6903.37 8305.35l0-271" fill="none" stroke="#000" stroke-width="11.38"/>
	<path d="M1282.56 2239.31c-7.441-13.641-23.149-21.082-42.165-21.082-14.055 0-29.35 4.134-44.232 11.988-27.284 14.468-43.819 38.858-43.819 59.941 0 5.787 1.24 11.575 4.134 16.949 7.441 13.641 23.149 20.669 42.165 20.669 14.055 0 29.351-3.721 44.232-11.575 27.284-14.468 43.819-38.858 43.819-59.941 0-5.787-1.24-11.575-4.134-16.949M2016.48 2187.64c-7.441-13.641-23.149-21.082-42.165-21.082-14.055 0-29.35 4.134-44.232 11.988-27.284 14.469-43.819 38.858-43.819 59.941 0 5.787 1.24 11.575 4.134 16.949 7.441 13.641 23.149 20.669 42.165 20.669 14.055 0 29.35-3.72 44.232-11.575 27.284-14.468 43.819-38.858 43.819-59.941 0-5.787-1.24-11.574-4.134-16.949M2404.25 2084.29c-7.441-13.641-23.15-21.082-42.165-21.082-14.056 0-29.351 4.134-44.233 11.988-27.283 14.469-43.819 38.858-43.819 59.941 0 5.787 1.241 11.575 4.134 16.949 7.441 13.641 23.15 20.669 42.166 20.669 14.055 0 29.35-3.72 44.232-11.575 27.283-14.468 43.819-38.858 43.819-59.941 0-5.787-1.24-11.574-4.134-16.949M2646.61 2084.29c-7.441-13.641-23.149-21.082-42.165-21.082-14.055 0-29.35 4.134-44.232 11.988-27.284 14.469-43.819 38.858-43.819 59.941 0 5.787 1.24 11.575 4.134 16.949 7.441 13.641 23.149 20.669 42.165 20.669 14.055 0 29.35-3.72 44.232-11.575 27.284-14.468 43.819-38.858 43.819-59.941 0-5.787-1.24-11.574-4.134-16.949M2888.96 2084.29c-7.441-13.641-23.149-21.082-42.165-21.082-14.055 0-29.35 4.134-44.232 11.988-27.284 14.469-43.819 38.858-43.819 59.941 0 5.787 1.24 11.575 4.134 16.949 7.441 13.641 23.149 20.669 42.165 20.669 14.055 0 29.351-3.72 44.232-11.575 27.284-14.468 43.819-38.858 43.819-59.941 0-5.787-1.24-11.574-4.134-16.949M3276.73 2084.29c-7.441-13.641-23.149-21.082-42.165-21.082-14.055 0-29.351 4.134-44.233 11.988-27.283 14.469-43.818 38.858-43.818 59.941 0 5.787 1.24 11.575 4.133 16.949 7.441 13.641 23.15 20.669 42.166 20.669 14.055 0 29.35-3.72 44.232-11.575 27.284-14.468 43.819-38.858 43.819-59.941 0-5.787-1.24-11.574-4.134-16.949M3817.46 2084.29c-7.441-13.641-23.149-21.082-42.165-21.082-14.055 0-29.35 4.134-44.232 11.988-27.284 14.469-43.819 38.858-43.819 59.941 0 5.787 1.24 11.575 4.134 16.949 7.441 13.641 23.149 20.669 42.165 20.669 14.055 0 29.351-3.72 44.232-11.575 27.284-14.468 43.819-38.858 43.819-59.941 0-5.787-1.24-11.574-4.134-16.949M4070 1980.94c-7.441-13.642-23.149-21.083-42.165-21.083-14.055 0-29.351 4.134-44.233 11.988-27.283 14.469-43.818 38.858-43.818 59.941 0 5.788 1.24 11.575 4.133 16.949 7.441 13.642 23.15 20.669 42.166 20.669 14.055 0 29.35-3.72 44.232-11.575 27.284-14.468 43.819-38.858 43.819-59.941 0-5.787-1.24-11.574-4.134-16.948M4322.59 2032.62c-7.441-13.642-23.149-21.083-42.165-21.083-14.055 0-29.35 4.134-44.232 11.988-27.284 14.469-43.819 38.858-43.819 59.941 0 5.788 1.24 11.575 4.134 16.949 7.441 13.642 23.149 20.669 42.165 20.669 14.055 0 29.351-3.72 44.232-11.575 27.284-14.468 43.819-38.858 43.819-59.941 0-5.787-1.24-11.574-4.134-16.948M4575.17 2084.29c-7.441-13.641-23.15-21.082-42.166-21.082-14.055 0-29.35 4.134-44.232 11.988-27.283 14.469-43.819 38.858-43.819 59.941 0 5.787 1.24 11.575 4.134 16.949 7.441 13.641 23.15 20.669 42.165 20.669 14.056 0 29.351-3.72 44.233-11.575 27.283-14.468 43.819-38.858 43.819-59.941 0-5.787-1.241-11.574-4.134-16.949M4827.71 2187.64c-7.441-13.641-23.149-21.082-42.165-21.082-14.055 0-29.35 4.134-44.232 11.988-27.284 14.469-43.819 38.858-43.819 59.941 0 5.787 1.24 11.575 4.134 16.949 7.441 13.641 23.149 20.669 42.165 20.669 14.055 0 29.351-3.72 44.232-11.575 27.284-14.468 43.819-38.858 43.819-59.941 0-5.787-1.24-11.574-4.134-16.949M5231.84 2084.29c-7.441-13.641-23.149-21.082-42.165-21.082-14.055 0-29.35 4.134-44.232 11.988-27.284 14.469-43.819 38.858-43.819 59.941 0 5.787 1.24 11.575 4.134 16.949 7.441 13.641 23.149 20.669 42.165 20.669 14.055 0 29.351-3.72 44.232-11.575 27.284-14.468 43.819-38.858 43.819-59.941 0-5.787-1.24-11.574-4.134-16.949M5788.92 1980.94c-7.441-13.642-23.15-21.083-42.166-21.083-14.055 0-29.35 4.134-44.232 11.988-27.283 14.469-43.819 38.858-43.819 59.941 0 5.788 1.24 11.575 4.134 16.949 7.441 13.642 23.15 20.669 42.165 20.669 14.056 0 29.351-3.72 44.233-11.575 27.283-14.468 43.819-38.858 43.819-59.941 0-5.787-1.241-11.574-4.134-16.948M6183.55 1980.94c-7.441-13.642-23.15-21.083-42.166-21.083-14.055 0-29.35 4.134-44.232 11.988-27.283 14.469-43.819 38.858-43.819 59.941 0 5.788 1.24 11.575 4.134 16.949 7.441 13.642 23.15 20.669 42.165 20.669 14.056 0 29.351-3.72 44.233-11.575 27.283-14.468 43.819-38.858 43.819-59.941 0-5.787-1.241-11.574-4.134-16.948M6578.17 2032.62c-7.441-13.642-23.15-21.083-42.166-21.083-14.055 0-29.35 4.134-44.232 11.988-27.283 14.469-43.819 38.858-43.819 59.941 0 5.788 1.24 11.575 4.134 16.949 7.441 13.642 23.15 20.669 42.165 20.669 14.056 0 29.351-3.72 44.233-11.575 27.283-14.468 43.819-38.858 43.819-59.941 0-5.787-1.241-11.574-4.134-16.948M6824.8 1980.94c-7.441-13.642-23.15-21.083-42.166-21.083-14.055 0-29.35 4.134-44.232 11.988-27.283 14.469-43.819 38.858-43.819 59.941 0 5.788 1.24 11.575 4.134 16.949 7.441 13.642 23.15 20.669 42.165 20.669 14.056 0 29.351-3.72 44.233-11.575 27.283-14.468 43.819-38.858 43.819-59.941 0-5.787-1.241-11.574-4.134-16.948M7071.42 2032.62c-7.441-13.642-23.15-21.083-42.166-21.083-14.055 0-29.35 4.134-44.232 11.988-27.283 14.469-43.819 38.858-43.819 59.941 0 5.788 1.24 11.575 4.134 16.949 7.441 13.642 23.15 20.669 42.165 20.669 14.056 0 29.351-3.72 44.233-11.575 27.283-14.468 43.819-38.858 43.819-59.941 0-5.787-1.241-11.574-4.134-16.948M7318.09 2084.29c-7.441-13.641-23.149-21.082-42.165-21.082-14.055 0-29.35 4.134-44.232 11.988-27.284 14.469-43.819 38.858-43.819 59.941 0 5.787 1.24 11.575 4.134 16.949 7.441 13.641 23.149 20.669 42.165 20.669 14.055 0 29.351-3.72 44.232-11.575 27.284-14.468 43.819-38.858 43.819-59.941 0-5.787-1.24-11.574-4.134-16.949M1053.88 3737.83c-7.441-13.642-23.15-21.083-42.165-21.083-14.056 0-29.351 4.134-44.233 11.988-27.283 14.469-43.819 38.859-43.819 59.941 0 5.788 1.241 11.575 4.134 16.949 7.441 13.642 23.15 20.67 42.166 20.67 14.055 0 29.35-3.721 44.232-11.575 27.283-14.469 43.819-38.859 43.819-59.941 0-5.788-1.24-11.575-4.134-16.949M1277.33 3634.49c-7.441-13.642-23.149-21.083-42.165-21.083-14.055 0-29.35 4.134-44.232 11.988-27.284 14.469-43.819 38.858-43.819 59.941 0 5.788 1.24 11.575 4.134 16.949 7.441 13.642 23.149 20.669 42.165 20.669 14.055 0 29.35-3.72 44.232-11.575 27.284-14.468 43.819-38.858 43.819-59.941 0-5.787-1.24-11.574-4.134-16.948M1500.8 3686.16c-7.441-13.641-23.15-21.082-42.166-21.082-14.055 0-29.35 4.134-44.232 11.988-27.283 14.468-43.819 38.858-43.819 59.941 0 5.787 1.24 11.575 4.134 16.949 7.441 13.641 23.15 20.669 42.165 20.669 14.056 0 29.351-3.721 44.233-11.575 27.283-14.468 43.819-38.858 43.819-59.941 0-5.787-1.241-11.575-4.134-16.949M1724.25 3634.49c-7.441-13.642-23.149-21.083-42.165-21.083-14.055 0-29.351 4.134-44.233 11.988-27.283 14.469-43.818 38.858-43.818 59.941 0 5.788 1.24 11.575 4.133 16.949 7.441 13.642 23.15 20.669 42.166 20.669 14.055 0 29.35-3.72 44.232-11.575 27.284-14.468 43.819-38.858 43.819-59.941 0-5.787-1.24-11.574-4.134-16.948M1947.72 3789.49c-7.441-13.642-23.15-21.083-42.166-21.083-14.055 0-29.35 4.134-44.232 11.988-27.283 14.469-43.819 38.858-43.819 59.941 0 5.788 1.24 11.575 4.134 16.949 7.441 13.642 23.15 20.669 42.165 20.669 14.055 0 29.351-3.72 44.233-11.575 27.283-14.468 43.818-38.858 43.818-59.941 0-5.787-1.24-11.574-4.133-16.948M2305.25 3737.83c-7.441-13.642-23.15-21.083-42.165-21.083-14.056 0-29.351 4.134-44.233 11.988-27.283 14.469-43.819 38.859-43.819 59.941 0 5.788 1.241 11.575 4.134 16.949 7.441 13.642 23.15 20.67 42.166 20.67 14.055 0 29.35-3.721 44.232-11.575 27.283-14.469 43.819-38.859 43.819-59.941 0-5.788-1.24-11.575-4.134-16.949M2815.74 3634.49c-7.441-13.642-23.149-21.083-42.165-21.083-14.055 0-29.35 4.134-44.232 11.988-27.284 14.469-43.819 38.858-43.819 59.941 0 5.788 1.24 11.575 4.134 16.949 7.441 13.642 23.149 20.669 42.165 20.669 14.055 0 29.351-3.72 44.232-11.575 27.284-14.468 43.819-38.858 43.819-59.941 0-5.787-1.24-11.574-4.134-16.948M3156.28 3634.49c-7.441-13.642-23.15-21.083-42.165-21.083-14.056 0-29.351 4.134-44.233 11.988-27.283 14.469-43.819 38.858-43.819 59.941 0 5.788 1.241 11.575 4.134 16.949 7.441 13.642 23.15 20.669 42.166 20.669 14.055 0 29.35-3.72 44.232-11.575 27.283-14.468 43.819-38.858 43.819-59.941 0-5.787-1.24-11.574-4.134-16.948M3496.81 3634.49c-7.441-13.642-23.149-21.083-42.165-21.083-14.055 0-29.35 4.134-44.232 11.988-27.284 14.469-43.819 38.858-43.819 59.941 0 5.788 1.24 11.575 4.134 16.949 7.441 13.642 23.149 20.669 42.165 20.669 14.055 0 29.35-3.72 44.232-11.575 27.284-14.468 43.819-38.858 43.819-59.941 0-5.787-1.24-11.574-4.134-16.948M3709.63 3531.16c-7.441-13.641-23.149-21.082-42.165-21.082-14.055 0-29.351 4.134-44.233 11.988-27.283 14.468-43.818 38.858-43.818 59.941 0 5.787 1.24 11.575 4.133 16.949 7.441 13.641 23.15 20.669 42.166 20.669 14.055 0 29.35-3.721 44.232-11.575 27.284-14.468 43.819-38.858 43.819-59.941 0-5.787-1.24-11.575-4.134-16.949M3922.46 3582.83c-7.441-13.642-23.149-21.083-42.165-21.083-14.055 0-29.35 4.134-44.232 11.988-27.284 14.469-43.819 38.859-43.819 59.941 0 5.788 1.24 11.575 4.134 16.949 7.441 13.642 23.149 20.67 42.165 20.67 14.055 0 29.351-3.721 44.232-11.575 27.284-14.469 43.819-38.859 43.819-59.941 0-5.788-1.24-11.575-4.134-16.949M4135.3 3634.49c-7.441-13.642-23.15-21.083-42.166-21.083-14.055 0-29.35 4.134-44.232 11.988-27.283 14.469-43.819 38.858-43.819 59.941 0 5.788 1.24 11.575 4.134 16.949 7.441 13.642 23.15 20.669 42.165 20.669 14.056 0 29.351-3.72 44.233-11.575 27.283-14.468 43.819-38.858 43.819-59.941 0-5.787-1.241-11.574-4.134-16.948M4577.59 3737.83c-7.441-13.642-23.149-21.083-42.165-21.083-14.055 0-29.35 4.134-44.232 11.988-27.284 14.469-43.819 38.859-43.819 59.941 0 5.788 1.24 11.575 4.134 16.949 7.441 13.642 23.149 20.67 42.165 20.67 14.055 0 29.351-3.721 44.232-11.575 27.284-14.469 43.819-38.859 43.819-59.941 0-5.788-1.24-11.575-4.134-16.949M4894.59 3634.49c-7.441-13.642-23.149-21.083-42.165-21.083-14.055 0-29.35 4.134-44.232 11.988-27.284 14.469-43.819 38.858-43.819 59.941 0 5.788 1.24 11.575 4.134 16.949 7.441 13.642 23.149 20.669 42.165 20.669 14.055 0 29.351-3.72 44.232-11.575 27.284-14.468 43.819-38.858 43.819-59.941 0-5.787-1.24-11.574-4.134-16.948M5211.59 3634.49c-7.441-13.642-23.149-21.083-42.165-21.083-14.055 0-29.35 4.134-44.232 11.988-27.284 14.469-43.819 38.858-43.819 59.941 0 5.788 1.24 11.575 4.134 16.949 7.441 13.642 23.149 20.669 42.165 20.669 14.055 0 29.351-3.72 44.232-11.575 27.284-14.468 43.819-38.858 43.819-59.941 0-5.787-1.24-11.574-4.134-16.948M5528.55 3582.83c-7.441-13.642-23.15-21.083-42.166-21.083-14.055 0-29.35 4.134-44.232 11.988-27.283 14.469-43.819 38.859-43.819 59.941 0 5.788 1.24 11.575 4.134 16.949 7.441 13.642 23.15 20.67 42.165 20.67 14.056 0 29.351-3.721 44.233-11.575 27.283-14.469 43.819-38.859 43.819-59.941 0-5.788-1.241-11.575-4.134-16.949M5998.5 3531.16c-7.441-13.641-23.149-21.082-42.165-21.082-14.055 0-29.351 4.134-44.233 11.988-27.283 14.468-43.818 38.858-43.818 59.941 0 5.787 1.24 11.575 4.133 16.949 7.441 13.641 23.15 20.669 42.166 20.669 14.055 0 29.35-3.721 44.232-11.575 27.284-14.468 43.819-38.858 43.819-59.941 0-5.787-1.24-11.575-4.134-16.949M6339.05 3531.16c-7.441-13.641-23.15-21.082-42.166-21.082-14.055 0-29.35 4.134-44.232 11.988-27.283 14.468-43.819 38.858-43.819 59.941 0 5.787 1.24 11.575 4.134 16.949 7.441 13.641 23.15 20.669 42.165 20.669 14.056 0 29.351-3.721 44.233-11.575 27.283-14.468 43.819-38.858 43.819-59.941 0-5.787-1.241-11.575-4.134-16.949M6679.59 3582.83c-7.441-13.642-23.149-21.083-42.165-21.083-14.055 0-29.35 4.134-44.232 11.988-27.284 14.469-43.819 38.859-43.819 59.941 0 5.788 1.24 11.575 4.134 16.949 7.441 13.642 23.149 20.67 42.165 20.67 14.055 0 29.351-3.721 44.232-11.575 27.284-14.469 43.819-38.859 43.819-59.941 0-5.788-1.24-11.575-4.134-16.949M6892.42 3531.16c-7.441-13.641-23.15-21.082-42.166-21.082-14.055 0-29.35 4.134-44.232 11.988-27.283 14.468-43.819 38.858-43.819 59.941 0 5.787 1.24 11.575 4.134 16.949 7.441 13.641 23.15 20.669 42.165 20.669 14.056 0 29.351-3.721 44.233-11.575 27.283-14.468 43.819-38.858 43.819-59.941 0-5.787-1.241-11.575-4.134-16.949M7105.25 3582.83c-7.441-13.642-23.149-21.083-42.165-21.083-14.055 0-29.351 4.134-44.233 11.988-27.283 14.469-43.818 38.859-43.818 59.941 0 5.788 1.24 11.575 4.133 16.949 7.441 13.642 23.15 20.67 42.166 20.67 14.055 0 29.35-3.721 44.232-11.575 27.284-14.469 43.819-38.859 43.819-59.941 0-5.788-1.24-11.575-4.134-16.949M7318.09 3634.49c-7.441-13.642-23.149-21.083-42.165-21.083-14.055 0-29.35 4.134-44.232 11.988-27.284 14.469-43.819 38.858-43.819 59.941 0 5.788 1.24 11.575 4.134 16.949 7.441 13.642 23.149 20.669 42.165 20.669 14.055 0 29.351-3.72 44.232-11.575 27.284-14.468 43.819-38.858 43.819-59.941 0-5.787-1.24-11.574-4.134-16.948M1053.88 5288.03c-7.441-13.641-23.15-21.082-42.165-21.082-14.056 0-29.351 4.134-44.233 11.988-27.283 14.468-43.819 38.858-43.819 59.941 0 5.787 1.241 11.575 4.134 16.949 7.441 13.641 23.15 20.669 42.166 20.669 14.055 0 29.35-3.721 44.232-11.575 27.283-14.468 43.819-38.858 43.819-59.941 0-5.787-1.24-11.575-4.134-16.949M1505.24 5184.7c-7.441-13.642-23.149-21.083-42.165-21.083-14.055 0-29.35 4.134-44.232 11.988-27.284 14.469-43.819 38.859-43.819 59.941 0 5.788 1.24 11.575 4.134 16.949 7.441 13.642 23.149 20.67 42.165 20.67 14.055 0 29.351-3.721 44.232-11.575 27.284-14.469 43.819-38.859 43.819-59.941 0-5.788-1.24-11.575-4.134-16.949M1956.6 5184.7c-7.441-13.642-23.15-21.083-42.165-21.083-14.056 0-29.351 4.134-44.233 11.988-27.283 14.469-43.819 38.859-43.819 59.941 0 5.788 1.241 11.575 4.134 16.949 7.441 13.642 23.15 20.67 42.166 20.67 14.055 0 29.35-3.721 44.232-11.575 27.283-14.469 43.819-38.859 43.819-59.941 0-5.788-1.24-11.575-4.134-16.949M2875.01 4977.99c-7.441-13.642-23.149-21.083-42.165-21.083-14.055 0-29.35 4.134-44.232 11.988-27.284 14.469-43.819 38.858-43.819 59.941 0 5.788 1.24 11.575 4.134 16.949 7.441 13.642 23.149 20.669 42.165 20.669 14.055 0 29.351-3.72 44.232-11.575 27.284-14.468 43.819-38.858 43.819-59.941 0-5.787-1.24-11.574-4.134-16.948M3561.13 4822.95c-7.441-13.642-23.149-21.083-42.165-21.083-14.055 0-29.351 4.134-44.233 11.988-27.283 14.469-43.818 38.859-43.818 59.941 0 5.788 1.24 11.575 4.133 16.949 7.441 13.642 23.15 20.67 42.166 20.67 14.055 0 29.35-3.721 44.232-11.575 27.284-14.469 43.819-38.859 43.819-59.941 0-5.788-1.24-11.575-4.134-16.949M4031.63 4977.99c-7.441-13.642-23.149-21.083-42.165-21.083-14.055 0-29.351 4.134-44.233 11.988-27.283 14.469-43.818 38.858-43.818 59.941 0 5.788 1.24 11.575 4.133 16.949 7.441 13.642 23.15 20.669 42.166 20.669 14.055 0 29.35-3.72 44.232-11.575 27.284-14.468 43.819-38.858 43.819-59.941 0-5.787-1.24-11.574-4.134-16.948M4502.09 4926.32c-7.441-13.642-23.149-21.083-42.165-21.083-14.055 0-29.35 4.134-44.232 11.988-27.284 14.469-43.819 38.859-43.819 59.941 0 5.788 1.24 11.575 4.134 16.949 7.441 13.642 23.149 20.67 42.165 20.67 14.055 0 29.351-3.721 44.232-11.575 27.284-14.469 43.819-38.859 43.819-59.941 0-5.788-1.24-11.575-4.134-16.949M4796.13 4874.66c-7.441-13.641-23.149-21.082-42.165-21.082-14.055 0-29.351 4.134-44.233 11.988-27.283 14.468-43.818 38.858-43.818 59.941 0 5.787 1.24 11.575 4.133 16.949 7.441 13.641 23.15 20.669 42.166 20.669 14.055 0 29.35-3.721 44.232-11.575 27.284-14.468 43.819-38.858 43.819-59.941 0-5.787-1.24-11.575-4.134-16.949M5090.21 4926.32c-7.441-13.642-23.149-21.083-42.165-21.083-14.055 0-29.35 4.134-44.232 11.988-27.284 14.469-43.819 38.859-43.819 59.941 0 5.788 1.24 11.575 4.134 16.949 7.441 13.642 23.149 20.67 42.165 20.67 14.055 0 29.351-3.721 44.232-11.575 27.284-14.469 43.819-38.859 43.819-59.941 0-5.788-1.24-11.575-4.134-16.949M5384.25 4977.99c-7.441-13.642-23.149-21.083-42.165-21.083-14.055 0-29.351 4.134-44.233 11.988-27.283 14.469-43.818 38.858-43.818 59.941 0 5.788 1.24 11.575 4.133 16.949 7.441 13.642 23.15 20.669 42.166 20.669 14.055 0 29.35-3.72 44.232-11.575 27.284-14.468 43.819-38.858 43.819-59.941 0-5.787-1.24-11.574-4.134-16.948M5831.25 5081.32c-7.441-13.642-23.149-21.083-42.165-21.083-14.055 0-29.351 4.134-44.233 11.988-27.283 14.469-43.818 38.859-43.818 59.941 0 5.788 1.24 11.575 4.133 16.949 7.441 13.642 23.15 20.67 42.166 20.67 14.055 0 29.35-3.721 44.232-11.575 27.284-14.469 43.819-38.859 43.819-59.941 0-5.788-1.24-11.575-4.134-16.949M6275.3 4977.99c-7.441-13.642-23.15-21.083-42.166-21.083-14.055 0-29.35 4.134-44.232 11.988-27.283 14.469-43.819 38.858-43.819 59.941 0 5.788 1.24 11.575 4.134 16.949 7.441 13.642 23.15 20.669 42.165 20.669 14.056 0 29.351-3.72 44.233-11.575 27.283-14.468 43.819-38.858 43.819-59.941 0-5.787-1.241-11.574-4.134-16.948M6719.34 4977.99c-7.441-13.642-23.149-21.083-42.165-21.083-14.055 0-29.35 4.134-44.232 11.988-27.284 14.469-43.819 38.858-43.819 59.941 0 5.788 1.24 11.575 4.134 16.949 7.441 13.642 23.149 20.669 42.165 20.669 14.055 0 29.351-3.72 44.232-11.575 27.284-14.468 43.819-38.858 43.819-59.941 0-5.787-1.24-11.574-4.134-16.948M7163.38 4822.95c-7.441-13.642-23.149-21.083-42.165-21.083-14.055 0-29.351 4.134-44.233 11.988-27.283 14.469-43.818 38.859-43.818 59.941 0 5.788 1.24 11.575 4.133 16.949 7.441 13.642 23.15 20.67 42.166 20.67 14.055 0 29.35-3.721 44.232-11.575 27.284-14.469 43.819-38.859 43.819-59.941 0-5.788-1.24-11.575-4.134-16.949M1053.88 6631.53c-7.441-13.641-23.15-21.082-42.165-21.082-14.056 0-29.351 4.134-44.233 11.988-27.283 14.468-43.819 38.858-43.819 59.941 0 5.787 1.241 11.575 4.134 16.949 7.441 13.641 23.15 20.669 42.166 20.669 14.055 0 29.35-3.721 44.232-11.575 27.283-14.468 43.819-38.858 43.819-59.941 0-5.787-1.24-11.575-4.134-16.949M1541.92 6631.53c-7.441-13.641-23.15-21.082-42.166-21.082-14.055 0-29.35 4.134-44.232 11.988-27.283 14.468-43.819 38.858-43.819 59.941 0 5.787 1.24 11.575 4.134 16.949 7.441 13.641 23.15 20.669 42.165 20.669 14.056 0 29.351-3.721 44.233-11.575 27.283-14.468 43.819-38.858 43.819-59.941 0-5.787-1.241-11.575-4.134-16.949M2029.96 6683.2c-7.441-13.642-23.149-21.083-42.165-21.083-14.055 0-29.35 4.134-44.232 11.988-27.284 14.469-43.819 38.859-43.819 59.941 0 5.788 1.24 11.575 4.134 16.949 7.441 13.642 23.149 20.67 42.165 20.67 14.055 0 29.351-3.721 44.232-11.575 27.284-14.469 43.819-38.859 43.819-59.941 0-5.788-1.24-11.575-4.134-16.949M2334.99 6631.53c-7.441-13.641-23.15-21.082-42.166-21.082-14.055 0-29.35 4.134-44.232 11.988-27.283 14.468-43.819 38.858-43.819 59.941 0 5.787 1.24 11.575 4.134 16.949 7.441 13.641 23.15 20.669 42.165 20.669 14.055 0 29.351-3.721 44.233-11.575 27.283-14.468 43.818-38.858 43.818-59.941 0-5.787-1.24-11.575-4.133-16.949M2640.02 6683.2c-7.441-13.642-23.15-21.083-42.166-21.083-14.055 0-29.35 4.134-44.232 11.988-27.283 14.469-43.819 38.859-43.819 59.941 0 5.788 1.24 11.575 4.134 16.949 7.441 13.642 23.15 20.67 42.165 20.67 14.056 0 29.351-3.721 44.233-11.575 27.283-14.469 43.819-38.859 43.819-59.941 0-5.788-1.241-11.575-4.134-16.949M2945.05 6734.87c-7.441-13.642-23.15-21.083-42.166-21.083-14.055 0-29.35 4.134-44.232 11.988-27.283 14.469-43.819 38.858-43.819 59.941 0 5.788 1.24 11.575 4.134 16.949 7.441 13.642 23.15 20.669 42.165 20.669 14.056 0 29.351-3.72 44.233-11.575 27.283-14.468 43.819-38.858 43.819-59.941 0-5.787-1.241-11.574-4.134-16.948M3403.03 6838.24c-7.441-13.642-23.149-21.083-42.165-21.083-14.055 0-29.351 4.134-44.233 11.988-27.283 14.469-43.818 38.858-43.818 59.941 0 5.788 1.24 11.575 4.133 16.949 7.441 13.642 23.15 20.669 42.166 20.669 14.055 0 29.35-3.72 44.232-11.575 27.284-14.468 43.819-38.858 43.819-59.941 0-5.787-1.24-11.574-4.134-16.948M3866.84 6734.87c-7.441-13.642-23.149-21.083-42.165-21.083-14.055 0-29.35 4.134-44.232 11.988-27.284 14.469-43.819 38.858-43.819 59.941 0 5.788 1.24 11.575 4.134 16.949 7.441 13.642 23.149 20.669 42.165 20.669 14.055 0 29.351-3.72 44.232-11.575 27.284-14.468 43.819-38.858 43.819-59.941 0-5.787-1.24-11.574-4.134-16.948M4330.63 6734.87c-7.441-13.642-23.149-21.083-42.165-21.083-14.055 0-29.351 4.134-44.233 11.988-27.283 14.469-43.818 38.858-43.818 59.941 0 5.788 1.24 11.575 4.133 16.949 7.441 13.642 23.15 20.669 42.166 20.669 14.055 0 29.35-3.72 44.232-11.575 27.284-14.468 43.819-38.858 43.819-59.941 0-5.787-1.24-11.574-4.134-16.948M4794.46 6528.2c-7.441-13.642-23.149-21.083-42.165-21.083-14.055 0-29.35 4.134-44.232 11.988-27.284 14.469-43.819 38.859-43.819 59.941 0 5.788 1.24 11.575 4.134 16.949 7.441 13.642 23.149 20.67 42.165 20.67 14.055 0 29.351-3.721 44.232-11.575 27.284-14.469 43.819-38.859 43.819-59.941 0-5.788-1.24-11.575-4.134-16.949M5411.21 6373.16c-7.441-13.641-23.149-21.082-42.165-21.082-14.055 0-29.35 4.134-44.232 11.988-27.284 14.468-43.819 38.858-43.819 59.941 0 5.787 1.24 11.575 4.134 16.949 7.441 13.641 23.149 20.669 42.165 20.669 14.055 0 29.351-3.721 44.232-11.575 27.284-14.468 43.819-38.858 43.819-59.941 0-5.787-1.24-11.575-4.134-16.949M5899.25 6528.2c-7.441-13.642-23.149-21.083-42.165-21.083-14.055 0-29.351 4.134-44.233 11.988-27.283 14.469-43.818 38.859-43.818 59.941 0 5.788 1.24 11.575 4.133 16.949 7.441 13.642 23.15 20.67 42.166 20.67 14.055 0 29.35-3.721 44.232-11.575 27.284-14.469 43.819-38.859 43.819-59.941 0-5.788-1.24-11.575-4.134-16.949M6387.3 6476.53c-7.441-13.641-23.15-21.082-42.166-21.082-14.055 0-29.35 4.134-44.232 11.988-27.283 14.468-43.819 38.858-43.819 59.941 0 5.787 1.24 11.575 4.134 16.949 7.441 13.641 23.15 20.669 42.165 20.669 14.056 0 29.351-3.721 44.233-11.575 27.283-14.468 43.819-38.858 43.819-59.941 0-5.787-1.241-11.575-4.134-16.949M6692.34 6424.82c-7.441-13.642-23.149-21.083-42.165-21.083-14.055 0-29.35 4.134-44.232 11.988-27.284 14.469-43.819 38.859-43.819 59.941 0 5.788 1.24 11.575 4.134 16.949 7.441 13.642 23.149 20.67 42.165 20.67 14.055 0 29.351-3.721 44.232-11.575 27.284-14.469 43.819-38.859 43.819-59.941 0-5.788-1.24-11.575-4.134-16.949M6997.34 6476.53c-7.441-13.641-23.149-21.082-42.165-21.082-14.055 0-29.35 4.134-44.232 11.988-27.284 14.468-43.819 38.858-43.819 59.941 0 5.787 1.24 11.575 4.134 16.949 7.441 13.641 23.149 20.669 42.165 20.669 14.055 0 29.351-3.721 44.232-11.575 27.284-14.468 43.819-38.858 43.819-59.941 0-5.787-1.24-11.575-4.134-16.949M7302.38 6528.2c-7.441-13.642-23.149-21.083-42.165-21.083-14.055 0-29.351 4.134-44.233 11.988-27.283 14.469-43.818 38.859-43.818 59.941 0 5.788 1.24 11.575 4.133 16.949 7.441 13.642 23.15 20.67 42.166 20.67 14.055 0 29.35-3.721 44.232-11.575 27.284-14.469 43.819-38.859 43.819-59.941 0-5.788-1.24-11.575-4.134-16.949M1053.88 8181.74c-7.441-13.642-23.15-21.083-42.165-21.083-14.056 0-29.351 4.134-44.233 11.988-27.283 14.469-43.819 38.858-43.819 59.941 0 5.788 1.241 11.575 4.134 16.949 7.441 13.642 23.15 20.669 42.166 20.669 14.055 0 29.35-3.72 44.232-11.575 27.283-14.468 43.819-38.858 43.819-59.941 0-5.787-1.24-11.574-4.134-16.948M1572.83 8078.37c-7.441-13.642-23.149-21.083-42.165-21.083-14.055 0-29.35 4.134-44.232 11.988-27.284 14.469-43.819 38.858-43.819 59.941 0 5.788 1.24 11.575 4.134 16.949 7.441 13.642 23.149 20.669 42.165 20.669 14.055 0 29.35-3.72 44.232-11.575 27.284-14.468 43.819-38.858 43.819-59.941 0-5.787-1.24-11.574-4.134-16.948M2091.79 8078.37c-7.441-13.642-23.149-21.083-42.165-21.083-14.055 0-29.35 4.134-44.232 11.988-27.284 14.469-43.819 38.858-43.819 59.941 0 5.788 1.24 11.575 4.134 16.949 7.441 13.642 23.149 20.669 42.165 20.669 14.055 0 29.351-3.72 44.232-11.575 27.284-14.468 43.819-38.858 43.819-59.941 0-5.787-1.24-11.574-4.134-16.948M2610.75 7923.37c-7.441-13.642-23.15-21.083-42.166-21.083-14.055 0-29.35 4.134-44.232 11.988-27.283 14.469-43.819 38.858-43.819 59.941 0 5.788 1.24 11.575 4.134 16.949 7.441 13.642 23.15 20.669 42.165 20.669 14.056 0 29.351-3.72 44.233-11.575 27.283-14.468 43.819-38.858 43.819-59.941 0-5.787-1.241-11.574-4.134-16.948M3282.65 8181.74c-7.441-13.642-23.149-21.083-42.165-21.083-14.055 0-29.351 4.134-44.233 11.988-27.283 14.469-43.818 38.858-43.818 59.941 0 5.788 1.24 11.575 4.133 16.949 7.441 13.642 23.15 20.669 42.166 20.669 14.055 0 29.35-3.72 44.232-11.575 27.284-14.468 43.819-38.858 43.819-59.941 0-5.787-1.24-11.574-4.134-16.948M3819.71 8181.74c-7.441-13.642-23.149-21.083-42.165-21.083-14.055 0-29.35 4.134-44.232 11.988-27.284 14.469-43.819 38.858-43.819 59.941 0 5.788 1.24 11.575 4.134 16.949 7.441 13.642 23.149 20.669 42.165 20.669 14.055 0 29.351-3.72 44.232-11.575 27.284-14.468 43.819-38.858 43.819-59.941 0-5.787-1.24-11.574-4.134-16.948M4356.8 8233.41c-7.441-13.641-23.15-21.082-42.166-21.082-14.055 0-29.35 4.134-44.232 11.988-27.283 14.468-43.819 38.858-43.819 59.941 0 5.787 1.24 11.575 4.134 16.949 7.441 13.641 23.15 20.669 42.165 20.669 14.056 0 29.351-3.721 44.233-11.575 27.283-14.468 43.819-38.858 43.819-59.941 0-5.787-1.241-11.575-4.134-16.949M4692.46 8181.74c-7.441-13.642-23.149-21.083-42.165-21.083-14.055 0-29.35 4.134-44.232 11.988-27.284 14.469-43.819 38.858-43.819 59.941 0 5.788 1.24 11.575 4.134 16.949 7.441 13.642 23.149 20.669 42.165 20.669 14.055 0 29.351-3.72 44.232-11.575 27.284-14.468 43.819-38.858 43.819-59.941 0-5.787-1.24-11.574-4.134-16.948M5028.13 8233.41c-7.441-13.641-23.149-21.082-42.165-21.082-14.055 0-29.351 4.134-44.233 11.988-27.283 14.468-43.818 38.858-43.818 59.941 0 5.787 1.24 11.575 4.133 16.949 7.441 13.641 23.15 20.669 42.166 20.669 14.055 0 29.35-3.721 44.232-11.575 27.284-14.468 43.819-38.858 43.819-59.941 0-5.787-1.24-11.575-4.134-16.949M5363.8 8285.08c-7.441-13.642-23.15-21.083-42.166-21.083-14.055 0-29.35 4.134-44.232 11.988-27.283 14.469-43.819 38.859-43.819 59.941 0 5.788 1.24 11.575 4.134 16.949 7.441 13.642 23.15 20.67 42.165 20.67 14.056 0 29.351-3.721 44.233-11.575 27.283-14.469 43.819-38.859 43.819-59.941 0-5.788-1.241-11.575-4.134-16.949M5852.42 8388.41c-7.441-13.641-23.15-21.082-42.166-21.082-14.055 0-29.35 4.134-44.232 11.988-27.283 14.468-43.819 38.858-43.819 59.941 0 5.787 1.24 11.575 4.134 16.949 7.441 13.641 23.15 20.669 42.165 20.669 14.056 0 29.351-3.721 44.233-11.575 27.283-14.468 43.819-38.858 43.819-59.941 0-5.787-1.241-11.575-4.134-16.949M6378.67 8285.08c-7.441-13.642-23.15-21.083-42.166-21.083-14.055 0-29.35 4.134-44.232 11.988-27.283 14.469-43.819 38.859-43.819 59.941 0 5.788 1.24 11.575 4.134 16.949 7.441 13.642 23.15 20.67 42.165 20.67 14.056 0 29.351-3.721 44.233-11.575 27.283-14.469 43.819-38.859 43.819-59.941 0-5.788-1.241-11.575-4.134-16.949M6904.96 8285.08c-7.441-13.642-23.149-21.083-42.165-21.083-14.055 0-29.35 4.134-44.232 11.988-27.284 14.469-43.819 38.859-43.819 59.941 0 5.788 1.24 11.575 4.134 16.949 7.441 13.642 23.149 20.67 42.165 20.67 14.055 0 29.351-3.721 44.232-11.575 27.284-14.469 43.819-38.859 43.819-59.941 0-5.788-1.24-11.575-4.134-16.949M458.463 2093.51c-5.084-22.447-15.998-38.238-19.222-42.537-13.187-17.652-29.764-29.433-49.152-35.014-12.856-3.679-25.258-4.134-35.261-3.39-4.3-24.844-8.434-49.151-12.195-71.681 22.529-25.506 37.494-49.482 46.919-67.258 14.344-27.2 19.098-46.133 19.305-46.96 7.11-21.538 8.598-53.369 4.051-87.307-4.175-31.211-12.815-58.949-22.529-72.385-4.258-5.911-8.599-8.929-12.898-8.929-5.043 0-15.419 5.126-27.366 16.577-9.508 9.095-23.026 25.175-33.608 50.02-12.402 29.185-13.27 68.415-11.823 96.195 1.571 30.053 6.159 53.575 6.201 53.782.082.371 1.157 6.572 3.017 17.196-.95.951-1.943 1.86-2.976 2.853-4.299 4.134-9.219 8.846-14.923 14.551-3.555 3.555-7.483 7.317-11.616 11.326-34.932 33.65-87.804 84.579-87.804 163.742 0 19.43 3.721 37.701 11.079 54.278 6.573 14.882 16.081 28.441 28.193 40.306 31.955 31.21 75.732 44.479 104.917 43.818 12.195-.289 23.067-1.281 32.947-3.142 7.565 39.685 12.278 68.746 12.443 90.821.166 26.912-6.655 43.323-22.777 54.774-10.046 7.151-21.662 11.079-34.477 11.699-10.706.496-20.049-1.447-25.96-3.142l-.042 0c0 0-1.199-.33-1.24-1.157-.041-.745 1.406-.951 1.447-.951l.083 0c7.937-1.819 22.694-6.903 32.45-20.545 7.441-10.418 11.038-29.516 3.432-45.804-4.589-9.879-14.965-22.074-38.197-23.934-10.294-.827-19.678 1.281-27.945 6.241-7.483 4.465-13.683 11.244-18.024 19.512-10.169 19.429-8.268 43.116 4.671 58.991 12.237 14.964 31.335 24.513 53.782 26.911 3.514.372 7.027.537 10.541.537 18.313 0 36.502-4.961 51.26-14.096 15.13-10.624 23.894-27.077 26.705-50.35 2.315-19.182.703-43.613-5.085-76.973-1.488-8.64-3.72-21.166-6.449-36.708 23.77-7.938 40.967-22.696 56.552-46.879 13.6-23.728 17.486-48.944 11.574-74.988m-141.419 108.266c-19.181-5.044-37.494-15.378-53.037-29.847-5.416-5.084-13.146-14.055-19.223-28.068-5.663-13.064-8.392-27.243-8.185-42.083.29-19.388 5.705-39.313 16.081-59.114 12.071-23.067 30.921-45.928 55.972-67.961 5.994-5.291 11.658-10.582 16.99-15.874 3.142 17.611 6.573 36.998 10.211 57.172-15.915 5.249-35.551 18.271-48.407 41.627-14.634 27.16-14.056 49.979-11.038 64.364 3.886 18.438 14.345 33.981 28.648 42.621 3.844 2.314 20.917 11.119 28.523 8.722 1.53-.496 2.646-1.406 3.225-2.77 2.108-4.837-2.108-7.482-8.557-11.451-2.481-1.529-5.25-3.265-8.268-5.456-13.724-10.294-19.718-28.689-15.295-46.795 2.397-9.922 7.689-18.851 15.295-25.879 6.904-6.407 15.337-10.954 25.175-13.6 8.433 46.465 16.949 92.557 23.729 127.117.537 2.852 1.116 5.621 1.653 8.391-18.106 3.844-36.088 3.473-53.492-1.116m46.795-137.162c42.786-1.943 60.437 28.814 64.116 48.78 1.943 10.459 1.902 28.813-4.464 46.216-4.837 13.146-15.006 29.971-36.213 38.487-.289-1.736-.62-3.514-.95-5.292-6.367-36.253-14.386-81.685-22.489-128.191m-30.26-293.256c7.359-23.728 18.686-37.163 26.912-44.314 7.234-6.284 14.055-9.219 17.858-9.219.579 0 1.075.083 1.488.207 1.902.578 4.093 2.935 6.036 6.532 9.549 17.733 6.49 45.472.951 63.826-6.739 22.323-18.809 45.555-55.187 85.281-.703-4.588-1.365-8.929-1.985-12.979-5.167-34.271-3.844-64.324 3.927-89.334M458.463 3643.71c-5.084-22.447-15.998-38.238-19.222-42.537-13.187-17.652-29.764-29.433-49.152-35.014-12.856-3.679-25.258-4.134-35.261-3.39-4.3-24.844-8.434-49.151-12.195-71.68 22.529-25.507 37.494-49.483 46.919-67.259 14.344-27.2 19.098-46.133 19.305-46.96 7.11-21.538 8.598-53.369 4.051-87.307-4.175-31.211-12.815-58.949-22.529-72.384-4.258-5.912-8.599-8.929-12.898-8.929-5.043 0-15.419 5.126-27.366 16.576-9.508 9.095-23.026 25.175-33.608 50.02-12.402 29.185-13.27 68.415-11.823 96.195 1.571 30.053 6.159 53.575 6.201 53.782.082.371 1.157 6.572 3.017 17.196-.95.951-1.943 1.86-2.976 2.853-4.299 4.134-9.219 8.846-14.923 14.551-3.555 3.555-7.483 7.317-11.616 11.327-34.932 33.65-87.804 84.578-87.804 163.742 0 19.429 3.721 37.701 11.079 54.278 6.573 14.881 16.081 28.441 28.193 40.305 31.955 31.21 75.732 44.48 104.917 43.819 12.195-.29 23.067-1.282 32.947-3.143 7.565 39.686 12.278 68.747 12.443 90.821.166 26.912-6.655 43.323-22.777 54.774-10.046 7.152-21.662 11.079-34.477 11.699-10.706.496-20.049-1.447-25.96-3.142l-.042 0c0 0-1.199-.33-1.24-1.157-.041-.744 1.406-.951 1.447-.951l.083 0c7.937-1.819 22.694-6.903 32.45-20.545 7.441-10.417 11.038-29.516 3.432-45.804-4.589-9.879-14.965-22.074-38.197-23.934-10.294-.827-19.678 1.281-27.945 6.241-7.483 4.465-13.683 11.245-18.024 19.512-10.169 19.429-8.268 43.116 4.671 58.991 12.237 14.964 31.335 24.513 53.782 26.911 3.514.372 7.027.537 10.541.537 18.313 0 36.502-4.96 51.26-14.096 15.13-10.624 23.894-27.077 26.705-50.35 2.315-19.182.703-43.612-5.085-76.973-1.488-8.64-3.72-21.165-6.449-36.708 23.77-7.938 40.967-22.696 56.552-46.879 13.6-23.728 17.486-48.944 11.574-74.988m-141.419 108.266c-19.181-5.043-37.494-15.378-53.037-29.847-5.416-5.084-13.146-14.055-19.223-28.068-5.663-13.063-8.392-27.242-8.185-42.083.29-19.388 5.705-39.313 16.081-59.114 12.071-23.067 30.921-45.927 55.972-67.961 5.994-5.291 11.658-10.582 16.99-15.874 3.142 17.611 6.573 36.998 10.211 57.172-15.915 5.249-35.551 18.271-48.407 41.627-14.634 27.16-14.056 49.979-11.038 64.365 3.886 18.437 14.345 33.98 28.648 42.62 3.844 2.314 20.917 11.12 28.523 8.722 1.53-.496 2.646-1.406 3.225-2.77 2.108-4.836-2.108-7.482-8.557-11.451-2.481-1.529-5.25-3.265-8.268-5.456-13.724-10.293-19.718-28.689-15.295-46.795 2.397-9.921 7.689-18.851 15.295-25.878 6.904-6.408 15.337-10.955 25.175-13.6 8.433 46.464 16.949 92.556 23.729 127.116.537 2.852 1.116 5.621 1.653 8.391-18.106 3.845-36.088 3.473-53.492-1.116m46.795-137.162c42.786-1.942 60.437 28.814 64.116 48.78 1.943 10.459 1.902 28.813-4.464 46.217-4.837 13.145-15.006 29.97-36.213 38.486-.289-1.736-.62-3.514-.95-5.292-6.367-36.253-14.386-81.684-22.489-128.191m-30.26-293.255c7.359-23.728 18.686-37.163 26.912-44.315 7.234-6.283 14.055-9.219 17.858-9.219.579 0 1.075.083 1.488.207 1.902.579 4.093 2.935 6.036 6.532 9.549 17.734 6.49 45.472.951 63.826-6.739 22.323-18.809 45.555-55.187 85.282-.703-4.589-1.365-8.93-1.985-12.98-5.167-34.27-3.844-64.324 3.927-89.333M458.463 5193.92c-5.084-22.447-15.998-38.238-19.222-42.538-13.187-17.651-29.764-29.433-49.152-35.014-12.856-3.678-25.258-4.134-35.261-3.389-4.3-24.845-8.434-49.152-12.195-71.681 22.529-25.506 37.494-49.483 46.919-67.258 14.344-27.201 19.098-46.134 19.305-46.961 7.11-21.537 8.598-53.368 4.051-87.307-4.175-31.21-12.815-58.949-22.529-72.384-4.258-5.911-8.599-8.929-12.898-8.929-5.043 0-15.419 5.126-27.366 16.577-9.508 9.094-23.026 25.175-33.608 50.019-12.402 29.186-13.27 68.416-11.823 96.195 1.571 30.053 6.159 53.575 6.201 53.782.082.372 1.157 6.573 3.017 17.197-.95.95-1.943 1.86-2.976 2.852-4.299 4.134-9.219 8.846-14.923 14.551-3.555 3.556-7.483 7.317-11.616 11.327-34.932 33.65-87.804 84.579-87.804 163.742 0 19.429 3.721 37.701 11.079 54.278 6.573 14.882 16.081 28.441 28.193 40.305 31.955 31.211 75.732 44.48 104.917 43.819 12.195-.289 23.067-1.282 32.947-3.142 7.565 39.685 12.278 68.746 12.443 90.821.166 26.911-6.655 43.323-22.777 54.773-10.046 7.152-21.662 11.079-34.477 11.699-10.706.496-20.049-1.447-25.96-3.141l-.042 0c0 0-1.199-.331-1.24-1.158-.041-.744 1.406-.951 1.447-.951l.083 0c7.937-1.818 22.694-6.903 32.45-20.545 7.441-10.417 11.038-29.516 3.432-45.803-4.589-9.88-14.965-22.075-38.197-23.935-10.294-.827-19.678 1.281-27.945 6.242-7.483 4.464-13.683 11.244-18.024 19.512-10.169 19.429-8.268 43.116 4.671 58.99 12.237 14.965 31.335 24.514 53.782 26.911 3.514.373 7.027.538 10.541.538 18.313 0 36.502-4.961 51.26-14.097 15.13-10.624 23.894-27.077 26.705-50.35 2.315-19.181.703-43.612-5.085-76.973-1.488-8.639-3.72-21.165-6.449-36.708 23.77-7.937 40.967-22.695 56.552-46.878 13.6-23.728 17.486-48.945 11.574-74.988m-141.419 108.265c-19.181-5.043-37.494-15.378-53.037-29.846-5.416-5.085-13.146-14.055-19.223-28.069-5.663-13.063-8.392-27.242-8.185-42.082.29-19.388 5.705-39.314 16.081-59.115 12.071-23.067 30.921-45.927 55.972-67.961 5.994-5.291 11.658-10.582 16.99-15.874 3.142 17.611 6.573 36.998 10.211 57.172-15.915 5.25-35.551 18.271-48.407 41.628-14.634 27.159-14.056 49.978-11.038 64.364 3.886 18.437 14.345 33.98 28.648 42.62 3.844 2.315 20.917 11.12 28.523 8.722 1.53-.496 2.646-1.405 3.225-2.769 2.108-4.837-2.108-7.482-8.557-11.451-2.481-1.529-5.25-3.266-8.268-5.457-13.724-10.293-19.718-28.689-15.295-46.795 2.397-9.921 7.689-18.851 15.295-25.878 6.904-6.408 15.337-10.955 25.175-13.6 8.433 46.464 16.949 92.557 23.729 127.116.537 2.852 1.116 5.622 1.653 8.391-18.106 3.845-36.088 3.473-53.492-1.116m46.795-137.161c42.786-1.943 60.437 28.813 64.116 48.78 1.943 10.458 1.902 28.813-4.464 46.216-4.837 13.146-15.006 29.97-36.213 38.487-.289-1.737-.62-3.514-.95-5.292-6.367-36.254-14.386-81.685-22.489-128.191m-30.26-293.256c7.359-23.728 18.686-37.163 26.912-44.315 7.234-6.283 14.055-9.219 17.858-9.219.579 0 1.075.083 1.488.207 1.902.579 4.093 2.936 6.036 6.532 9.549 17.734 6.49 45.472.951 63.826-6.739 22.323-18.809 45.556-55.187 85.282-.703-4.589-1.365-8.929-1.985-12.98-5.167-34.27-3.844-64.323 3.927-89.333M458.463 6744.09c-5.084-22.447-15.998-38.238-19.222-42.537-13.187-17.652-29.764-29.433-49.152-35.014-12.856-3.679-25.258-4.134-35.261-3.39-4.3-24.844-8.434-49.151-12.195-71.68 22.529-25.507 37.494-49.483 46.919-67.259 14.344-27.2 19.098-46.133 19.305-46.96 7.11-21.538 8.598-53.369 4.051-87.307-4.175-31.211-12.815-58.949-22.529-72.384-4.258-5.912-8.599-8.929-12.898-8.929-5.043 0-15.419 5.126-27.366 16.576-9.508 9.095-23.026 25.175-33.608 50.02-12.402 29.185-13.27 68.415-11.823 96.195 1.571 30.053 6.159 53.575 6.201 53.782.082.371 1.157 6.572 3.017 17.196-.95.951-1.943 1.86-2.976 2.853-4.299 4.134-9.219 8.846-14.923 14.551-3.555 3.555-7.483 7.317-11.616 11.327-34.932 33.65-87.804 84.578-87.804 163.742 0 19.429 3.721 37.701 11.079 54.278 6.573 14.881 16.081 28.441 28.193 40.305 31.955 31.21 75.732 44.48 104.917 43.819 12.195-.29 23.067-1.282 32.947-3.143 7.565 39.686 12.278 68.747 12.443 90.821.166 26.912-6.655 43.323-22.777 54.774-10.046 7.152-21.662 11.079-34.477 11.699-10.706.496-20.049-1.447-25.96-3.142l-.042 0c0 0-1.199-.33-1.24-1.157-.041-.744 1.406-.951 1.447-.951l.083 0c7.937-1.819 22.694-6.903 32.45-20.545 7.441-10.417 11.038-29.516 3.432-45.804-4.589-9.879-14.965-22.074-38.197-23.934-10.294-.827-19.678 1.281-27.945 6.241-7.483 4.465-13.683 11.245-18.024 19.512-10.169 19.429-8.268 43.116 4.671 58.991 12.237 14.964 31.335 24.513 53.782 26.911 3.514.372 7.027.537 10.541.537 18.313 0 36.502-4.96 51.26-14.096 15.13-10.624 23.894-27.077 26.705-50.35 2.315-19.182.703-43.612-5.085-76.973-1.488-8.64-3.72-21.165-6.449-36.708 23.77-7.938 40.967-22.696 56.552-46.879 13.6-23.728 17.486-48.944 11.574-74.988m-141.419 108.266c-19.181-5.043-37.494-15.378-53.037-29.847-5.416-5.084-13.146-14.055-19.223-28.068-5.663-13.063-8.392-27.242-8.185-42.083.29-19.388 5.705-39.313 16.081-59.114 12.071-23.067 30.921-45.927 55.972-67.961 5.994-5.291 11.658-10.582 16.99-15.874 3.142 17.611 6.573 36.998 10.211 57.172-15.915 5.249-35.551 18.271-48.407 41.627-14.634 27.16-14.056 49.979-11.038 64.365 3.886 18.437 14.345 33.98 28.648 42.62 3.844 2.314 20.917 11.12 28.523 8.722 1.53-.496 2.646-1.406 3.225-2.77 2.108-4.836-2.108-7.482-8.557-11.451-2.481-1.529-5.25-3.265-8.268-5.456-13.724-10.293-19.718-28.689-15.295-46.795 2.397-9.921 7.689-18.851 15.295-25.878 6.904-6.408 15.337-10.955 25.175-13.6 8.433 46.464 16.949 92.556 23.729 127.116.537 2.852 1.116 5.621 1.653 8.391-18.106 3.845-36.088 3.473-53.492-1.116m46.795-137.162c42.786-1.942 60.437 28.814 64.116 48.78 1.943 10.459 1.902 28.813-4.464 46.217-4.837 13.145-15.006 29.97-36.213 38.486-.289-1.736-.62-3.514-.95-5.292-6.367-36.253-14.386-81.684-22.489-128.191m-30.26-293.255c7.359-23.728 18.686-37.163 26.912-44.315 7.234-6.283 14.055-9.219 17.858-9.219.579 0 1.075.083 1.488.207 1.902.579 4.093 2.935 6.036 6.532 9.549 17.734 6.49 45.472.951 63.826-6.739 22.323-18.809 45.555-55.187 85.282-.703-4.589-1.365-8.93-1.985-12.98-5.167-34.27-3.844-64.324 3.927-89.333M458.463 8294.29c-5.084-22.447-15.998-38.238-19.222-42.538-13.187-17.651-29.764-29.433-49.152-35.014-12.856-3.678-25.258-4.134-35.261-3.389-4.3-24.845-8.434-49.152-12.195-71.681 22.529-25.506 37.494-49.483 46.919-67.258 14.344-27.201 19.098-46.134 19.305-46.961 7.11-21.537 8.598-53.368 4.051-87.307-4.175-31.21-12.815-58.949-22.529-72.384-4.258-5.911-8.599-8.929-12.898-8.929-5.043 0-15.419 5.126-27.366 16.577-9.508 9.094-23.026 25.175-33.608 50.019-12.402 29.186-13.27 68.416-11.823 96.195 1.571 30.053 6.159 53.575 6.201 53.782.082.372 1.157 6.573 3.017 17.197-.95.95-1.943 1.86-2.976 2.852-4.299 4.134-9.219 8.846-14.923 14.551-3.555 3.556-7.483 7.317-11.616 11.327-34.932 33.65-87.804 84.579-87.804 163.742 0 19.429 3.721 37.701 11.079 54.278 6.573 14.882 16.081 28.441 28.193 40.305 31.955 31.211 75.732 44.48 104.917 43.819 12.195-.289 23.067-1.282 32.947-3.142 7.565 39.685 12.278 68.746 12.443 90.821.166 26.911-6.655 43.323-22.777 54.773-10.046 7.152-21.662 11.079-34.477 11.699-10.706.496-20.049-1.447-25.96-3.141l-.042 0c0 0-1.199-.331-1.24-1.158-.041-.744 1.406-.951 1.447-.951l.083 0c7.937-1.818 22.694-6.903 32.45-20.545 7.441-10.417 11.038-29.516 3.432-45.803-4.589-9.88-14.965-22.075-38.197-23.935-10.294-.827-19.678 1.281-27.945 6.242-7.483 4.464-13.683 11.244-18.024 19.512-10.169 19.429-8.268 43.116 4.671 58.99 12.237 14.965 31.335 24.514 53.782 26.911 3.514.373 7.027.538 10.541.538 18.313 0 36.502-4.961 51.26-14.097 15.13-10.624 23.894-27.077 26.705-50.35 2.315-19.181.703-43.612-5.085-76.973-1.488-8.639-3.72-21.165-6.449-36.708 23.77-7.937 40.967-22.695 56.552-46.878 13.6-23.728 17.486-48.945 11.574-74.988m-141.419 108.265c-19.181-5.043-37.494-15.378-53.037-29.846-5.416-5.085-13.146-14.055-19.223-28.069-5.663-13.063-8.392-27.242-8.185-42.082.29-19.388 5.705-39.314 16.081-59.115 12.071-23.067 30.921-45.927 55.972-67.961 5.994-5.291 11.658-10.582 16.99-15.874 3.142 17.611 6.573 36.998 10.211 57.172-15.915 5.25-35.551 18.271-48.407 41.628-14.634 27.159-14.056 49.978-11.038 64.364 3.886 18.437 14.345 33.98 28.648 42.62 3.844 2.315 20.917 11.12 28.523 8.722 1.53-.496 2.646-1.405 3.225-2.769 2.108-4.837-2.108-7.482-8.557-11.451-2.481-1.529-5.25-3.266-8.268-5.457-13.724-10.293-19.718-28.689-15.295-46.795 2.397-9.921 7.689-18.851 15.295-25.878 6.904-6.408 15.337-10.955 25.175-13.6 8.433 46.464 16.949 92.557 23.729 127.116.537 2.852 1.116 5.622 1.653 8.391-18.106 3.845-36.088 3.473-53.492-1.116m46.795-137.161c42.786-1.943 60.437 28.813 64.116 48.78 1.943 10.458 1.902 28.813-4.464 46.216-4.837 13.146-15.006 29.97-36.213 38.487-.289-1.737-.62-3.514-.95-5.292-6.367-36.254-14.386-81.685-22.489-128.191m-30.26-293.256c7.359-23.728 18.686-37.163 26.912-44.315 7.234-6.283 14.055-9.219 17.858-9.219.579 0 1.075.083 1.488.207 1.902.579 4.093 2.936 6.036 6.532 9.549 17.734 6.49 45.472.951 63.826-6.739 22.323-18.809 45.556-55.187 85.282-.703-4.589-1.365-8.929-1.985-12.98-5.167-34.27-3.844-64.323 3.927-89.333M660.752 1763.91c2.481-.413 4.548-3.307 4.548-5.787l0-24.39c0-3.307-2.481-5.787-5.788-5.787l-.827 0-13.641 2.893 0-61.594-11.575 0 0 64.075-36.792 7.441 0-58.288-11.574 0 0 60.768-16.122 3.307c-2.481.414-4.548 3.307-4.548 5.788l0 24.803 0-.827c0 3.307 2.481 5.787 5.788 5.787l1.24 0 13.642-2.893 0 68.208-16.122 3.307c-2.481.414-4.548 3.307-4.548 5.788l0 23.976c0 3.307 2.481 5.788 5.788 5.788l1.24 0 13.642-2.894 0 61.594 11.574 0 0-64.074 36.792-7.441 0 58.287 11.575 0 0-60.768 15.708-2.893c2.481-.414 4.548-3.308 4.548-5.788l0-24.39c0-3.307-2.481-5.787-5.788-5.787l-.827 0-13.641 2.894 0-68.209 15.708-2.894m-64.075 81.437l0-68.622 36.792-7.441 0 68.209-36.792 7.854M660.752 3314.12c2.481-.413 4.548-3.307 4.548-5.787l0-24.39c0-3.307-2.481-5.787-5.788-5.787l-.827 0-13.641 2.893 0-61.594-11.575 0 0 64.075-36.792 7.441 0-58.288-11.574 0 0 60.768-16.122 3.307c-2.481.414-4.548 3.307-4.548 5.788l0 24.803 0-.827c0 3.307 2.481 5.787 5.788 5.787l1.24 0 13.642-2.893 0 68.208-16.122 3.307c-2.481.414-4.548 3.307-4.548 5.788l0 23.976c0 3.307 2.481 5.788 5.788 5.788l1.24 0 13.642-2.894 0 61.594 11.574 0 0-64.074 36.792-7.441 0 58.287 11.575 0 0-60.768 15.708-2.893c2.481-.414 4.548-3.308 4.548-5.788l0-24.39c0-3.307-2.481-5.787-5.788-5.787l-.827 0-13.641 2.894 0-68.209 15.708-2.894m-64.075 81.437l0-68.622 36.792-7.441 0 68.209-36.792 7.854M660.752 4864.32c2.481-.414 4.548-3.307 4.548-5.788l0-24.389c0-3.308-2.481-5.788-5.788-5.788l-.827 0-13.641 2.894 0-61.595-11.575 0 0 64.075-36.792 7.441 0-58.287-11.574 0 0 60.767-16.122 3.307c-2.481.414-4.548 3.308-4.548 5.788l0 24.803 0-.827c0 3.307 2.481 5.788 5.788 5.788l1.24 0 13.642-2.894 0 68.209-16.122 3.307c-2.481.413-4.548 3.307-4.548 5.787l0 23.976c0 3.308 2.481 5.788 5.788 5.788l1.24 0 13.642-2.894 0 61.595 11.574 0 0-64.075 36.792-7.441 0 58.287 11.575 0 0-60.767 15.708-2.894c2.481-.413 4.548-3.307 4.548-5.787l0-24.39c0-3.307-2.481-5.788-5.788-5.788l-.827 0-13.641 2.894 0-68.209 15.708-2.893m-64.075 81.437l0-68.622 36.792-7.441 0 68.208-36.792 7.855M660.752 6414.49c2.481-.413 4.548-3.307 4.548-5.787l0-24.39c0-3.307-2.481-5.787-5.788-5.787l-.827 0-13.641 2.893 0-61.594-11.575 0 0 64.075-36.792 7.441 0-58.288-11.574 0 0 60.768-16.122 3.307c-2.481.414-4.548 3.307-4.548 5.788l0 24.803 0-.827c0 3.307 2.481 5.787 5.788 5.787l1.24 0 13.642-2.893 0 68.208-16.122 3.307c-2.481.414-4.548 3.307-4.548 5.788l0 23.976c0 3.307 2.481 5.788 5.788 5.788l1.24 0 13.642-2.894 0 61.594 11.574 0 0-64.074 36.792-7.441 0 58.287 11.575 0 0-60.768 15.708-2.893c2.481-.414 4.548-3.308 4.548-5.788l0-24.39c0-3.307-2.481-5.787-5.788-5.787l-.827 0-13.641 2.894 0-68.209 15.708-2.894m-64.075 81.437l0-68.622 36.792-7.441 0 68.209-36.792 7.854M660.752 7964.7c2.481-.414 4.548-3.307 4.548-5.788l0-24.389c0-3.308-2.481-5.788-5.788-5.788l-.827 0-13.641 2.894 0-61.595-11.575 0 0 64.075-36.792 7.441 0-58.287-11.574 0 0 60.767-16.122 3.307c-2.481.414-4.548 3.308-4.548 5.788l0 24.803 0-.827c0 3.307 2.481 5.788 5.788 5.788l1.24 0 13.642-2.894 0 68.209-16.122 3.307c-2.481.413-4.548 3.307-4.548 5.787l0 23.976c0 3.308 2.481 5.788 5.788 5.788l1.24 0 13.642-2.894 0 61.595 11.574 0 0-64.075 36.792-7.441 0 58.287 11.575 0 0-60.767 15.708-2.894c2.481-.413 4.548-3.307 4.548-5.787l0-24.39c0-3.307-2.481-5.788-5.788-5.788l-.827 0-13.641 2.894 0-68.209 15.708-2.893m-64.075 81.437l0-68.622 36.792-7.441 0 68.208-36.792 7.855M917.961 1929.27c-3.307 9.094-11.574 38.858-31.83 38.858-26.87 0-32.658-16.535-54.981-16.535-3.307 0-6.614.413-10.748 1.24 0 0 10.335-15.709 54.154-29.351 43.819-13.641 54.98-35.137 54.98-59.941 0-17.362-7.854-51.673-70.275-51.673-62.422 0-73.996 37.618-73.996 56.634 0 16.949 14.055 30.591 31.003 30.591 16.949 0 30.591-13.642 30.591-30.591 0-11.575-8.268-24.39-19.016-28.524-1.24-.413-2.893-2.48-2.893-4.547 0-2.48 2.066-5.374 9.507-7.441 2.067-.827 7.855-2.067 14.056-2.067 5.787 0 12.401 1.24 17.362 4.548 7.854 4.96 10.748 12.401 10.748 31.004 0 48.366-57.461 58.7-81.437 94.665 0 0-12.402 17.362-12.402 36.791 0 19.429 9.921 20.669 14.882 20.669 6.614 0 13.642-5.374 13.642-12.814 0-1.654-.414-3.308-1.24-5.374-2.481-5.788-3.307-10.335-3.307-13.642 0-1.24 0-2.481.413-3.721.413-2.48 3.72-6.614 13.642-6.614 11.988 0 16.535 14.055 23.976 24.803 7.441 10.748 19.016 17.362 32.244 17.362 13.229 0 31.004-9.507 38.445-24.803 7.441-15.295 16.949-46.299 16.949-57.46 0-5.374-3.307-7.855-7.028-7.855-2.893 0-5.787 1.654-7.441 5.788M777.795 2169.52l71.019 0 0 30.673-34.021 0c-3.224 0-5.829 2.605-5.829 5.829l0 7.896c0 3.224 2.605 5.829 5.829 5.829l125.049 0c3.224 0 5.829-2.605 5.829-5.829l0-7.896c0-3.224-2.605-5.829-5.829-5.829l-36.957 0 0-30.673 36.957 0c3.224 0 5.829-2.604 5.829-5.829l0-7.895c0-3.225-2.605-5.829-5.829-5.829l-36.957 0 0-65.976c0-2.233-1.24-4.217-3.224-5.209l-5.002-2.48c-2.191-1.075-4.795-.703-6.573.95l-37.411 34.394c-1.199 1.116-1.901 2.646-1.901 4.3l0 34.021-47.582 0c0 0 45.969-49.73 94.914-114.921 3.597-4.754 1.53-9.095.744-9.88l-8.971-9.136c-1.116-1.075-2.604-1.695-4.133-1.695-2.481 0-58.495.083-61.471 0-2.976-.083-5.209 2.48-5.498 5.043 0 0-2.232 30.426-12.98 64.034-10.748 33.567-22.902 54.154-33.898 69.159 0 0-2.232 4.093-.744 7.152 1.447 3.1 4.052 7.606 4.052 7.606 0 0 1.074 2.191 4.588 2.191M2329.84 2284.23c6.296 6.296 16.504 6.296 22.8 0 6.296-6.296 6.296-16.504 0-22.8-6.296-6.296-16.504-6.296-22.8 0-6.296 6.296-6.296 16.504 0 22.8M2572.19 2284.23c6.296 6.296 16.504 6.296 22.8 0 6.296-6.296 6.296-16.504 0-22.8-6.296-6.296-16.504-6.296-22.8 0-6.296 6.296-6.296 16.504 0 22.8M2814.54 2284.23c6.296 6.296 16.504 6.296 22.8 0 6.296-6.296 6.296-16.504 0-22.8-6.296-6.296-16.504-6.296-22.8 0-6.296 6.296-6.296 16.504 0 22.8M3202.31 2284.23c6.296 6.296 16.504 6.296 22.8 0 6.296-6.296 6.296-16.504 0-22.8-6.296-6.296-16.504-6.296-22.8 0-6.296 6.296-6.296 16.504 0 22.8M5714.51 2180.89c6.296 6.296 16.504 6.296 22.8 0 6.296-6.296 6.296-16.504 0-22.8-6.296-6.296-16.504-6.296-22.8 0-6.296 6.296-6.296 16.504 0 22.8M6109.09 2180.89c6.296 6.296 16.504 6.296 22.8 0 6.296-6.296 6.296-16.504 0-22.8-6.296-6.296-16.504-6.296-22.8 0-6.296 6.296-6.296 16.504 0 22.8M2741.32 3834.45c6.296 6.296 16.504 6.296 22.8 0 6.296-6.297 6.296-16.504 0-22.8-6.296-6.297-16.504-6.297-22.8 0-6.296 6.296-6.296 16.503 0 22.8M3081.86 3834.45c6.297 6.296 16.504 6.296 22.8 0 6.297-6.297 6.297-16.504 0-22.8-6.296-6.297-16.503-6.297-22.8 0-6.296 6.296-6.296 16.503 0 22.8M5924.09 3731.08c6.296 6.296 16.504 6.296 22.8 0 6.296-6.297 6.296-16.504 0-22.8-6.296-6.297-16.504-6.297-22.8 0-6.296 6.296-6.296 16.503 0 22.8M6264.64 3731.08c6.296 6.296 16.504 6.296 22.8 0 6.296-6.297 6.296-16.504 0-22.8-6.296-6.297-16.504-6.297-22.8 0-6.296 6.296-6.296 16.503 0 22.8M3480.37 4632.42c7.027 17.362 14.468 76.476 15.295 117.401 0 1.24 2.48 1.24 2.894 1.24.413 0 2.893 0 2.893-1.24.827-40.512 8.268-99.626 15.296-117.401 0-.414 0-1.241-.827-1.241-.414 0-9.095 1.654-17.362 1.654-8.682 0-16.949-1.654-17.363-1.654-.826 0-.826.414-.826 1.241M3950.83 4732.13c7.028 17.362 14.468 76.476 15.295 117.401 0 1.241 2.481 1.241 2.894 1.241.413 0 2.894 0 2.894-1.241.826-40.511 8.267-99.626 15.295-117.401 0-.414 0-1.24-.827-1.24-.413 0-9.094 1.653-17.362 1.653-8.681 0-16.949-1.653-17.362-1.653-.827 0-.827.413-.827 1.24M5756.8 4971.25c6.296 6.296 16.504 6.296 22.8 0 6.296-6.296 6.296-16.504 0-22.8-6.296-6.296-16.504-6.296-22.8 0-6.296 6.296-6.296 16.504 0 22.8M6200.89 4867.87c6.296 6.296 16.504 6.296 22.8 0 6.296-6.296 6.296-16.504 0-22.8-6.296-6.296-16.504-6.296-22.8 0-6.296 6.296-6.296 16.504 0 22.8M6644.93 4867.87c6.296 6.296 16.504 6.296 22.8 0 6.296-6.296 6.296-16.504 0-22.8-6.296-6.296-16.504-6.296-22.8 0-6.296 6.296-6.296 16.504 0 22.8M7088.97 4764.54c6.296 6.296 16.504 6.296 22.8 0 6.296-6.296 6.296-16.504 0-22.8-6.296-6.296-16.504-6.296-22.8 0-6.296 6.296-6.296 16.504 0 22.8M979.455 6831.49c6.297 6.296 16.504 6.296 22.8 0 6.297-6.296 6.297-16.504 0-22.8-6.296-6.296-16.503-6.296-22.8 0-6.296 6.296-6.296 16.504 0 22.8M1467.5 6831.49c6.296 6.296 16.504 6.296 22.8 0 6.296-6.296 6.296-16.504 0-22.8-6.296-6.296-16.504-6.296-22.8 0-6.296 6.296-6.296 16.504 0 22.8M3328.61 6986.49c6.296 6.296 16.504 6.296 22.8 0 6.296-6.296 6.296-16.504 0-22.8-6.296-6.296-16.504-6.296-22.8 0-6.296 6.296-6.296 16.504 0 22.8M3792.43 6934.83c6.296 6.296 16.504 6.296 22.8 0 6.296-6.297 6.296-16.504 0-22.8-6.296-6.297-16.504-6.297-22.8 0-6.296 6.296-6.296 16.503 0 22.8M4256.22 6934.83c6.296 6.296 16.504 6.296 22.8 0 6.296-6.297 6.296-16.504 0-22.8-6.296-6.297-16.504-6.297-22.8 0-6.296 6.296-6.296 16.503 0 22.8M4720.05 6728.12c6.296 6.296 16.504 6.296 22.8 0 6.296-6.296 6.296-16.504 0-22.8-6.296-6.296-16.504-6.296-22.8 0-6.296 6.296-6.296 16.504 0 22.8M979.455 8071.62c6.297 6.296 16.504 6.296 22.8 0 6.297-6.296 6.297-16.504 0-22.8-6.296-6.296-16.503-6.296-22.8 0-6.296 6.296-6.296 16.504 0 22.8M1498.41 7968.29c6.296 6.296 16.504 6.296 22.8 0 6.296-6.296 6.296-16.504 0-22.8-6.296-6.296-16.504-6.296-22.8 0-6.296 6.296-6.296 16.504 0 22.8M2017.37 7968.29c6.296 6.296 16.504 6.296 22.8 0 6.296-6.296 6.296-16.504 0-22.8-6.296-6.296-16.504-6.296-22.8 0-6.296 6.296-6.296 16.504 0 22.8M2536.33 7864.91c6.296 6.296 16.504 6.296 22.8 0 6.296-6.296 6.296-16.504 0-22.8-6.296-6.296-16.504-6.296-22.8 0-6.296 6.296-6.296 16.504 0 22.8M3208.24 8071.62c6.296 6.296 16.504 6.296 22.8 0 6.296-6.296 6.296-16.504 0-22.8-6.296-6.296-16.504-6.296-22.8 0-6.296 6.296-6.296 16.504 0 22.8M3745.3 8071.62c6.296 6.296 16.504 6.296 22.8 0 6.296-6.296 6.296-16.504 0-22.8-6.296-6.296-16.504-6.296-22.8 0-6.296 6.296-6.296 16.504 0 22.8" fill-rule="nonzero"/>
	<path d="M2009.22 1811.36l641.491 0 0 51.675-641.491 0 0-51.675M2396.98 1888.87l253.725 0 0 51.671-253.725 0 0-51.671M2881.7 1811.36l399.137 0 0 51.675-399.137 0 0-51.675M3810.2 1678.55l769.042 0 0 51.675-769.042 0 0-51.675M3810.2 1756.06l769.042 0 0 51.675-769.042 0 0-51.675M4820.45 1885.24l415.5 0 0 51.675-415.5 0 0-51.675M5781.62 1712.85l406 0 0 51.675-406 0 0-51.675M6570.87 1717.83l751.292 0 0 51.675-751.292 0 0-51.675M6570.87 1795.34l751.292 0 0 51.675-751.292 0 0-51.675M1046.61 3351.73l681.746 0 0 51.667-681.746 0 0-51.667M1046.61 3429.23l681.746 0 0 51.708-681.746 0 0-51.708M1940.45 3541.18l368.904-50.666 0 52.125-368.904 50.666 0-52.125M2808.47 3361.56l351.904 0 0 51.667-351.904 0 0-51.667M3489.54 3268.03l649.875 0 0 51.675-649.875 0 0-51.675M3489.54 3345.56l649.875 0 0 51.667-649.875 0 0-51.667M4570.33 3496.56l328.375-92.291 0 53.666-328.375 92.292 0-53.667M5204.29 3412.48l328.375-67.75 0 52.792-328.375 67.708 0-52.75M5991.25 3277.85l351.875 0 0 51.675-351.875 0 0-51.675M6672.29 3277.85l649.875 0 0 51.675-649.875 0 0-51.675M6672.29 3355.35l649.875 0 0 51.667-649.875 0 0-51.667M1046.61 4908.14l914.096 0 0 51.666-914.096 0 0-51.666M3430.91 5077.43l481.875 110.625 0 53.042-481.875-110.667 0-53M4371.87 5217.1l893.542 0 0 51.667-893.542 0 0-51.667M4371.87 5139.6l893.542 0 0 51.667-893.542 0 0-51.667M5701.04 5320.48l1343.5 0 0 51.667-1343.5 0 0-51.667M1046.61 6358.6l499.413 0 0 51.667-499.413 0 0-51.667M2022.7 6368.43l926.454 0 0 51.667-926.454 0 0-51.667M2022.7 6445.93l926.454 0 0 51.667-926.454 0 0-51.667M3395.75 6359.64l1402.79 0 0 51.708-1402.79 0 0-51.708M5281 6632.35l499.417 142.125 0 53.708-499.417-142.125 0-53.708M6257.08 6767.31l926.459 0 0 51.667-926.459 0 0-51.667M6257.08 6689.81l926.459 0 0 51.667-926.459 0 0-51.667M923.658 8499.43l1568.24 0 0 51.667-1568.24 0 0-51.667M3152.44 8430.68l548.433 0 0 51.667-548.433 0 0-51.667M4349.54 7918.64l1018.33 0 0 51.666-1018.33 0 0-51.666M4349.54 7996.14l1018.33 0 0 51.666-1018.33 0 0-51.666M5845.16 8008.52l1063.92 0 0 51.666-1063.92 0 0-51.666"/>
	<path d="M1289.76 1925.55c-.413-1.241-4.133-15.709-4.133-16.536-.414-1.653-2.894-2.894-4.961-2.894-2.894 0-5.374 2.481-5.374 5.374l0 93.426c0 2.067 1.653 3.72 3.307 4.547 17.362 5.374 53.327 28.11 80.197 73.996 7.441 12.815 19.429 30.177 19.429 64.902 0 29.763-4.547 61.181-11.988 90.118-1.24 4.547-2.481 8.681 2.067 10.334 4.547 1.654 6.201-1.653 7.854-5.787 14.882-36.378 18.602-74.41 18.602-100.039l0-7.855c-2.067-53.327-32.657-92.598-32.657-92.598 1.24 0-38.032-50.847-49.193-68.209-15.295-23.563-22.736-47.126-23.15-48.779M2755.13 5374.84c0-.827 3.72-14.882 4.133-16.122.414-1.654 7.855-25.217 23.15-48.78 11.161-17.362 50.433-68.208 49.193-68.208 0 0 30.59-39.272 32.657-92.599l0-9.508c0-25.216-3.307-60.767-17.775-96.732-1.654-4.134-3.307-8.268-7.855-6.614-4.547 1.653-3.307 6.614-2.066 11.161 7.441 28.937 11.574 58.701 11.574 88.465 0 34.724-12.401 52.086-19.842 64.901-27.284 45.886-62.835 68.209-80.197 73.996-2.067.827-3.307 2.481-3.307 4.548l0 93.425c0 2.894 2.48 5.374 5.374 5.374 2.067 0 4.547-1.654 4.961-3.307M2306 4791.43c6.567-.708 10.646-1.916 12.25-3.625 1.6-1.708 2.4-6.166 2.4-13.375l0-72.208c0-5.917-.896-9.75-2.687-11.583-1.792-1.834-5.779-2.959-11.963-3.375l0-3.084 88.788 0 .566 23.917-4.637 0c-1.138-7.667-3.283-12.5-6.429-14.542-3.146-2-9.359-3.041-18.638-3.041l-22.783 0c-2.225 0-3.65.375-4.275 1.166-.621.75-.933 2.25-.933 4.459l0 37.208 24.087 0c7.108 0 11.638-1.083 13.592-3.208 1.95-2.084 3.525-6.375 4.716-12.834l3.909 0 0 38.584-3.909 0c-1.245-6.459-2.845-10.75-4.8-12.834-1.954-2.083-6.454-3.125-13.508-3.125l-24.087 0 0 36.459c0 6.125.933 10.041 2.808 11.75 1.871 1.708 5.954 2.791 12.246 3.291l0 3-46.713 0 0-3m104.442-102.041c0-2.334.817-4.334 2.442-6.042 1.629-1.667 3.637-2.5 6.025-2.5 2.333 0 4.325.833 5.979 2.458 1.654 1.667 2.483 3.709 2.483 6.084 0 2.333-.829 4.333-2.483 5.958-1.654 1.667-3.646 2.5-5.979 2.5-2.388 0-4.396-.833-6.025-2.5-1.625-1.625-2.442-3.625-2.442-5.958m-10.417 102.791c5.809-.541 9.471-1.541 10.988-3 1.521-1.416 2.279-5.333 2.279-11.666l0-38.834c0-3.5-.246-5.958-.733-7.291-.813-2.25-2.521-3.334-5.125-3.334-.596 0-1.18.042-1.75.125-.571.125-2.213.542-4.925 1.334l0-2.542 3.5-1.125c9.495-3.083 16.112-5.417 19.858-7 1.517-.667 2.496-1 2.929-1 .108.417.163.792.163 1.25l0 58.417c0 6.166.745 10.083 2.237 11.625 1.492 1.583 4.871 2.583 10.133 3.041l0 2.25-39.554 0 0-2.25m46.046 0c3.854-.5 6.554-1.458 8.1-2.916 1.546-1.417 2.317-4.625 2.317-9.625l0-41.25c0-3.5-.325-5.917-.975-7.334-1.034-2.083-3.146-3.083-6.35-3.083-.488 0-.988 0-1.504.083-.517.042-1.155.125-1.913.209l0-2.834c2.225-.666 7.488-2.333 15.788-5.041l7.65-2.542c.379 0 .612.167.691.417.084.291.121.666.121 1.166l0 11.959c4.992-4.667 8.9-7.875 11.721-9.625 4.233-2.667 8.625-4 13.183-4 3.688 0 7.054 1.083 10.092 3.208 5.858 4.125 8.787 11.458 8.787 22.042l0 38c0 3.916.788 6.708 2.363 8.458 1.571 1.75 4.204 2.625 7.892 2.708l0 2.25-34.75 0 0-2.25c3.962-.541 6.729-1.666 8.304-3.291 1.571-1.667 2.358-5.25 2.358-10.792l0-34.75c0-4.667-.867-8.542-2.604-11.625-1.738-3.042-4.938-4.583-9.604-4.583-3.2 0-6.454 1.083-9.767 3.25-1.842 1.25-4.229 3.333-7.158 6.208l0 45.542c0 3.916.866 6.541 2.604 7.875 1.733 1.333 4.475 2.041 8.217 2.166l0 2.25-35.563 0 0-2.25m118.492-74.083c7.65 0 14.35 2.667 20.1 7.958 5.75 5.292 8.625 12.792 8.625 22.5l-51.675 0c.541 12.584 3.391 21.75 8.546 27.5 5.154 5.75 11.258 8.625 18.308 8.625 5.696 0 10.5-1.5 14.404-4.458 3.908-3 7.517-7.25 10.825-12.708l2.85.958c-2.225 6.917-6.392 13.292-12.496 19.125-6.1 5.875-13.575 8.792-22.416 8.792-10.2 0-18.084-3.834-23.642-11.542-5.563-7.708-8.342-16.583-8.342-26.625 0-10.917 3.229-20.292 9.684-28.25 6.458-7.917 14.866-11.875 25.229-11.875m-4.721 5.958c-6.183 0-10.904 2.75-14.163 8.209-1.733 2.916-2.983 6.625-3.741 11.083l34.341 0c-.595-5.417-1.625-9.458-3.091-12.125-2.659-4.792-7.109-7.167-13.346-7.167M7220.62 7871.64c0 2.708.667 4.5 1.958 5.375 1.334.875 4.084 1.291 8.292 1.291 13 0 23.708-2.583 32.125-7.708 12.917-7.917 19.375-21.458 19.375-40.625 0-17.083-5.333-29.958-15.958-38.583-9.125-7.375-21.167-11.042-36.209-11.042-3.75 0-6.291.375-7.625 1.208-1.291.834-1.958 2.625-1.958 5.375l0 84.709m-31.583 9.833c6.083-.625 10.041-1.75 11.875-3.292 1.833-1.541 2.75-5.458 2.75-11.75l0-74.125c0-6.083-.875-10-2.667-11.708-1.792-1.75-5.792-2.833-11.958-3.292l0-3.083 44.916 0c15.125 0 27.959 2.5 38.417 7.5 18.875 8.958 28.333 24.958 28.333 48 0 8.292-1.708 16.208-5.125 23.708-3.375 7.459-8.5 13.792-15.333 18.959-4.333 3.25-8.833 5.708-13.5 7.375-8.5 3.166-19 4.75-31.417 4.75l-46.291 0 0-3.042m144.791 5c-2.583 0-4.791-.917-6.583-2.75-1.792-1.792-2.667-4-2.667-6.542 0-2.541.875-4.708 2.709-6.5 1.833-1.791 4-2.708 6.541-2.708 2.542 0 4.709.917 6.5 2.708 1.792 1.792 2.709 3.959 2.709 6.5 0 2.542-.875 4.75-2.667 6.542-1.75 1.833-3.917 2.75-6.542 2.75m76.167-114.208c6.042 0 12.208.916 18.583 2.708 6.334 1.792 9.875 2.667 10.667 2.667 1.542 0 3.042-.417 4.458-1.292 1.417-.875 2.375-2.208 2.917-4.083l3.5 0 1.542 37.458-3.792 0c-2.25-7.458-5.167-13.417-8.708-18-6.875-8.583-16.042-12.833-27.625-12.833-11.667 0-21.167 4.583-28.584 13.833-7.416 9.208-11.125 21.917-11.125 38.083 0 14.834 3.917 26.709 11.709 35.584 7.75 8.875 17.625 13.291 29.583 13.291 8.625 0 16.542-2.041 23.833-6.166 4.167-2.334 8.75-5.875 13.75-10.584l3.084 3.084c-3.667 4.666-8.25 8.791-13.75 12.291-9.334 6-19.459 8.959-30.334 8.959-17.916 0-32.125-5.709-42.666-17.167-9.709-10.583-14.584-23.792-14.584-39.625 0-16.208 5.167-29.833 15.417-40.875 10.792-11.542 24.833-17.333 42.125-17.333m76.625 114.208c-2.583 0-4.792-.917-6.583-2.75-1.792-1.792-2.667-4-2.667-6.542 0-2.541.917-4.708 2.708-6.5 1.834-1.791 4-2.708 6.542-2.708 2.583 0 4.75.917 6.542 2.708 1.791 1.792 2.666 3.959 2.666 6.5 0 2.542-.875 4.75-2.625 6.542-1.791 1.833-3.958 2.75-6.583 2.75" fill-rule="nonzero"/>
</svg>
