<?xml version="1.0" encoding="utf-8"?>
<svg xmlns="http://www.w3.org/2000/svg" clip-rule="evenodd" fill-rule="evenodd" stroke-linejoin="bevel" viewBox="0 0 7605 7188">
	<title>A music score of Roaring River, a song sung on the Red River plantation. The song is eighteen measure in two four time, in the key of F-sharp.</title>
	<path d="M107.483 241.632l7381.88 0M107.483 344.982l7381.88 0M107.483 448.328l7381.88 0M107.483 551.674l7381.88 0M107.483 655.02l7381.88 0M107.483 1791.83l7381.88 0M107.483 1895.18l7381.88 0M107.483 1998.52l7381.88 0M107.483 2101.87l7381.88 0M107.483 2205.22l7381.88 0M107.483 3342.01l7381.88 0M107.483 3445.38l7381.88 0M107.483 3548.72l7381.88 0M107.483 3652.05l7381.88 0M107.483 3755.42l7381.88 0M107.483 4892.22l7381.88 0M107.483 4995.59l7381.88 0M107.483 5098.92l7381.88 0M107.483 5202.26l7381.88 0M107.483 5305.59l7381.88 0M107.483 6442.42l7381.88 0M107.483 6545.76l7381.88 0M107.483 6649.13l7381.88 0M107.483 6752.47l7381.88 0M107.483 6855.8l7381.88 0" fill="none" stroke="#000" stroke-width="11.38"/>
	<path d="M3747.99 644.687c189.417 153.816 568.25 153.816 757.709 0-189.459 182.754-568.292 182.754-757.709 0M6508.66 593.012c174.417 164.45 544.375 190.287 739.917 51.675-197.542 167.479-567.5 141.641-739.917-51.675M1207.85 2194.88c111.733 106.425 335.192 106.425 446.921 0-111.729 135.363-335.188 135.363-446.921 0M3427.33 2194.88c159.625 138.45 478.875 138.45 638.5 0-159.625 167.388-478.875 167.388-638.5 0M4508.12 2298.23c104.084 50.342 262.584-1.333 317-103.346-45.458 129.525-203.958 181.2-317 103.346M5142.12 2194.88c91.584 62.85 250.084 37.013 316.959-51.675-62.25 117.246-220.709 143.084-316.959 51.675M6610.07 2143.21c148.458 151.213 467.708 177.05 638.5 51.675-173.125 154.217-492.375 128.38-638.5-51.675M4432.62 3300.67c232.042-183.292 673.084-157.458 882.125 51.708-210.708-180.25-651.791-206.125-882.125-51.708M1960.48 5243.59c219.138 183.541 676.679 209.375 915.088 51.666-240.038 186.625-697.58 160.792-915.088-51.666M6317.82 4850.88c240.041-186.583 697.583-160.75 915.083 51.667-219.125-183.542-676.667-209.375-915.083-51.667M4287.32 6793.8c242.541 192.167 746.041 218 1007 51.667-262.459 195.208-765.959 169.375-1007-51.667" stroke="#000" stroke-linecap="round" stroke-linejoin="round" stroke-width="7.25"/>
	<path d="M1736.2 235.949l0 424.754M3537.16 235.949l0 424.754M5508.62 235.949l0 424.754M7480.07 235.949l0 424.754M2535.45 1786.15l0 424.75M4297.32 1786.15l0 424.75M5718.2 1786.15l0 424.75M7480.07 1786.15l0 424.75" fill="none" stroke="#000" stroke-width="18.58"/>
	<path d="M2314.32 3497.05c0-11.988-9.508-21.909-21.496-21.909-11.988 0-21.496 9.921-21.496 21.909 0 11.988 9.508 21.909 21.496 21.909 11.988 0 21.496-9.921 21.496-21.909M2314.32 3600.38c0-11.988-9.508-21.909-21.496-21.909-11.988 0-21.496 9.921-21.496 21.909 0 11.989 9.508 21.91 21.496 21.91 11.988 0 21.496-9.921 21.496-21.91" fill-rule="nonzero"/>
	<path d="M2365.16,3336.34l0,424.75" fill="none" stroke="#000" stroke-width="18.58"/>
	<path d="M2437.5 3336.34l0 424.75M2437.68 3336.34l0 424.75" fill="none" stroke="#000" stroke-width="56.83"/>
	<path d="M2510.02,3336.34l0,424.75" fill="none" stroke="#000" stroke-width="18.58"/>
	<path d="M2603.84 3497.05c0-11.988-9.508-21.909-21.496-21.909-11.988 0-21.496 9.921-21.496 21.909 0 11.988 9.508 21.909 21.496 21.909 11.988 0 21.496-9.921 21.496-21.909M2603.84 3600.38c0-11.988-9.508-21.909-21.496-21.909-11.988 0-21.496 9.921-21.496 21.909 0 11.989 9.508 21.91 21.496 21.91 11.988 0 21.496-9.921 21.496-21.91" fill-rule="nonzero"/>
	<path d="M3280.86 3336.34l0 424.75M5550.95 3336.34l0 424.75M7480.07 3336.34l0 424.75M3122.74 4886.55l0 424.75M5130.91 4886.55l0 424.75M7480.07 4886.55l0 424.75M3002.37 6436.76l0 424.75M5572.12 6436.76l0 424.75" fill="none" stroke="#000" stroke-width="18.58"/>
	<path d="M7337.61 6597.42c0-11.988-9.508-21.909-21.496-21.909-11.989 0-21.497 9.921-21.497 21.909 0 11.988 9.508 21.909 21.497 21.909 11.988 0 21.496-9.921 21.496-21.909M7337.61 6700.8c0-11.988-9.508-21.909-21.496-21.909-11.989 0-21.497 9.921-21.497 21.909 0 11.988 9.508 21.909 21.497 21.909 11.988 0 21.496-9.921 21.496-21.909" fill-rule="nonzero"/>
	<path d="M7388.45,6436.76l-0,424.75" fill="none" stroke="#000" stroke-width="18.58"/>
	<path d="M7460.78,6436.76l0,424.75" fill="none" stroke="#000" stroke-width="56.83"/>
	<path d="M1274.56 693.466l0-348.484M2008.48 641.791l0-370.692M2396.25 538.445l0-267.346M2638.6 538.445l0-267.346M2880.96 538.445l0-267.346M3268.73 538.445l0-267.346M3809.45 538.445l0-400.158M4062.03 435.099l0-296.812M4314.57 486.774l0-348.487M4567.16 538.445l0-400.158M4819.74 641.791l0-296.809M5223.82 538.445l0-193.463M5780.91 435.099l0-262.512M6175.53 435.099l0-262.512M6570.16 486.774l0-309.204M6816.78 435.099l0-257.529M7063.45 486.774l0-309.204M7310.07 538.445l0-360.875M1045.87 2191.99l0-380.517M1269.33 2088.64l0-277.167M1492.79 2140.32l0-328.842M1716.25 2088.64l0-277.167M1939.71 2243.66l0-244.08M2297.25 2191.99l0-241.513M2807.74 2088.64l0-267.346M3148.27 2088.64l0-267.346M3488.83 2088.64l0-360.871M3701.66 1985.3l0-257.525M3914.49 2036.97l0-309.2M4127.32 2088.64l0-360.871M4569.62 2191.99l0-237.888M4886.57 2088.64l0-223.625M5203.57 2088.64l0-218.242M5520.57 2036.97l0-231.946M5990.49 1985.3l0-247.704M6331.03 1985.3l0-247.704M6671.57 2036.97l0-299.379M6884.41 1985.3l0-247.704M7097.24 2036.97l0-299.379M7310.07 2088.64l0-351.05M1045.87 3742.17l0-374.292M1497.23 3638.84l0-270.959M1948.6 3638.84l0-270.959M2744.06 3459.26l0 347.834M3430.2 3304.26l0 233.584M3900.66 3459.26l0 186.625M4371.16 3407.59l0 269.25M4665.2 3355.92l0 320.917M4959.24 3407.59l0 269.25M5253.28 3459.26l0 217.584M5700.28 3562.59l0 217.583M6144.32 3459.26l0 320.917M6588.37 3459.26l0 320.917M7032.41 3304.26l0 475.917M1045.87 5085.67l0-267.333M1533.92 5085.67l0-267.333M2021.96 5137.38l0-309.208M2326.99 5085.67l0-257.5M2632.02 5137.38l0-309.208M2937.05 5189.05l0-360.875M3395.03 5292.38l0-473M3858.83 5189.05l0-369.667M4322.66 5189.05l0-369.667M4786.45 4982.34l0-162.959M5280.24 4854.42l0 238.667M5768.28 5009.47l0 222.5M6256.32 4957.8l0 269.25M6561.37 4906.13l0 320.917M6866.41 4957.8l0 269.25M7171.41 5009.47l0 217.583M922.921 6663.01l0 296.167M1441.88 6559.67l0 399.5M1960.83 6559.67l0 399.5M2479.79 6404.63l0 554.542M3151.7 6663.01l0 227.417M3688.78 6663.01l0 227.417M4348.78 6687.55l0-309.208M4684.45 6635.88l0-257.541M5020.12 6687.55l0-309.208M5355.78 6739.22l0-360.875M5844.41 6842.59l0-374.334M6370.7 6739.22l0-270.959M6896.95 6739.22l0-270.959" fill="none" stroke="#000" stroke-width="11.38"/>
	<path d="M1276.14 673.211c-7.441-13.642-23.149-21.083-42.165-21.083-14.055 0-29.35 4.134-44.232 11.988-27.284 14.469-43.819 38.858-43.819 59.941 0 5.787 1.24 11.575 4.134 16.949 7.441 13.642 23.149 20.669 42.165 20.669 14.055 0 29.35-3.72 44.232-11.575 27.284-14.468 43.819-38.858 43.819-59.941 0-5.787-1.24-11.574-4.134-16.948M2010.06 621.536c-7.441-13.642-23.149-21.083-42.165-21.083-14.055 0-29.351 4.134-44.232 11.988-27.284 14.469-43.819 38.858-43.819 59.941 0 5.787 1.24 11.575 4.133 16.949 7.441 13.642 23.15 20.669 42.166 20.669 14.055 0 29.35-3.72 44.232-11.575 27.284-14.468 43.819-38.858 43.819-59.941 0-5.787-1.24-11.574-4.134-16.948M2397.83 518.19c-7.441-13.642-23.15-21.083-42.166-21.083-14.055 0-29.35 4.134-44.232 11.988-27.283 14.469-43.819 38.859-43.819 59.941 0 5.788 1.24 11.575 4.134 16.949 7.441 13.642 23.15 20.669 42.166 20.669 14.055 0 29.35-3.72 44.232-11.574 27.283-14.469 43.819-38.859 43.819-59.941 0-5.788-1.24-11.575-4.134-16.949M2640.19 518.19c-7.441-13.642-23.149-21.083-42.165-21.083-14.055 0-29.351 4.134-44.232 11.988-27.284 14.469-43.819 38.859-43.819 59.941 0 5.788 1.24 11.575 4.133 16.949 7.441 13.642 23.15 20.669 42.166 20.669 14.055 0 29.35-3.72 44.232-11.574 27.284-14.469 43.819-38.859 43.819-59.941 0-5.788-1.24-11.575-4.134-16.949M2882.54 518.19c-7.441-13.642-23.149-21.083-42.165-21.083-14.055 0-29.35 4.134-44.232 11.988-27.284 14.469-43.819 38.859-43.819 59.941 0 5.788 1.24 11.575 4.134 16.949 7.441 13.642 23.149 20.669 42.165 20.669 14.055 0 29.35-3.72 44.232-11.574 27.284-14.469 43.819-38.859 43.819-59.941 0-5.788-1.24-11.575-4.134-16.949M3270.31 518.19c-7.441-13.642-23.15-21.083-42.165-21.083-14.055 0-29.351 4.134-44.233 11.988-27.283 14.469-43.819 38.859-43.819 59.941 0 5.788 1.241 11.575 4.134 16.949 7.441 13.642 23.15 20.669 42.166 20.669 14.055 0 29.35-3.72 44.232-11.574 27.283-14.469 43.819-38.859 43.819-59.941 0-5.788-1.24-11.575-4.134-16.949M3811.04 518.19c-7.441-13.642-23.149-21.083-42.165-21.083-14.055 0-29.35 4.134-44.232 11.988-27.284 14.469-43.819 38.859-43.819 59.941 0 5.788 1.24 11.575 4.134 16.949 7.441 13.642 23.149 20.669 42.165 20.669 14.055 0 29.35-3.72 44.232-11.574 27.284-14.469 43.819-38.859 43.819-59.941 0-5.788-1.24-11.575-4.134-16.949M4063.58 414.844c-7.441-13.642-23.15-21.083-42.165-21.083-14.055 0-29.351 4.134-44.233 11.988-27.283 14.469-43.819 38.859-43.819 59.941 0 5.788 1.241 11.575 4.134 16.949 7.441 13.642 23.15 20.669 42.166 20.669 14.055 0 29.35-3.72 44.232-11.574 27.283-14.469 43.819-38.859 43.819-59.941 0-5.788-1.24-11.575-4.134-16.949M4316.17 466.515c-7.441-13.642-23.149-21.083-42.165-21.083-14.055 0-29.35 4.134-44.232 11.988-27.284 14.469-43.819 38.859-43.819 59.941 0 5.788 1.24 11.575 4.134 16.949 7.441 13.642 23.149 20.669 42.165 20.669 14.055 0 29.35-3.72 44.232-11.574 27.284-14.469 43.819-38.859 43.819-59.941 0-5.788-1.24-11.575-4.134-16.949M4568.75 518.19c-7.441-13.642-23.15-21.083-42.166-21.083-14.055 0-29.35 4.134-44.232 11.988-27.283 14.469-43.819 38.859-43.819 59.941 0 5.788 1.24 11.575 4.134 16.949 7.441 13.642 23.15 20.669 42.165 20.669 14.055 0 29.351-3.72 44.233-11.574 27.283-14.469 43.819-38.859 43.819-59.941 0-5.788-1.241-11.575-4.134-16.949M4821.29 621.536c-7.441-13.642-23.149-21.083-42.165-21.083-14.055 0-29.35 4.134-44.232 11.988-27.284 14.469-43.819 38.858-43.819 59.941 0 5.787 1.24 11.575 4.134 16.949 7.441 13.642 23.149 20.669 42.165 20.669 14.055 0 29.35-3.72 44.232-11.575 27.284-14.468 43.819-38.858 43.819-59.941 0-5.787-1.24-11.574-4.134-16.948M5225.42 518.19c-7.441-13.642-23.149-21.083-42.165-21.083-14.055 0-29.35 4.134-44.232 11.988-27.284 14.469-43.819 38.859-43.819 59.941 0 5.788 1.24 11.575 4.134 16.949 7.441 13.642 23.149 20.669 42.165 20.669 14.055 0 29.35-3.72 44.232-11.574 27.284-14.469 43.819-38.859 43.819-59.941 0-5.788-1.24-11.575-4.134-16.949M5782.5 414.844c-7.441-13.642-23.15-21.083-42.166-21.083-14.055 0-29.35 4.134-44.232 11.988-27.283 14.469-43.819 38.859-43.819 59.941 0 5.788 1.24 11.575 4.134 16.949 7.441 13.642 23.15 20.669 42.165 20.669 14.055 0 29.351-3.72 44.233-11.574 27.283-14.469 43.819-38.859 43.819-59.941 0-5.788-1.241-11.575-4.134-16.949M6177.12 414.844c-7.441-13.642-23.15-21.083-42.166-21.083-14.055 0-29.35 4.134-44.232 11.988-27.283 14.469-43.819 38.859-43.819 59.941 0 5.788 1.24 11.575 4.134 16.949 7.441 13.642 23.15 20.669 42.165 20.669 14.055 0 29.351-3.72 44.233-11.574 27.283-14.469 43.819-38.859 43.819-59.941 0-5.788-1.241-11.575-4.134-16.949M6571.75 466.515c-7.441-13.642-23.15-21.083-42.166-21.083-14.055 0-29.35 4.134-44.232 11.988-27.283 14.469-43.819 38.859-43.819 59.941 0 5.788 1.24 11.575 4.134 16.949 7.441 13.642 23.15 20.669 42.165 20.669 14.055 0 29.351-3.72 44.233-11.574 27.283-14.469 43.819-38.859 43.819-59.941 0-5.788-1.241-11.575-4.134-16.949M6818.38 414.844c-7.441-13.642-23.15-21.083-42.166-21.083-14.055 0-29.35 4.134-44.232 11.988-27.283 14.469-43.819 38.859-43.819 59.941 0 5.788 1.24 11.575 4.134 16.949 7.441 13.642 23.15 20.669 42.165 20.669 14.055 0 29.351-3.72 44.233-11.574 27.283-14.469 43.819-38.859 43.819-59.941 0-5.788-1.241-11.575-4.134-16.949M7065 466.515c-7.441-13.642-23.15-21.083-42.166-21.083-14.055 0-29.35 4.134-44.232 11.988-27.283 14.469-43.819 38.859-43.819 59.941 0 5.788 1.24 11.575 4.134 16.949 7.441 13.642 23.15 20.669 42.165 20.669 14.055 0 29.351-3.72 44.233-11.574 27.283-14.469 43.819-38.859 43.819-59.941 0-5.788-1.241-11.575-4.134-16.949M7311.67 518.19c-7.441-13.642-23.149-21.083-42.165-21.083-14.055 0-29.35 4.134-44.232 11.988-27.284 14.469-43.819 38.859-43.819 59.941 0 5.788 1.24 11.575 4.134 16.949 7.441 13.642 23.149 20.669 42.165 20.669 14.055 0 29.35-3.72 44.232-11.574 27.284-14.469 43.819-38.859 43.819-59.941 0-5.788-1.24-11.575-4.134-16.949M1047.45 2171.73c-7.441-13.641-23.15-21.082-42.166-21.082-14.055 0-29.35 4.134-44.232 11.988-27.283 14.468-43.819 38.858-43.819 59.941 0 5.787 1.24 11.575 4.134 16.949 7.441 13.641 23.15 20.669 42.166 20.669 14.055 0 29.35-3.72 44.232-11.575 27.283-14.468 43.819-38.858 43.819-59.941 0-5.787-1.24-11.575-4.134-16.949M1270.91 2068.39c-7.441-13.642-23.149-21.083-42.165-21.083-14.055 0-29.351 4.134-44.232 11.988-27.284 14.469-43.819 38.858-43.819 59.941 0 5.787 1.24 11.575 4.133 16.949 7.441 13.642 23.15 20.669 42.166 20.669 14.055 0 29.35-3.72 44.232-11.575 27.284-14.468 43.819-38.858 43.819-59.941 0-5.787-1.24-11.574-4.134-16.948M1494.38 2120.06c-7.441-13.642-23.15-21.083-42.166-21.083-14.055 0-29.35 4.134-44.232 11.988-27.283 14.469-43.819 38.858-43.819 59.941 0 5.787 1.24 11.575 4.134 16.949 7.441 13.642 23.15 20.669 42.165 20.669 14.055 0 29.351-3.72 44.233-11.575 27.283-14.468 43.819-38.858 43.819-59.941 0-5.787-1.241-11.574-4.134-16.948M1717.83 2068.39c-7.441-13.642-23.15-21.083-42.165-21.083-14.055 0-29.351 4.134-44.233 11.988-27.283 14.469-43.819 38.858-43.819 59.941 0 5.787 1.241 11.575 4.134 16.949 7.441 13.642 23.15 20.669 42.166 20.669 14.055 0 29.35-3.72 44.232-11.575 27.283-14.468 43.819-38.858 43.819-59.941 0-5.787-1.24-11.574-4.134-16.948M1941.3 2223.41c-7.44-13.641-23.149-21.082-42.165-21.082-14.055 0-29.35 4.134-44.232 11.988-27.284 14.468-43.819 38.858-43.819 59.941 0 5.787 1.24 11.575 4.134 16.949 7.441 13.641 23.149 20.669 42.165 20.669 14.055 0 29.351-3.72 44.232-11.575 27.284-14.468 43.819-38.858 43.819-59.941 0-5.787-1.24-11.575-4.134-16.949M2298.83 2171.73c-7.441-13.641-23.15-21.082-42.166-21.082-14.055 0-29.35 4.134-44.232 11.988-27.283 14.468-43.819 38.858-43.819 59.941 0 5.787 1.24 11.575 4.134 16.949 7.441 13.641 23.15 20.669 42.166 20.669 14.055 0 29.35-3.72 44.232-11.575 27.283-14.468 43.819-38.858 43.819-59.941 0-5.787-1.24-11.575-4.134-16.949M2809.32 2068.39c-7.44-13.642-23.149-21.083-42.165-21.083-14.055 0-29.35 4.134-44.232 11.988-27.284 14.469-43.819 38.858-43.819 59.941 0 5.787 1.24 11.575 4.134 16.949 7.441 13.642 23.149 20.669 42.165 20.669 14.055 0 29.351-3.72 44.232-11.575 27.284-14.468 43.819-38.858 43.819-59.941 0-5.787-1.24-11.574-4.134-16.948M3149.85 2068.39c-7.441-13.642-23.15-21.083-42.166-21.083-14.055 0-29.35 4.134-44.232 11.988-27.283 14.469-43.819 38.858-43.819 59.941 0 5.787 1.24 11.575 4.134 16.949 7.441 13.642 23.15 20.669 42.166 20.669 14.055 0 29.35-3.72 44.232-11.575 27.283-14.468 43.819-38.858 43.819-59.941 0-5.787-1.24-11.574-4.134-16.948M3490.39 2068.39c-7.441-13.642-23.149-21.083-42.165-21.083-14.055 0-29.351 4.134-44.232 11.988-27.284 14.469-43.819 38.858-43.819 59.941 0 5.787 1.24 11.575 4.133 16.949 7.441 13.642 23.15 20.669 42.166 20.669 14.055 0 29.35-3.72 44.232-11.575 27.284-14.468 43.819-38.858 43.819-59.941 0-5.787-1.24-11.574-4.134-16.948M3703.21 1965.04c-7.441-13.642-23.15-21.083-42.165-21.083-14.055 0-29.351 4.134-44.233 11.988-27.283 14.469-43.819 38.859-43.819 59.941 0 5.788 1.241 11.575 4.134 16.949 7.441 13.642 23.15 20.669 42.166 20.669 14.055 0 29.35-3.72 44.232-11.574 27.283-14.469 43.819-38.859 43.819-59.941 0-5.788-1.24-11.575-4.134-16.949M3916.04 2016.72c-7.441-13.642-23.149-21.083-42.165-21.083-14.055 0-29.35 4.134-44.232 11.988-27.284 14.469-43.819 38.859-43.819 59.941 0 5.788 1.24 11.575 4.134 16.949 7.441 13.642 23.149 20.669 42.165 20.669 14.055 0 29.35-3.72 44.232-11.574 27.284-14.469 43.819-38.859 43.819-59.941 0-5.788-1.24-11.575-4.134-16.949M4128.88 2068.39c-7.441-13.642-23.15-21.083-42.166-21.083-14.055 0-29.35 4.134-44.232 11.988-27.283 14.469-43.819 38.858-43.819 59.941 0 5.787 1.24 11.575 4.134 16.949 7.441 13.642 23.15 20.669 42.165 20.669 14.055 0 29.351-3.72 44.233-11.575 27.283-14.468 43.819-38.858 43.819-59.941 0-5.787-1.241-11.574-4.134-16.948M4571.17 2171.73c-7.441-13.641-23.149-21.082-42.165-21.082-14.055 0-29.35 4.134-44.232 11.988-27.284 14.468-43.819 38.858-43.819 59.941 0 5.787 1.24 11.575 4.134 16.949 7.441 13.641 23.149 20.669 42.165 20.669 14.055 0 29.35-3.72 44.232-11.575 27.284-14.468 43.819-38.858 43.819-59.941 0-5.787-1.24-11.575-4.134-16.949M4888.17 2068.39c-7.441-13.642-23.149-21.083-42.165-21.083-14.055 0-29.35 4.134-44.232 11.988-27.284 14.469-43.819 38.858-43.819 59.941 0 5.787 1.24 11.575 4.134 16.949 7.441 13.642 23.149 20.669 42.165 20.669 14.055 0 29.35-3.72 44.232-11.575 27.284-14.468 43.819-38.858 43.819-59.941 0-5.787-1.24-11.574-4.134-16.948M5205.17 2068.39c-7.441-13.642-23.149-21.083-42.165-21.083-14.055 0-29.35 4.134-44.232 11.988-27.284 14.469-43.819 38.858-43.819 59.941 0 5.787 1.24 11.575 4.134 16.949 7.441 13.642 23.149 20.669 42.165 20.669 14.055 0 29.35-3.72 44.232-11.575 27.284-14.468 43.819-38.858 43.819-59.941 0-5.787-1.24-11.574-4.134-16.948M5522.12 2016.72c-7.441-13.642-23.15-21.083-42.166-21.083-14.055 0-29.35 4.134-44.232 11.988-27.283 14.469-43.819 38.859-43.819 59.941 0 5.788 1.24 11.575 4.134 16.949 7.441 13.642 23.15 20.669 42.165 20.669 14.055 0 29.351-3.72 44.233-11.574 27.283-14.469 43.819-38.859 43.819-59.941 0-5.788-1.241-11.575-4.134-16.949M5992.08 1965.04c-7.441-13.642-23.15-21.083-42.165-21.083-14.055 0-29.351 4.134-44.233 11.988-27.283 14.469-43.819 38.859-43.819 59.941 0 5.788 1.241 11.575 4.134 16.949 7.441 13.642 23.15 20.669 42.166 20.669 14.055 0 29.35-3.72 44.232-11.574 27.283-14.469 43.819-38.859 43.819-59.941 0-5.788-1.24-11.575-4.134-16.949M6332.62 1965.04c-7.441-13.642-23.15-21.083-42.166-21.083-14.055 0-29.35 4.134-44.232 11.988-27.283 14.469-43.819 38.859-43.819 59.941 0 5.788 1.24 11.575 4.134 16.949 7.441 13.642 23.15 20.669 42.165 20.669 14.055 0 29.351-3.72 44.233-11.574 27.283-14.469 43.819-38.859 43.819-59.941 0-5.788-1.241-11.575-4.134-16.949M6673.17 2016.72c-7.441-13.642-23.149-21.083-42.165-21.083-14.055 0-29.35 4.134-44.232 11.988-27.284 14.469-43.819 38.859-43.819 59.941 0 5.788 1.24 11.575 4.134 16.949 7.441 13.642 23.149 20.669 42.165 20.669 14.055 0 29.35-3.72 44.232-11.574 27.284-14.469 43.819-38.859 43.819-59.941 0-5.788-1.24-11.575-4.134-16.949M6886 1965.04c-7.441-13.642-23.15-21.083-42.166-21.083-14.055 0-29.35 4.134-44.232 11.988-27.283 14.469-43.819 38.859-43.819 59.941 0 5.788 1.24 11.575 4.134 16.949 7.441 13.642 23.15 20.669 42.165 20.669 14.055 0 29.351-3.72 44.233-11.574 27.283-14.469 43.819-38.859 43.819-59.941 0-5.788-1.241-11.575-4.134-16.949M7098.83 2016.72c-7.441-13.642-23.15-21.083-42.165-21.083-14.055 0-29.351 4.134-44.233 11.988-27.283 14.469-43.819 38.859-43.819 59.941 0 5.788 1.241 11.575 4.134 16.949 7.441 13.642 23.15 20.669 42.166 20.669 14.055 0 29.35-3.72 44.232-11.574 27.283-14.469 43.819-38.859 43.819-59.941 0-5.788-1.24-11.575-4.134-16.949M7311.67 2068.39c-7.441-13.642-23.149-21.083-42.165-21.083-14.055 0-29.35 4.134-44.232 11.988-27.284 14.469-43.819 38.858-43.819 59.941 0 5.787 1.24 11.575 4.134 16.949 7.441 13.642 23.149 20.669 42.165 20.669 14.055 0 29.35-3.72 44.232-11.575 27.284-14.468 43.819-38.858 43.819-59.941 0-5.787-1.24-11.574-4.134-16.948M1047.45 3721.94c-7.441-13.642-23.15-21.083-42.166-21.083-14.055 0-29.35 4.134-44.232 11.988-27.283 14.469-43.819 38.859-43.819 59.941 0 5.788 1.24 11.575 4.134 16.949 7.441 13.642 23.15 20.669 42.166 20.669 14.055 0 29.35-3.72 44.232-11.574 27.283-14.469 43.819-38.859 43.819-59.941 0-5.788-1.24-11.575-4.134-16.949M1498.82 3618.57c-7.441-13.642-23.149-21.083-42.165-21.083-14.055 0-29.35 4.134-44.232 11.988-27.284 14.469-43.819 38.859-43.819 59.941 0 5.788 1.24 11.575 4.134 16.949 7.441 13.642 23.149 20.669 42.165 20.669 14.055 0 29.35-3.72 44.232-11.574 27.284-14.469 43.819-38.859 43.819-59.941 0-5.788-1.24-11.575-4.134-16.949M1950.18 3618.57c-7.441-13.642-23.15-21.083-42.166-21.083-14.055 0-29.35 4.134-44.232 11.988-27.283 14.469-43.819 38.859-43.819 59.941 0 5.788 1.24 11.575 4.134 16.949 7.441 13.642 23.15 20.669 42.166 20.669 14.055 0 29.35-3.72 44.232-11.574 27.283-14.469 43.819-38.859 43.819-59.941 0-5.788-1.24-11.575-4.134-16.949M2868.59 3411.9c-7.441-13.642-23.149-21.083-42.165-21.083-14.055 0-29.35 4.134-44.232 11.989-27.284 14.468-43.819 38.858-43.819 59.941 0 5.787 1.24 11.574 4.134 16.948 7.441 13.642 23.149 20.67 42.165 20.67 14.055 0 29.35-3.721 44.232-11.575 27.284-14.469 43.819-38.858 43.819-59.941 0-5.787-1.24-11.575-4.134-16.949M3554.71 3256.86c-7.441-13.641-23.15-21.082-42.165-21.082-14.055 0-29.351 4.134-44.233 11.988-27.283 14.468-43.819 38.858-43.819 59.941 0 5.787 1.241 11.575 4.134 16.949 7.441 13.641 23.15 20.669 42.166 20.669 14.055 0 29.35-3.72 44.232-11.575 27.283-14.468 43.819-38.858 43.819-59.941 0-5.787-1.24-11.575-4.134-16.949M4025.21 3411.9c-7.441-13.642-23.15-21.083-42.165-21.083-14.055 0-29.351 4.134-44.233 11.989-27.283 14.468-43.819 38.858-43.819 59.941 0 5.787 1.241 11.574 4.134 16.948 7.441 13.642 23.15 20.67 42.166 20.67 14.055 0 29.35-3.721 44.232-11.575 27.283-14.469 43.819-38.858 43.819-59.941 0-5.787-1.24-11.575-4.134-16.949M4495.67 3360.23c-7.441-13.641-23.149-21.082-42.165-21.082-14.055 0-29.35 4.134-44.232 11.988-27.284 14.468-43.819 38.858-43.819 59.941 0 5.787 1.24 11.575 4.134 16.949 7.441 13.641 23.149 20.669 42.165 20.669 14.055 0 29.35-3.72 44.232-11.575 27.284-14.468 43.819-38.858 43.819-59.941 0-5.787-1.24-11.575-4.134-16.949M4789.71 3308.52c-7.441-13.642-23.15-21.083-42.165-21.083-14.055 0-29.351 4.134-44.233 11.989-27.283 14.468-43.819 38.858-43.819 59.941 0 5.787 1.241 11.574 4.134 16.948 7.441 13.642 23.15 20.67 42.166 20.67 14.055 0 29.35-3.721 44.232-11.575 27.283-14.469 43.819-38.858 43.819-59.941 0-5.787-1.24-11.575-4.134-16.949M5083.79 3360.23c-7.441-13.641-23.149-21.082-42.165-21.082-14.055 0-29.35 4.134-44.232 11.988-27.284 14.468-43.819 38.858-43.819 59.941 0 5.787 1.24 11.575 4.134 16.949 7.441 13.641 23.149 20.669 42.165 20.669 14.055 0 29.35-3.72 44.232-11.575 27.284-14.468 43.819-38.858 43.819-59.941 0-5.787-1.24-11.575-4.134-16.949M5377.83 3411.9c-7.441-13.642-23.15-21.083-42.165-21.083-14.055 0-29.351 4.134-44.233 11.989-27.283 14.468-43.819 38.858-43.819 59.941 0 5.787 1.241 11.574 4.134 16.948 7.441 13.642 23.15 20.67 42.166 20.67 14.055 0 29.35-3.721 44.232-11.575 27.283-14.469 43.819-38.858 43.819-59.941 0-5.787-1.24-11.575-4.134-16.949M5824.83 3515.23c-7.441-13.641-23.15-21.082-42.165-21.082-14.055 0-29.351 4.134-44.233 11.988-27.283 14.468-43.819 38.858-43.819 59.941 0 5.787 1.241 11.575 4.134 16.949 7.441 13.641 23.15 20.669 42.166 20.669 14.055 0 29.35-3.72 44.232-11.575 27.283-14.468 43.819-38.858 43.819-59.941 0-5.787-1.24-11.575-4.134-16.949M6268.88 3411.9c-7.441-13.642-23.15-21.083-42.166-21.083-14.055 0-29.35 4.134-44.232 11.989-27.283 14.468-43.819 38.858-43.819 59.941 0 5.787 1.24 11.574 4.134 16.948 7.441 13.642 23.15 20.67 42.165 20.67 14.055 0 29.351-3.721 44.233-11.575 27.283-14.469 43.819-38.858 43.819-59.941 0-5.787-1.241-11.575-4.134-16.949M6712.92 3411.9c-7.441-13.642-23.149-21.083-42.165-21.083-14.055 0-29.35 4.134-44.232 11.989-27.284 14.468-43.819 38.858-43.819 59.941 0 5.787 1.24 11.574 4.134 16.948 7.441 13.642 23.149 20.67 42.165 20.67 14.055 0 29.35-3.721 44.232-11.575 27.284-14.469 43.819-38.858 43.819-59.941 0-5.787-1.24-11.575-4.134-16.949M7156.96 3256.86c-7.441-13.641-23.15-21.082-42.165-21.082-14.055 0-29.351 4.134-44.233 11.988-27.283 14.468-43.819 38.858-43.819 59.941 0 5.787 1.241 11.575 4.134 16.949 7.441 13.641 23.15 20.669 42.166 20.669 14.055 0 29.35-3.72 44.232-11.575 27.283-14.468 43.819-38.858 43.819-59.941 0-5.787-1.24-11.575-4.134-16.949M1047.45 5065.44c-7.441-13.642-23.15-21.083-42.166-21.083-14.055 0-29.35 4.134-44.232 11.988-27.283 14.469-43.819 38.859-43.819 59.941 0 5.788 1.24 11.575 4.134 16.949 7.441 13.642 23.15 20.669 42.166 20.669 14.055 0 29.35-3.72 44.232-11.574 27.283-14.469 43.819-38.859 43.819-59.941 0-5.788-1.24-11.575-4.134-16.949M1535.5 5065.44c-7.441-13.642-23.15-21.083-42.166-21.083-14.055 0-29.35 4.134-44.232 11.988-27.283 14.469-43.819 38.859-43.819 59.941 0 5.788 1.24 11.575 4.134 16.949 7.441 13.642 23.15 20.669 42.165 20.669 14.055 0 29.351-3.72 44.233-11.574 27.283-14.469 43.819-38.859 43.819-59.941 0-5.788-1.241-11.575-4.134-16.949M2023.54 5117.11c-7.441-13.641-23.149-21.082-42.165-21.082-14.055 0-29.35 4.134-44.232 11.988-27.284 14.468-43.819 38.858-43.819 59.941 0 5.787 1.24 11.575 4.134 16.949 7.441 13.641 23.149 20.669 42.165 20.669 14.055 0 29.35-3.72 44.232-11.575 27.284-14.468 43.819-38.858 43.819-59.941 0-5.787-1.24-11.575-4.134-16.949M2328.57 5065.44c-7.44-13.642-23.149-21.083-42.165-21.083-14.055 0-29.35 4.134-44.232 11.988-27.284 14.469-43.819 38.859-43.819 59.941 0 5.788 1.24 11.575 4.134 16.949 7.441 13.642 23.149 20.669 42.165 20.669 14.055 0 29.351-3.72 44.232-11.574 27.284-14.469 43.819-38.859 43.819-59.941 0-5.788-1.24-11.575-4.134-16.949M2633.6 5117.11c-7.441-13.641-23.15-21.082-42.166-21.082-14.055 0-29.35 4.134-44.232 11.988-27.283 14.468-43.819 38.858-43.819 59.941 0 5.787 1.24 11.575 4.134 16.949 7.441 13.641 23.15 20.669 42.165 20.669 14.055 0 29.351-3.72 44.233-11.575 27.283-14.468 43.819-38.858 43.819-59.941 0-5.787-1.241-11.575-4.134-16.949M2938.62 5168.77c-7.441-13.642-23.15-21.083-42.166-21.083-14.055 0-29.35 4.134-44.232 11.989-27.283 14.468-43.819 38.858-43.819 59.941 0 5.787 1.24 11.574 4.134 16.948 7.441 13.642 23.15 20.67 42.165 20.67 14.055 0 29.351-3.721 44.233-11.575 27.283-14.469 43.819-38.858 43.819-59.941 0-5.787-1.241-11.575-4.134-16.949M3396.61 5272.11c-7.441-13.641-23.15-21.082-42.165-21.082-14.055 0-29.351 4.134-44.233 11.988-27.283 14.468-43.819 38.858-43.819 59.941 0 5.787 1.241 11.575 4.134 16.949 7.441 13.641 23.15 20.669 42.166 20.669 14.055 0 29.35-3.72 44.232-11.575 27.283-14.468 43.819-38.858 43.819-59.941 0-5.787-1.24-11.575-4.134-16.949M3860.42 5168.77c-7.441-13.642-23.149-21.083-42.165-21.083-14.055 0-29.35 4.134-44.232 11.989-27.284 14.468-43.819 38.858-43.819 59.941 0 5.787 1.24 11.574 4.134 16.948 7.441 13.642 23.149 20.67 42.165 20.67 14.055 0 29.35-3.721 44.232-11.575 27.284-14.469 43.819-38.858 43.819-59.941 0-5.787-1.24-11.575-4.134-16.949M4324.21 5168.77c-7.441-13.642-23.15-21.083-42.165-21.083-14.055 0-29.351 4.134-44.233 11.989-27.283 14.468-43.819 38.858-43.819 59.941 0 5.787 1.241 11.574 4.134 16.948 7.441 13.642 23.15 20.67 42.166 20.67 14.055 0 29.35-3.721 44.232-11.575 27.283-14.469 43.819-38.858 43.819-59.941 0-5.787-1.24-11.575-4.134-16.949M4788.04 4962.11c-7.441-13.641-23.149-21.082-42.165-21.082-14.055 0-29.35 4.134-44.232 11.988-27.284 14.468-43.819 38.858-43.819 59.941 0 5.787 1.24 11.575 4.134 16.949 7.441 13.641 23.149 20.669 42.165 20.669 14.055 0 29.35-3.72 44.232-11.575 27.284-14.468 43.819-38.858 43.819-59.941 0-5.787-1.24-11.575-4.134-16.949M5404.79 4807.07c-7.441-13.642-23.149-21.083-42.165-21.083-14.055 0-29.35 4.134-44.232 11.988-27.284 14.469-43.819 38.859-43.819 59.941 0 5.788 1.24 11.575 4.134 16.949 7.441 13.642 23.149 20.669 42.165 20.669 14.055 0 29.35-3.72 44.232-11.574 27.284-14.469 43.819-38.859 43.819-59.941 0-5.788-1.24-11.575-4.134-16.949M5892.83 4962.11c-7.441-13.641-23.15-21.082-42.165-21.082-14.055 0-29.351 4.134-44.233 11.988-27.283 14.468-43.819 38.858-43.819 59.941 0 5.787 1.241 11.575 4.134 16.949 7.441 13.641 23.15 20.669 42.166 20.669 14.055 0 29.35-3.72 44.232-11.575 27.283-14.468 43.819-38.858 43.819-59.941 0-5.787-1.24-11.575-4.134-16.949M6380.88 4910.4c-7.441-13.642-23.15-21.083-42.166-21.083-14.055 0-29.35 4.134-44.232 11.989-27.283 14.468-43.819 38.858-43.819 59.941 0 5.787 1.24 11.574 4.134 16.948 7.441 13.642 23.15 20.67 42.165 20.67 14.055 0 29.351-3.721 44.233-11.575 27.283-14.469 43.819-38.858 43.819-59.941 0-5.787-1.241-11.575-4.134-16.949M6685.92 4858.73c-7.441-13.641-23.149-21.082-42.165-21.082-14.055 0-29.35 4.134-44.232 11.988-27.284 14.468-43.819 38.858-43.819 59.941 0 5.787 1.24 11.575 4.134 16.949 7.441 13.641 23.149 20.669 42.165 20.669 14.055 0 29.35-3.72 44.232-11.575 27.284-14.468 43.819-38.858 43.819-59.941 0-5.787-1.24-11.575-4.134-16.949M6990.92 4910.4c-7.441-13.642-23.149-21.083-42.165-21.083-14.055 0-29.35 4.134-44.232 11.989-27.284 14.468-43.819 38.858-43.819 59.941 0 5.787 1.24 11.574 4.134 16.948 7.441 13.642 23.149 20.67 42.165 20.67 14.055 0 29.35-3.721 44.232-11.575 27.284-14.469 43.819-38.858 43.819-59.941 0-5.787-1.24-11.575-4.134-16.949M7295.96 4962.11c-7.441-13.641-23.15-21.082-42.165-21.082-14.055 0-29.351 4.134-44.233 11.988-27.283 14.468-43.819 38.858-43.819 59.941 0 5.787 1.241 11.575 4.134 16.949 7.441 13.641 23.15 20.669 42.166 20.669 14.055 0 29.35-3.72 44.232-11.575 27.283-14.468 43.819-38.858 43.819-59.941 0-5.787-1.24-11.575-4.134-16.949M1047.45 6615.65c-7.441-13.642-23.15-21.083-42.166-21.083-14.055 0-29.35 4.134-44.232 11.989-27.283 14.468-43.819 38.858-43.819 59.941 0 5.787 1.24 11.574 4.134 16.948 7.441 13.642 23.15 20.67 42.166 20.67 14.055 0 29.35-3.721 44.232-11.575 27.283-14.469 43.819-38.858 43.819-59.941 0-5.787-1.24-11.575-4.134-16.949M1566.41 6512.27c-7.441-13.642-23.149-21.083-42.165-21.083-14.055 0-29.351 4.134-44.232 11.989-27.284 14.468-43.819 38.858-43.819 59.941 0 5.787 1.24 11.574 4.133 16.948 7.441 13.642 23.15 20.67 42.166 20.67 14.055 0 29.35-3.721 44.232-11.575 27.284-14.469 43.819-38.858 43.819-59.941 0-5.787-1.24-11.575-4.134-16.949M2085.37 6512.27c-7.441-13.642-23.149-21.083-42.165-21.083-14.055 0-29.35 4.134-44.232 11.989-27.284 14.468-43.819 38.858-43.819 59.941 0 5.787 1.24 11.574 4.134 16.948 7.441 13.642 23.149 20.67 42.165 20.67 14.055 0 29.35-3.721 44.232-11.575 27.284-14.469 43.819-38.858 43.819-59.941 0-5.787-1.24-11.575-4.134-16.949M2604.33 6357.27c-7.441-13.642-23.15-21.083-42.166-21.083-14.055 0-29.35 4.134-44.232 11.989-27.283 14.468-43.819 38.858-43.819 59.941 0 5.787 1.24 11.574 4.134 16.948 7.441 13.642 23.15 20.67 42.165 20.67 14.055 0 29.351-3.721 44.233-11.575 27.283-14.469 43.819-38.858 43.819-59.941 0-5.787-1.241-11.575-4.134-16.949M3276.23 6615.65c-7.441-13.642-23.15-21.083-42.165-21.083-14.055 0-29.351 4.134-44.233 11.989-27.283 14.468-43.819 38.858-43.819 59.941 0 5.787 1.241 11.574 4.134 16.948 7.441 13.642 23.15 20.67 42.166 20.67 14.055 0 29.35-3.721 44.232-11.575 27.283-14.469 43.819-38.858 43.819-59.941 0-5.787-1.24-11.575-4.134-16.949M3813.29 6615.65c-7.441-13.642-23.149-21.083-42.165-21.083-14.055 0-29.35 4.134-44.232 11.989-27.284 14.468-43.819 38.858-43.819 59.941 0 5.787 1.24 11.574 4.134 16.948 7.441 13.642 23.149 20.67 42.165 20.67 14.055 0 29.35-3.721 44.232-11.575 27.284-14.469 43.819-38.858 43.819-59.941 0-5.787-1.24-11.575-4.134-16.949M4350.38 6667.32c-7.441-13.642-23.15-21.083-42.166-21.083-14.055 0-29.35 4.134-44.232 11.988-27.283 14.469-43.819 38.859-43.819 59.941 0 5.788 1.24 11.575 4.134 16.949 7.441 13.642 23.15 20.669 42.165 20.669 14.055 0 29.351-3.72 44.233-11.574 27.283-14.469 43.819-38.859 43.819-59.941 0-5.788-1.241-11.575-4.134-16.949M4686.04 6615.65c-7.441-13.642-23.149-21.083-42.165-21.083-14.055 0-29.35 4.134-44.232 11.989-27.284 14.468-43.819 38.858-43.819 59.941 0 5.787 1.24 11.574 4.134 16.948 7.441 13.642 23.149 20.67 42.165 20.67 14.055 0 29.35-3.721 44.232-11.575 27.284-14.469 43.819-38.858 43.819-59.941 0-5.787-1.24-11.575-4.134-16.949M5021.71 6667.32c-7.441-13.642-23.15-21.083-42.165-21.083-14.055 0-29.351 4.134-44.233 11.988-27.283 14.469-43.819 38.859-43.819 59.941 0 5.788 1.241 11.575 4.134 16.949 7.441 13.642 23.15 20.669 42.166 20.669 14.055 0 29.35-3.72 44.232-11.574 27.283-14.469 43.819-38.859 43.819-59.941 0-5.788-1.24-11.575-4.134-16.949M5357.38 6718.98c-7.441-13.641-23.15-21.082-42.166-21.082-14.055 0-29.35 4.134-44.232 11.988-27.283 14.468-43.819 38.858-43.819 59.941 0 5.787 1.24 11.575 4.134 16.949 7.441 13.641 23.15 20.669 42.165 20.669 14.055 0 29.351-3.72 44.233-11.575 27.283-14.468 43.819-38.858 43.819-59.941 0-5.787-1.241-11.575-4.134-16.949M6372.25 6718.98c-7.441-13.641-23.15-21.082-42.166-21.082-14.055 0-29.35 4.134-44.232 11.988-27.283 14.468-43.819 38.858-43.819 59.941 0 5.787 1.24 11.575 4.134 16.949 7.441 13.641 23.15 20.669 42.165 20.669 14.055 0 29.351-3.72 44.233-11.575 27.283-14.468 43.819-38.858 43.819-59.941 0-5.787-1.241-11.575-4.134-16.949M6898.54 6718.98c-7.441-13.641-23.149-21.082-42.165-21.082-14.055 0-29.35 4.134-44.232 11.988-27.284 14.468-43.819 38.858-43.819 59.941 0 5.787 1.24 11.575 4.134 16.949 7.441 13.641 23.149 20.669 42.165 20.669 14.055 0 29.35-3.72 44.232-11.575 27.284-14.468 43.819-38.858 43.819-59.941 0-5.787-1.24-11.575-4.134-16.949M5846 6822.32c-7.441-13.642-23.15-21.083-42.166-21.083-14.055 0-29.35 4.134-44.232 11.988-27.283 14.469-43.819 38.859-43.819 59.941 0 5.788 1.24 11.575 4.134 16.949 7.441 13.642 23.15 20.669 42.165 20.669 14.055 0 29.351-3.72 44.233-11.574 27.283-14.469 43.819-38.859 43.819-59.941 0-5.788-1.241-11.575-4.134-16.949M452.042 527.409c-5.084-22.448-15.998-38.239-19.222-42.538-13.187-17.652-29.764-29.433-49.152-35.014-12.856-3.679-25.258-4.134-35.262-3.39-4.299-24.844-8.433-49.151-12.194-71.68 22.529-25.507 37.494-49.483 46.919-67.259 14.344-27.2 19.098-46.133 19.305-46.96 7.11-21.538 8.598-53.368 4.051-87.307-4.175-31.211-12.815-58.949-22.529-72.384-4.258-5.912-8.599-8.929-12.898-8.929-5.043 0-15.419 5.126-27.366 16.576-9.508 9.095-23.026 25.176-33.608 50.02-12.402 29.186-13.27 68.415-11.823 96.195 1.571 30.053 6.159 53.575 6.2 53.782.083.372 1.158 6.572 3.018 17.196-.951.951-1.943 1.861-2.976 2.853-4.299 4.134-9.219 8.846-14.923 14.551-3.556 3.555-7.483 7.317-11.617 11.327-34.931 33.65-87.803 84.578-87.803 163.742 0 19.429 3.721 37.701 11.079 54.278 6.573 14.882 16.081 28.441 28.193 40.305 31.955 31.21 75.732 44.48 104.917 43.819 12.195-.29 23.067-1.282 32.947-3.142 7.565 39.685 12.278 68.746 12.443 90.82.165 26.912-6.655 43.323-22.778 54.774-10.045 7.152-21.661 11.079-34.476 11.699-10.707.496-20.049-1.447-25.961-3.141l-.041 0c0 0-1.199-.331-1.24-1.158-.041-.744 1.405-.951 1.447-.951l.082 0c7.938-1.819 22.695-6.903 32.451-20.545 7.441-10.417 11.038-29.516 3.431-45.804-4.588-9.879-14.964-22.074-38.196-23.934-10.294-.827-19.678 1.281-27.945 6.242-7.483 4.464-13.683 11.244-18.024 19.511-10.169 19.43-8.268 43.117 4.671 58.991 12.237 14.965 31.335 24.513 53.782 26.911 3.514.372 7.027.537 10.541.537 18.313 0 36.502-4.96 51.26-14.096 15.13-10.624 23.894-27.077 26.705-50.35 2.315-19.182.702-43.612-5.085-76.973-1.488-8.64-3.72-21.165-6.449-36.708 23.77-7.938 40.967-22.695 56.551-46.879 13.601-23.728 17.487-48.944 11.575-74.987m-141.419 108.265c-19.181-5.043-37.494-15.378-53.037-29.846-5.416-5.085-13.146-14.056-19.223-28.069-5.663-13.063-8.392-27.242-8.185-42.083.289-19.388 5.705-39.313 16.081-59.114 12.071-23.067 30.921-45.927 55.972-67.961 5.994-5.291 11.658-10.582 16.99-15.874 3.142 17.611 6.573 36.998 10.211 57.172-15.915 5.249-35.551 18.271-48.408 41.627-14.633 27.16-14.055 49.979-11.037 64.365 3.886 18.437 14.345 33.98 28.648 42.62 3.844 2.315 20.917 11.12 28.523 8.722 1.53-.496 2.646-1.405 3.225-2.77 2.108-4.836-2.109-7.481-8.557-11.45-2.481-1.53-5.25-3.266-8.268-5.457-13.724-10.293-19.719-28.689-15.295-46.795 2.397-9.921 7.689-18.851 15.295-25.878 6.904-6.408 15.337-10.955 25.175-13.6 8.433 46.464 16.949 92.556 23.729 127.116.537 2.852 1.116 5.621 1.653 8.391-18.106 3.845-36.089 3.473-53.492-1.116m46.795-137.161c42.786-1.943 60.437 28.813 64.116 48.779 1.943 10.459 1.902 28.813-4.464 46.217-4.837 13.145-15.006 29.97-36.213 38.486-.289-1.736-.62-3.513-.951-5.291-6.366-36.254-14.385-81.685-22.488-128.191m-30.26-293.256c7.359-23.728 18.685-37.163 26.912-44.315 7.234-6.283 14.055-9.219 17.858-9.219.579 0 1.075.083 1.488.207 1.902.579 4.093 2.935 6.036 6.532 9.549 17.734 6.49 45.472.95 63.826-6.738 22.323-18.809 45.555-55.187 85.282-.702-4.589-1.364-8.929-1.984-12.98-5.167-34.27-3.844-64.323 3.927-89.333M452.042 2077.6c-5.084-22.447-15.998-38.238-19.222-42.537-13.187-17.652-29.764-29.433-49.152-35.014-12.856-3.679-25.258-4.134-35.262-3.39-4.299-24.844-8.433-49.151-12.194-71.681 22.529-25.506 37.494-49.482 46.919-67.258 14.344-27.2 19.098-46.133 19.305-46.96 7.11-21.538 8.598-53.369 4.051-87.307-4.175-31.211-12.815-58.949-22.529-72.384-4.258-5.912-8.599-8.93-12.898-8.93-5.043 0-15.419 5.126-27.366 16.577-9.508 9.095-23.026 25.175-33.608 50.02-12.402 29.185-13.27 68.415-11.823 96.195 1.571 30.053 6.159 53.575 6.2 53.782.083.371 1.158 6.572 3.018 17.196-.951.951-1.943 1.86-2.976 2.853-4.299 4.134-9.219 8.846-14.923 14.551-3.556 3.555-7.483 7.317-11.617 11.326-34.931 33.65-87.803 84.579-87.803 163.743 0 19.429 3.721 37.7 11.079 54.277 6.573 14.882 16.081 28.442 28.193 40.306 31.955 31.21 75.732 44.48 104.917 43.819 12.195-.29 23.067-1.282 32.947-3.143 7.565 39.685 12.278 68.746 12.443 90.821.165 26.912-6.655 43.323-22.778 54.774-10.045 7.151-21.661 11.079-34.476 11.699-10.707.496-20.049-1.447-25.961-3.142l-.041 0c0 0-1.199-.33-1.24-1.157-.041-.745 1.405-.951 1.447-.951l.082 0c7.938-1.819 22.695-6.903 32.451-20.545 7.441-10.417 11.038-29.516 3.431-45.804-4.588-9.879-14.964-22.074-38.196-23.934-10.294-.827-19.678 1.281-27.945 6.241-7.483 4.465-13.683 11.244-18.024 19.512-10.169 19.429-8.268 43.116 4.671 58.991 12.237 14.964 31.335 24.513 53.782 26.911 3.514.372 7.027.537 10.541.537 18.313 0 36.502-4.96 51.26-14.096 15.13-10.624 23.894-27.077 26.705-50.35 2.315-19.182.702-43.612-5.085-76.973-1.488-8.64-3.72-21.165-6.449-36.708 23.77-7.938 40.967-22.696 56.551-46.879 13.601-23.728 17.487-48.944 11.575-74.988m-141.419 108.266c-19.181-5.043-37.494-15.378-53.037-29.847-5.416-5.084-13.146-14.055-19.223-28.068-5.663-13.064-8.392-27.243-8.185-42.083.289-19.388 5.705-39.313 16.081-59.114 12.071-23.067 30.921-45.928 55.972-67.961 5.994-5.291 11.658-10.582 16.99-15.874 3.142 17.611 6.573 36.998 10.211 57.172-15.915 5.249-35.551 18.271-48.408 41.627-14.633 27.16-14.055 49.979-11.037 64.364 3.886 18.438 14.345 33.981 28.648 42.621 3.844 2.314 20.917 11.12 28.523 8.722 1.53-.496 2.646-1.406 3.225-2.77 2.108-4.836-2.109-7.482-8.557-11.451-2.481-1.529-5.25-3.265-8.268-5.456-13.724-10.293-19.719-28.689-15.295-46.795 2.397-9.922 7.689-18.851 15.295-25.879 6.904-6.407 15.337-10.954 25.175-13.599 8.433 46.464 16.949 92.556 23.729 127.116.537 2.852 1.116 5.621 1.653 8.391-18.106 3.844-36.089 3.473-53.492-1.116m46.795-137.162c42.786-1.942 60.437 28.814 64.116 48.78 1.943 10.459 1.902 28.813-4.464 46.216-4.837 13.146-15.006 29.971-36.213 38.487-.289-1.736-.62-3.514-.951-5.292-6.366-36.253-14.385-81.685-22.488-128.191m-30.26-293.255c7.359-23.728 18.685-37.163 26.912-44.315 7.234-6.284 14.055-9.219 17.858-9.219.579 0 1.075.083 1.488.207 1.902.578 4.093 2.935 6.036 6.532 9.549 17.733 6.49 45.472.95 63.826-6.738 22.323-18.809 45.555-55.187 85.282-.702-4.589-1.364-8.93-1.984-12.98-5.167-34.27-3.844-64.324 3.927-89.333M452.042 3627.78c-5.084-22.448-15.998-38.239-19.222-42.538-13.187-17.652-29.764-29.433-49.152-35.014-12.856-3.679-25.258-4.134-35.262-3.39-4.299-24.844-8.433-49.151-12.194-71.68 22.529-25.507 37.494-49.483 46.919-67.259 14.344-27.2 19.098-46.133 19.305-46.96 7.11-21.538 8.598-53.368 4.051-87.307-4.175-31.211-12.815-58.949-22.529-72.384-4.258-5.912-8.599-8.929-12.898-8.929-5.043 0-15.419 5.126-27.366 16.576-9.508 9.095-23.026 25.176-33.608 50.02-12.402 29.186-13.27 68.415-11.823 96.195 1.571 30.053 6.159 53.575 6.2 53.782.083.372 1.158 6.572 3.018 17.196-.951.951-1.943 1.861-2.976 2.853-4.299 4.134-9.219 8.846-14.923 14.551-3.556 3.555-7.483 7.317-11.617 11.327-34.931 33.65-87.803 84.578-87.803 163.742 0 19.429 3.721 37.701 11.079 54.278 6.573 14.882 16.081 28.441 28.193 40.305 31.955 31.21 75.732 44.48 104.917 43.819 12.195-.29 23.067-1.282 32.947-3.142 7.565 39.685 12.278 68.746 12.443 90.82.165 26.912-6.655 43.323-22.778 54.774-10.045 7.152-21.661 11.079-34.476 11.699-10.707.496-20.049-1.447-25.961-3.141l-.041 0c0 0-1.199-.331-1.24-1.158-.041-.744 1.405-.951 1.447-.951l.082 0c7.938-1.819 22.695-6.903 32.451-20.545 7.441-10.417 11.038-29.516 3.431-45.804-4.588-9.879-14.964-22.074-38.196-23.934-10.294-.827-19.678 1.281-27.945 6.242-7.483 4.464-13.683 11.244-18.024 19.511-10.169 19.43-8.268 43.117 4.671 58.991 12.237 14.965 31.335 24.513 53.782 26.911 3.514.372 7.027.537 10.541.537 18.313 0 36.502-4.96 51.26-14.096 15.13-10.624 23.894-27.077 26.705-50.35 2.315-19.182.702-43.612-5.085-76.973-1.488-8.64-3.72-21.165-6.449-36.708 23.77-7.938 40.967-22.695 56.551-46.879 13.601-23.728 17.487-48.944 11.575-74.987m-141.419 108.265c-19.181-5.043-37.494-15.378-53.037-29.846-5.416-5.085-13.146-14.056-19.223-28.069-5.663-13.063-8.392-27.242-8.185-42.083.289-19.388 5.705-39.313 16.081-59.114 12.071-23.067 30.921-45.927 55.972-67.961 5.994-5.291 11.658-10.582 16.99-15.874 3.142 17.611 6.573 36.998 10.211 57.172-15.915 5.249-35.551 18.271-48.408 41.627-14.633 27.16-14.055 49.979-11.037 64.365 3.886 18.437 14.345 33.98 28.648 42.62 3.844 2.315 20.917 11.12 28.523 8.722 1.53-.496 2.646-1.405 3.225-2.77 2.108-4.836-2.109-7.481-8.557-11.45-2.481-1.53-5.25-3.266-8.268-5.457-13.724-10.293-19.719-28.689-15.295-46.795 2.397-9.921 7.689-18.851 15.295-25.878 6.904-6.408 15.337-10.955 25.175-13.6 8.433 46.464 16.949 92.556 23.729 127.116.537 2.852 1.116 5.621 1.653 8.391-18.106 3.845-36.089 3.473-53.492-1.116m46.795-137.161c42.786-1.943 60.437 28.813 64.116 48.779 1.943 10.459 1.902 28.813-4.464 46.217-4.837 13.145-15.006 29.97-36.213 38.486-.289-1.736-.62-3.513-.951-5.291-6.366-36.254-14.385-81.685-22.488-128.191m-30.26-293.256c7.359-23.728 18.685-37.163 26.912-44.315 7.234-6.283 14.055-9.219 17.858-9.219.579 0 1.075.083 1.488.207 1.902.579 4.093 2.935 6.036 6.532 9.549 17.734 6.49 45.472.95 63.826-6.738 22.323-18.809 45.555-55.187 85.282-.702-4.589-1.364-8.929-1.984-12.98-5.167-34.27-3.844-64.323 3.927-89.333M452.042 5177.99c-5.084-22.447-15.998-38.238-19.222-42.538-13.187-17.651-29.764-29.433-49.152-35.014-12.856-3.678-25.258-4.133-35.262-3.389-4.299-24.845-8.433-49.152-12.194-71.681 22.529-25.506 37.494-49.483 46.919-67.258 14.344-27.201 19.098-46.134 19.305-46.961 7.11-21.537 8.598-53.368 4.051-87.307-4.175-31.21-12.815-58.949-22.529-72.384-4.258-5.911-8.599-8.929-12.898-8.929-5.043 0-15.419 5.126-27.366 16.577-9.508 9.094-23.026 25.175-33.608 50.019-12.402 29.186-13.27 68.416-11.823 96.195 1.571 30.053 6.159 53.576 6.2 53.782.083.372 1.158 6.573 3.018 17.197-.951.95-1.943 1.86-2.976 2.852-4.299 4.134-9.219 8.846-14.923 14.551-3.556 3.556-7.483 7.317-11.617 11.327-34.931 33.65-87.803 84.579-87.803 163.742 0 19.429 3.721 37.701 11.079 54.278 6.573 14.882 16.081 28.441 28.193 40.305 31.955 31.211 75.732 44.48 104.917 43.819 12.195-.289 23.067-1.282 32.947-3.142 7.565 39.685 12.278 68.746 12.443 90.821.165 26.911-6.655 43.323-22.778 54.773-10.045 7.152-21.661 11.079-34.476 11.699-10.707.496-20.049-1.447-25.961-3.141l-.041 0c0 0-1.199-.331-1.24-1.158-.041-.744 1.405-.951 1.447-.951l.082 0c7.938-1.818 22.695-6.903 32.451-20.545 7.441-10.417 11.038-29.516 3.431-45.803-4.588-9.88-14.964-22.075-38.196-23.935-10.294-.827-19.678 1.281-27.945 6.242-7.483 4.464-13.683 11.244-18.024 19.512-10.169 19.429-8.268 43.116 4.671 58.99 12.237 14.965 31.335 24.514 53.782 26.911 3.514.373 7.027.538 10.541.538 18.313 0 36.502-4.961 51.26-14.097 15.13-10.624 23.894-27.077 26.705-50.35 2.315-19.181.702-43.612-5.085-76.973-1.488-8.639-3.72-21.165-6.449-36.708 23.77-7.937 40.967-22.695 56.551-46.878 13.601-23.728 17.487-48.945 11.575-74.988m-141.419 108.265c-19.181-5.043-37.494-15.378-53.037-29.846-5.416-5.085-13.146-14.055-19.223-28.069-5.663-13.063-8.392-27.242-8.185-42.082.289-19.388 5.705-39.314 16.081-59.114 12.071-23.068 30.921-45.928 55.972-67.961 5.994-5.291 11.658-10.583 16.99-15.875 3.142 17.611 6.573 36.999 10.211 57.172-15.915 5.25-35.551 18.271-48.408 41.628-14.633 27.159-14.055 49.978-11.037 64.364 3.886 18.437 14.345 33.98 28.648 42.62 3.844 2.315 20.917 11.12 28.523 8.722 1.53-.496 2.646-1.405 3.225-2.769 2.108-4.837-2.109-7.482-8.557-11.451-2.481-1.529-5.25-3.266-8.268-5.456-13.724-10.294-19.719-28.69-15.295-46.796 2.397-9.921 7.689-18.85 15.295-25.878 6.904-6.407 15.337-10.955 25.175-13.6 8.433 46.464 16.949 92.557 23.729 127.116.537 2.852 1.116 5.622 1.653 8.391-18.106 3.845-36.089 3.473-53.492-1.116m46.795-137.161c42.786-1.943 60.437 28.813 64.116 48.78 1.943 10.458 1.902 28.813-4.464 46.216-4.837 13.146-15.006 29.97-36.213 38.487-.289-1.737-.62-3.514-.951-5.292-6.366-36.254-14.385-81.685-22.488-128.191m-30.26-293.256c7.359-23.728 18.685-37.163 26.912-44.315 7.234-6.283 14.055-9.218 17.858-9.218.579 0 1.075.082 1.488.206 1.902.579 4.093 2.936 6.036 6.532 9.549 17.734 6.49 45.473.95 63.827-6.738 22.322-18.809 45.555-55.187 85.281-.702-4.589-1.364-8.929-1.984-12.98-5.167-34.27-3.844-64.323 3.927-89.333M452.042 6728.2c-5.084-22.447-15.998-38.238-19.222-42.537-13.187-17.652-29.764-29.434-49.152-35.014-12.856-3.679-25.258-4.134-35.262-3.39-4.299-24.845-8.433-49.151-12.194-71.681 22.529-25.506 37.494-49.482 46.919-67.258 14.344-27.2 19.098-46.133 19.305-46.96 7.11-21.538 8.598-53.369 4.051-87.307-4.175-31.211-12.815-58.95-22.529-72.385-4.258-5.911-8.599-8.929-12.898-8.929-5.043 0-15.419 5.126-27.366 16.577-9.508 9.095-23.026 25.175-33.608 50.02-12.402 29.185-13.27 68.415-11.823 96.195 1.571 30.053 6.159 53.575 6.2 53.782.083.371 1.158 6.572 3.018 17.196-.951.951-1.943 1.86-2.976 2.853-4.299 4.134-9.219 8.846-14.923 14.551-3.556 3.555-7.483 7.316-11.617 11.326-34.931 33.65-87.803 84.579-87.803 163.742 0 19.43 3.721 37.701 11.079 54.278 6.573 14.882 16.081 28.441 28.193 40.306 31.955 31.21 75.732 44.479 104.917 43.818 12.195-.289 23.067-1.282 32.947-3.142 7.565 39.685 12.278 68.746 12.443 90.821.165 26.912-6.655 43.323-22.778 54.774-10.045 7.151-21.661 11.078-34.476 11.699-10.707.496-20.049-1.447-25.961-3.142l-.041 0c0 0-1.199-.33-1.24-1.157-.041-.745 1.405-.951 1.447-.951l.082 0c7.938-1.819 22.695-6.904 32.451-20.545 7.441-10.418 11.038-29.516 3.431-45.804-4.588-9.879-14.964-22.074-38.196-23.934-10.294-.827-19.678 1.281-27.945 6.241-7.483 4.465-13.683 11.244-18.024 19.512-10.169 19.429-8.268 43.116 4.671 58.991 12.237 14.964 31.335 24.513 53.782 26.911 3.514.372 7.027.537 10.541.537 18.313 0 36.502-4.961 51.26-14.096 15.13-10.624 23.894-27.077 26.705-50.35 2.315-19.182.702-43.613-5.085-76.973-1.488-8.64-3.72-21.166-6.449-36.709 23.77-7.937 40.967-22.695 56.551-46.878 13.601-23.728 17.487-48.944 11.575-74.988m-141.419 108.266c-19.181-5.044-37.494-15.378-53.037-29.847-5.416-5.084-13.146-14.055-19.223-28.068-5.663-13.064-8.392-27.243-8.185-42.083.289-19.388 5.705-39.313 16.081-59.114 12.071-23.067 30.921-45.928 55.972-67.961 5.994-5.291 11.658-10.582 16.99-15.874 3.142 17.61 6.573 36.998 10.211 57.171-15.915 5.25-35.551 18.272-48.408 41.628-14.633 27.16-14.055 49.979-11.037 64.364 3.886 18.438 14.345 33.981 28.648 42.621 3.844 2.314 20.917 11.119 28.523 8.722 1.53-.496 2.646-1.406 3.225-2.77 2.108-4.837-2.109-7.482-8.557-11.451-2.481-1.529-5.25-3.265-8.268-5.456-13.724-10.294-19.719-28.689-15.295-46.795 2.397-9.922 7.689-18.851 15.295-25.879 6.904-6.407 15.337-10.954 25.175-13.6 8.433 46.465 16.949 92.557 23.729 127.116.537 2.852 1.116 5.622 1.653 8.392-18.106 3.844-36.089 3.473-53.492-1.116m46.795-137.162c42.786-1.943 60.437 28.813 64.116 48.78 1.943 10.459 1.902 28.813-4.464 46.216-4.837 13.146-15.006 29.971-36.213 38.487-.289-1.736-.62-3.514-.951-5.292-6.366-36.253-14.385-81.685-22.488-128.191m-30.26-293.256c7.359-23.728 18.685-37.163 26.912-44.314 7.234-6.284 14.055-9.219 17.858-9.219.579 0 1.075.083 1.488.207 1.902.578 4.093 2.935 6.036 6.531 9.549 17.734 6.49 45.473.95 63.827-6.738 22.323-18.809 45.555-55.187 85.281-.702-4.588-1.364-8.929-1.984-12.98-5.167-34.27-3.844-64.323 3.927-89.333M654.331 197.813c2.481-.413 4.547-3.307 4.547-5.787l0-24.39c0-3.307-2.48-5.787-5.787-5.787l-.827 0-13.641 2.894 0-61.595-11.575 0 0 64.075-36.792 7.441 0-58.288-11.574 0 0 60.768-16.122 3.307c-2.481.414-4.548 3.307-4.548 5.788l0 24.803 0-.827c0 3.307 2.481 5.787 5.788 5.787l1.24 0 13.642-2.893 0 68.208-16.122 3.307c-2.481.414-4.548 3.308-4.548 5.788l0 23.976c0 3.307 2.481 5.788 5.788 5.788l1.24 0 13.642-2.894 0 61.594 11.574 0 0-64.074 36.792-7.441 0 58.287 11.575 0 0-60.768 15.708-2.893c2.481-.414 4.547-3.307 4.547-5.788l0-24.389c0-3.308-2.48-5.788-5.787-5.788l-.827 0-13.641 2.894 0-68.209 15.708-2.894m-64.075 81.437l0-68.622 36.792-7.441 0 68.209-36.792 7.854M654.331 1748.01c2.481-.413 4.547-3.307 4.547-5.787l0-24.39c0-3.307-2.48-5.787-5.787-5.787l-.827 0-13.641 2.894 0-61.595-11.575 0 0 64.075-36.792 7.441 0-58.288-11.574 0 0 60.768-16.122 3.307c-2.481.414-4.548 3.307-4.548 5.788l0 24.803 0-.827c0 3.307 2.481 5.787 5.788 5.787l1.24 0 13.642-2.893 0 68.208-16.122 3.307c-2.481.414-4.548 3.308-4.548 5.788l0 23.976c0 3.307 2.481 5.788 5.788 5.788l1.24 0 13.642-2.894 0 61.594 11.574 0 0-64.074 36.792-7.441 0 58.287 11.575 0 0-60.768 15.708-2.893c2.481-.414 4.547-3.307 4.547-5.788l0-24.389c0-3.308-2.48-5.788-5.787-5.788l-.827 0-13.641 2.894 0-68.209 15.708-2.894m-64.075 81.437l0-68.622 36.792-7.441 0 68.209-36.792 7.854M654.331 3298.19c2.481-.413 4.547-3.307 4.547-5.787l0-24.39c0-3.307-2.48-5.787-5.787-5.787l-.827 0-13.641 2.894 0-61.595-11.575 0 0 64.075-36.792 7.441 0-58.288-11.574 0 0 60.768-16.122 3.307c-2.481.414-4.548 3.307-4.548 5.788l0 24.803 0-.827c0 3.307 2.481 5.787 5.788 5.787l1.24 0 13.642-2.893 0 68.208-16.122 3.307c-2.481.414-4.548 3.308-4.548 5.788l0 23.976c0 3.307 2.481 5.788 5.788 5.788l1.24 0 13.642-2.894 0 61.594 11.574 0 0-64.074 36.792-7.441 0 58.287 11.575 0 0-60.768 15.708-2.893c2.481-.414 4.547-3.307 4.547-5.788l0-24.389c0-3.308-2.48-5.788-5.787-5.788l-.827 0-13.641 2.894 0-68.209 15.708-2.894m-64.075 81.437l0-68.622 36.792-7.441 0 68.209-36.792 7.854M654.331 4848.4c2.481-.414 4.547-3.307 4.547-5.788l0-24.389c0-3.307-2.48-5.788-5.787-5.788l-.827 0-13.641 2.894 0-61.595-11.575 0 0 64.075-36.792 7.441 0-58.287-11.574 0 0 60.767-16.122 3.308c-2.481.413-4.548 3.307-4.548 5.787l0 24.803 0-.827c0 3.307 2.481 5.788 5.788 5.788l1.24 0 13.642-2.894 0 68.209-16.122 3.307c-2.481.413-4.548 3.307-4.548 5.787l0 23.977c0 3.307 2.481 5.787 5.788 5.787l1.24 0 13.642-2.894 0 61.595 11.574 0 0-64.075 36.792-7.441 0 58.287 11.575 0 0-60.767 15.708-2.894c2.481-.413 4.547-3.307 4.547-5.787l0-24.39c0-3.307-2.48-5.788-5.787-5.788l-.827 0-13.641 2.894 0-68.209 15.708-2.893m-64.075 81.437l0-68.622 36.792-7.441 0 68.208-36.792 7.855M654.331 6398.61c2.481-.413 4.547-3.307 4.547-5.787l0-24.39c0-3.307-2.48-5.787-5.787-5.787l-.827 0-13.641 2.893 0-61.594-11.575 0 0 64.075-36.792 7.44 0-58.287-11.574 0 0 60.768-16.122 3.307c-2.481.413-4.548 3.307-4.548 5.787l0 24.803 0-.826c0 3.307 2.481 5.787 5.788 5.787l1.24 0 13.642-2.894 0 68.209-16.122 3.307c-2.481.414-4.548 3.307-4.548 5.788l0 23.976c0 3.307 2.481 5.787 5.788 5.787l1.24 0 13.642-2.893 0 61.594 11.574 0 0-64.075 36.792-7.441 0 58.288 11.575 0 0-60.768 15.708-2.894c2.481-.413 4.547-3.307 4.547-5.787l0-24.39c0-3.307-2.48-5.787-5.787-5.787l-.827 0-13.641 2.893 0-68.208 15.708-2.894m-64.075 81.437l0-68.622 36.792-7.441 0 68.209-36.792 7.854M911.54 363.171c-3.307 9.095-11.575 38.858-31.83 38.858-26.871 0-32.658-16.535-54.981-16.535-3.307 0-6.614.413-10.748 1.24 0 0 10.335-15.709 54.154-29.35 43.819-13.642 54.98-35.138 54.98-59.941 0-17.363-7.854-51.674-70.276-51.674-62.421 0-73.996 37.619-73.996 56.634 0 16.949 14.056 30.591 31.004 30.591 16.949 0 30.591-13.642 30.591-30.591 0-11.574-8.268-24.389-19.016-28.523-1.24-.414-2.894-2.481-2.894-4.548 0-2.48 2.067-5.374 9.508-7.44 2.067-.827 7.855-2.067 14.055-2.067 5.788 0 12.402 1.24 17.363 4.547 7.854 4.96 10.748 12.401 10.748 31.004 0 48.366-57.461 58.701-81.437 94.665 0 0-12.402 17.362-12.402 36.791 0 19.43 9.921 20.67 14.882 20.67 6.614 0 13.642-5.374 13.642-12.815 0-1.654-.414-3.307-1.24-5.374-2.481-5.788-3.308-10.335-3.308-13.642 0-1.24 0-2.48.414-3.72.413-2.481 3.72-6.615 13.642-6.615 11.988 0 16.535 14.056 23.976 24.804 7.441 10.748 19.016 17.362 32.244 17.362 13.228 0 31.004-9.508 38.445-24.803 7.441-15.296 16.949-46.3 16.949-57.461 0-5.374-3.307-7.854-7.028-7.854-2.894 0-5.787 1.653-7.441 5.787M771.374 603.417l71.019 0 0 30.674-34.021 0c-3.224 0-5.829 2.604-5.829 5.828l0 7.896c0 3.224 2.605 5.829 5.829 5.829l125.049 0c3.224 0 5.829-2.605 5.829-5.829l0-7.896c0-3.224-2.605-5.828-5.829-5.828l-36.957 0 0-30.674 36.957 0c3.224 0 5.829-2.604 5.829-5.828l0-7.896c0-3.225-2.605-5.829-5.829-5.829l-36.957 0 0-65.976c0-2.232-1.24-4.217-3.224-5.209l-5.002-2.48c-2.191-1.075-4.795-.703-6.573.951l-37.411 34.393c-1.199 1.117-1.902 2.646-1.902 4.3l0 34.021-47.581 0c0 0 45.969-49.73 94.914-114.921 3.597-4.754 1.53-9.095.744-9.88l-8.971-9.136c-1.116-1.075-2.604-1.695-4.134-1.695-2.48 0-58.494.083-61.47 0-2.976-.082-5.209 2.481-5.498 5.044 0 0-2.232 30.425-12.98 64.033-10.748 33.567-22.902 54.154-33.898 69.159 0 0-2.232 4.093-.744 7.152 1.447 3.1 4.051 7.606 4.051 7.606 0 0 1.075 2.191 4.589 2.191M2323.41 718.136c6.296 6.296 16.503 6.296 22.799 0 6.297-6.296 6.297-16.504 0-22.8-6.296-6.296-16.503-6.296-22.799 0-6.297 6.296-6.297 16.504 0 22.8M2565.77 718.136c6.296 6.296 16.504 6.296 22.8 0 6.296-6.296 6.296-16.504 0-22.8-6.296-6.296-16.504-6.296-22.8 0-6.296 6.296-6.296 16.504 0 22.8M2808.12 718.136c6.296 6.296 16.504 6.296 22.8 0 6.296-6.296 6.296-16.504 0-22.8-6.296-6.296-16.504-6.296-22.8 0-6.296 6.296-6.296 16.504 0 22.8M3195.89 718.136c6.296 6.296 16.504 6.296 22.8 0 6.296-6.296 6.296-16.504 0-22.8-6.296-6.296-16.504-6.296-22.8 0-6.296 6.296-6.296 16.504 0 22.8M5708.09 614.79c6.296 6.296 16.503 6.296 22.799 0 6.297-6.296 6.297-16.504 0-22.8-6.296-6.296-16.503-6.296-22.799 0-6.297 6.296-6.297 16.504 0 22.8M6102.67 614.79c6.296 6.296 16.504 6.296 22.8 0 6.296-6.296 6.296-16.504 0-22.8-6.296-6.296-16.504-6.296-22.8 0-6.296 6.296-6.296 16.504 0 22.8M2734.9 2268.33c6.296 6.296 16.504 6.296 22.8 0 6.296-6.296 6.296-16.504 0-22.8-6.296-6.296-16.504-6.296-22.8 0-6.296 6.296-6.296 16.504 0 22.8M3075.43 2268.33c6.296 6.296 16.504 6.296 22.8 0 6.296-6.296 6.296-16.504 0-22.8-6.296-6.296-16.504-6.296-22.8 0-6.296 6.296-6.296 16.504 0 22.8M5917.67 2164.99c6.296 6.296 16.504 6.296 22.8 0 6.296-6.296 6.296-16.504 0-22.8-6.296-6.296-16.504-6.296-22.8 0-6.296 6.296-6.296 16.504 0 22.8M6258.21 2164.99c6.296 6.296 16.503 6.296 22.799 0 6.297-6.296 6.297-16.504 0-22.8-6.296-6.296-16.503-6.296-22.799 0-6.297 6.296-6.297 16.504 0 22.8M3473.95 3066.28c7.027 17.362 14.468 76.477 15.295 117.402 0 1.24 2.48 1.24 2.893 1.24.414 0 2.894 0 2.894-1.24.827-40.512 8.268-99.626 15.295-117.402 0-.413 0-1.24-.826-1.24-.414 0-9.095 1.654-17.363 1.654-8.681 0-16.948-1.654-17.362-1.654-.826 0-.826.413-.826 1.24M3944.41 3166.03c7.027 17.362 14.468 76.477 15.295 117.402 0 1.24 2.48 1.24 2.894 1.24.413 0 2.894 0 2.894-1.24.826-40.512 8.267-99.626 15.295-117.402 0-.413 0-1.24-.827-1.24-.413 0-9.094 1.654-17.362 1.654-8.681 0-16.949-1.654-17.362-1.654-.827 0-.827.413-.827 1.24M5750.38 3405.11c6.296 6.296 16.504 6.296 22.8 0 6.296-6.296 6.296-16.504 0-22.8-6.296-6.296-16.504-6.296-22.8 0-6.296 6.296-6.296 16.504 0 22.8M6194.46 3301.78c6.296 6.296 16.503 6.296 22.799 0 6.297-6.297 6.297-16.504 0-22.8-6.296-6.297-16.503-6.297-22.799 0-6.297 6.296-6.297 16.503 0 22.8M6638.51 3301.78c6.296 6.296 16.504 6.296 22.8 0 6.296-6.297 6.296-16.504 0-22.8-6.296-6.297-16.504-6.297-22.8 0-6.296 6.296-6.296 16.503 0 22.8M7082.55 3198.45c6.296 6.296 16.504 6.296 22.8 0 6.296-6.296 6.296-16.504 0-22.8-6.296-6.296-16.504-6.296-22.8 0-6.296 6.296-6.296 16.504 0 22.8M973.034 5265.4c6.296 6.296 16.504 6.296 22.8 0 6.296-6.296 6.296-16.504 0-22.8-6.296-6.296-16.504-6.296-22.8 0-6.296 6.296-6.296 16.504 0 22.8M1461.08 5265.4c6.296 6.296 16.504 6.296 22.8 0 6.296-6.296 6.296-16.504 0-22.8-6.296-6.296-16.504-6.296-22.8 0-6.296 6.296-6.296 16.504 0 22.8M3322.19 5420.4c6.296 6.296 16.503 6.296 22.799 0 6.297-6.296 6.297-16.504 0-22.8-6.296-6.296-16.503-6.296-22.799 0-6.297 6.296-6.297 16.504 0 22.8M3786.01 5368.73c6.296 6.296 16.504 6.296 22.8 0 6.296-6.296 6.296-16.504 0-22.8-6.296-6.296-16.504-6.296-22.8 0-6.296 6.296-6.296 16.504 0 22.8M4249.8 5368.73c6.296 6.296 16.504 6.296 22.8 0 6.296-6.296 6.296-16.504 0-22.8-6.296-6.296-16.504-6.296-22.8 0-6.296 6.296-6.296 16.504 0 22.8M4713.63 5162.02c6.296 6.296 16.504 6.296 22.8 0 6.296-6.296 6.296-16.504 0-22.8-6.296-6.296-16.504-6.296-22.8 0-6.296 6.296-6.296 16.504 0 22.8M973.034 6505.53c6.296 6.296 16.504 6.296 22.8 0 6.296-6.297 6.296-16.504 0-22.8-6.296-6.297-16.504-6.297-22.8 0-6.296 6.296-6.296 16.503 0 22.8M1491.99 6402.2c6.296 6.296 16.504 6.296 22.8 0 6.296-6.296 6.296-16.504 0-22.8-6.296-6.296-16.504-6.296-22.8 0-6.296 6.296-6.296 16.504 0 22.8M2010.95 6402.2c6.296 6.296 16.504 6.296 22.8 0 6.296-6.296 6.296-16.504 0-22.8-6.296-6.296-16.504-6.296-22.8 0-6.296 6.296-6.296 16.504 0 22.8M2529.91 6298.82c6.296 6.296 16.504 6.296 22.8 0 6.296-6.296 6.296-16.504 0-22.8-6.296-6.296-16.504-6.296-22.8 0-6.296 6.296-6.296 16.504 0 22.8M3201.82 6505.53c6.296 6.296 16.504 6.296 22.8 0 6.296-6.297 6.296-16.504 0-22.8-6.296-6.297-16.504-6.297-22.8 0-6.296 6.296-6.296 16.503 0 22.8M3738.88 6505.53c6.296 6.296 16.504 6.296 22.8 0 6.296-6.297 6.296-16.504 0-22.8-6.296-6.297-16.504-6.297-22.8 0-6.296 6.296-6.296 16.503 0 22.8M2528.05 3206.69c-38.858-42.166-73.169-44.646-94.665-44.646-21.496 0-55.394 2.48-94.252 44.646-20.256 22.323-34.311 66.555-34.311 88.878 0 7.854 1.653 13.228 5.787 13.228 11.575 0 5.788-35.551 40.512-70.689 30.591-30.591 71.516-31.004 81.437-31.004l1.654 0c9.921 0 50.846.413 81.437 31.004 34.724 35.138 28.937 70.689 40.511 70.689 4.134 0 5.788-4.961 5.788-13.228 0-22.323-13.642-66.969-33.898-88.878m-123.189 78.956c0 15.709 12.815 28.524 28.524 28.524 15.708 0 28.523-12.815 28.523-28.524 0-15.708-12.815-28.523-28.523-28.523-15.709 0-28.524 12.815-28.524 28.523" fill-rule="nonzero"/>
	<path d="M2002.8 245.262l641.491 0 0 51.67-641.491 0 0-51.67M2390.56 322.77l253.725 0 0 51.675-253.725 0 0-51.675M2875.28 245.262l399.137 0 0 51.67-399.137 0 0-51.67M3803.78 112.453l769.042 0 0 51.671-769.042 0 0-51.671M3803.78 189.962l769.042 0 0 51.67-769.042 0 0-51.67M4814.03 319.145l415.5 0 0 51.671-415.5 0 0-51.671M5775.2 146.749l406 0 0 51.671-406 0 0-51.671M6564.45 151.737l751.291 0 0 51.67-751.291 0 0-51.67M6564.45 229.245l751.291 0 0 51.675-751.291 0 0-51.675M1040.19 1785.64l681.746 0 0 51.675-681.746 0 0-51.675M1040.19 1863.14l681.746 0 0 51.675-681.746 0 0-51.675M1934.03 1975.06l368.904-50.663 0 52.158-368.904 50.663 0-52.158M2802.05 1795.46l351.9 0 0 51.675-351.9 0 0-51.675M3483.12 1701.93l649.875 0 0 51.671-649.875 0 0-51.671M3483.12 1779.44l649.875 0 0 51.675-649.875 0 0-51.675M4563.91 1930.46l328.375-92.284 0 53.675-328.375 92.284 0-53.675M5197.87 1846.36l328.375-67.721 0 52.762-328.375 67.721 0-52.762M5984.82 1711.75l351.875 0 0 51.671-351.875 0 0-51.671M6665.87 1711.75l649.875 0 0 51.671-649.875 0 0-51.671M6665.87 1789.26l649.875 0 0 51.675-649.875 0 0-51.675M1040.19 3342.01l914.096 0 0 51.709-914.096 0 0-51.709M3424.49 3511.34l481.875 110.625 0 53.041-481.875-110.666 0-53M4365.45 3651.01l893.541 0 0 51.667-893.541 0 0-51.667M4365.45 3573.51l893.541 0 0 51.667-893.541 0 0-51.667M5694.62 3754.34l1343.5 0 0 51.708-1343.5 0 0-51.708M1040.19 4792.51l499.413 0 0 51.667-499.413 0 0-51.667M2016.28 4802.34l926.454 0 0 51.666-926.454 0 0-51.666M2016.28 4879.84l926.454 0 0 51.666-926.454 0 0-51.666M3389.33 4793.55l1402.79 0 0 51.667-1402.79 0 0-51.667M5274.57 5066.22l499.416 142.125 0 53.75-499.416-142.125 0-53.75M6250.66 5201.22l926.458 0 0 51.666-926.458 0 0-51.666M6250.66 5123.72l926.458 0 0 51.666-926.458 0 0-51.666M917.237 6933.3l1568.24 0 0 51.708-1568.24 0 0-51.708M3146.02 6864.59l548.434 0 0 51.666-548.434 0 0-51.666M4343.12 6352.51l1018.33 0 0 51.709-1018.33 0 0-51.709M4343.12 6430.05l1018.33 0 0 51.667-1018.33 0 0-51.667M5838.74 6442.42l1063.92 0 0 51.667-1063.92 0 0-51.667"/>
	<path d="M1283.34 359.451c-.413-1.24-4.134-15.709-4.134-16.536-.413-1.653-2.893-2.893-4.96-2.893-2.894 0-5.374 2.48-5.374 5.374l0 93.425c0 2.067 1.653 3.72 3.307 4.547 17.362 5.374 53.327 28.11 80.197 73.996 7.441 12.815 19.429 30.177 19.429 64.902 0 29.764-4.547 61.181-11.988 90.118-1.24 4.547-2.481 8.681 2.067 10.335 4.547 1.653 6.2-1.654 7.854-5.788 14.882-36.378 18.602-74.409 18.602-100.039l0-7.855c-2.067-53.326-32.657-92.598-32.657-92.598 1.24 0-38.032-50.846-49.193-68.209-15.295-23.563-22.736-47.126-23.15-48.779M2748.71 3808.74c0-.827 3.721-14.882 4.134-16.122.414-1.653 7.855-25.216 23.15-48.779 11.161-17.363 50.433-68.209 49.193-68.209 0 0 30.59-39.272 32.657-92.598l0-9.508c0-25.217-3.307-60.768-17.775-96.733-1.654-4.133-3.307-8.267-7.855-6.614-4.547 1.654-3.307 6.614-2.067 11.162 7.441 28.937 11.575 58.7 11.575 88.464 0 34.725-12.401 52.087-19.842 64.902-27.284 45.886-62.835 68.208-80.197 73.996-2.067.827-3.307 2.48-3.307 4.547l0 93.425c0 2.894 2.48 5.374 5.374 5.374 2.067 0 4.547-1.653 4.96-3.307M2292.8 3105.01c6.562-.708 10.646-1.916 12.246-3.625 1.6-1.708 2.4-6.166 2.4-13.375l0-72.208c0-5.917-.892-9.792-2.684-11.583-1.791-1.834-5.779-2.959-11.962-3.375l0-3.084 88.783 0 .571 23.917-4.637 0c-1.142-7.667-3.284-12.5-6.43-14.542-3.145-2.041-9.358-3.041-18.637-3.041l-22.788 0c-2.22 0-3.645.375-4.27 1.125-.625.75-.938 2.25-.938 4.5l0 37.166 24.092 0c7.104 0 11.637-1.041 13.587-3.166 1.954-2.125 3.529-6.417 4.721-12.875l3.908 0 0 38.583-3.908 0c-1.246-6.458-2.846-10.708-4.8-12.792-1.954-2.083-6.458-3.166-13.508-3.166l-24.092 0 0 36.458c0 6.167.938 10.083 2.808 11.792 1.871 1.708 5.955 2.791 12.25 3.291l0 3-46.712 0 0-3m104.442-102.041c0-2.334.812-4.375 2.441-6.042 1.629-1.667 3.634-2.542 6.021-2.542 2.333 0 4.329.834 5.983 2.5 1.655 1.667 2.484 3.667 2.484 6.084 0 2.333-.829 4.291-2.484 5.958-1.654 1.667-3.65 2.5-5.983 2.5-2.387 0-4.392-.833-6.021-2.5-1.629-1.667-2.441-3.625-2.441-5.958m-10.417 102.75c5.804-.542 9.467-1.5 10.987-2.959 1.517-1.416 2.28-5.333 2.28-11.666l0-38.834c0-3.5-.246-5.958-.734-7.333-.812-2.208-2.521-3.333-5.125-3.333-.6 0-1.183.083-1.75.166-.571.125-2.212.542-4.925 1.292l0-2.5 3.5-1.125c9.492-3.125 16.113-5.458 19.854-7 1.521-.667 2.496-1 2.934-1 .108.375.162.792.162 1.208l0 58.459c0 6.166.746 10.041 2.238 11.625 1.491 1.583 4.866 2.583 10.129 3l0 2.291-39.55 0 0-2.291m46.046 0c3.85-.459 6.55-1.417 8.096-2.875 1.545-1.417 2.32-4.667 2.32-9.625l0-41.292c0-3.458-.325-5.917-.975-7.292-1.033-2.083-3.15-3.125-6.35-3.125-.487 0-.991.042-1.504.084-.516.083-1.154.166-1.912.25l0-2.834c2.225-.666 7.487-2.333 15.787-5.041l7.65-2.542c.379 0 .609.125.692.417.079.25.121.666.121 1.125l0 11.958c4.991-4.667 8.9-7.833 11.721-9.583 4.229-2.667 8.625-4 13.183-4 3.687 0 7.05 1.083 10.092 3.166 5.858 4.125 8.787 11.5 8.787 22.084l0 38c0 3.916.788 6.708 2.358 8.458 1.575 1.75 4.205 2.625 7.896 2.667l0 2.291-34.75 0 0-2.291c3.963-.542 6.729-1.625 8.3-3.292 1.575-1.625 2.363-5.25 2.363-10.792l0-34.75c0-4.666-.871-8.5-2.604-11.583-1.738-3.042-4.938-4.583-9.605-4.583-3.2 0-6.458 1.083-9.766 3.25-1.846 1.25-4.229 3.291-7.163 6.166l0 45.584c0 3.916.871 6.541 2.604 7.875 1.738 1.291 4.48 2.041 8.221 2.125l0 2.291-35.562 0 0-2.291m118.487-74.042c7.65 0 14.35 2.625 20.104 7.917 5.75 5.291 8.625 12.791 8.625 22.5l-51.675 0c.542 12.625 3.388 21.791 8.542 27.541 5.154 5.75 11.258 8.625 18.313 8.625 5.695 0 10.495-1.5 14.404-4.5 3.904-2.958 7.512-7.208 10.825-12.666l2.846.958c-2.225 6.875-6.388 13.25-12.492 19.125-6.104 5.875-13.575 8.792-22.421 8.792-10.2 0-18.079-3.875-23.642-11.542-5.558-7.708-8.337-16.583-8.337-26.625 0-10.917 3.225-20.333 9.683-28.25 6.454-7.917 14.863-11.875 25.225-11.875m-4.716 5.958c-6.188 0-10.909 2.709-14.163 8.209-1.733 2.916-2.983 6.625-3.742 11.041l34.342 0c-.596-5.416-1.629-9.458-3.092-12.125-2.658-4.75-7.108-7.125-13.345-7.125M7214.2 6305.55c0 2.708.666 4.5 1.958 5.375 1.333.875 4.083 1.292 8.292 1.292 13 0 23.708-2.584 32.125-7.709 12.916-7.958 19.375-21.458 19.375-40.625 0-17.083-5.334-29.958-15.959-38.583-9.125-7.375-21.166-11.042-36.208-11.042-3.75 0-6.292.375-7.625 1.209-1.292.791-1.958 2.583-1.958 5.375l0 84.708m-31.584 9.833c6.084-.625 10.042-1.75 11.875-3.291 1.834-1.542 2.75-5.459 2.75-11.75l0-74.125c0-6.084-.875-10-2.666-11.75-1.792-1.709-5.792-2.792-11.959-3.25l0-3.084 44.917 0c15.125 0 27.958 2.5 38.417 7.5 18.875 8.959 28.333 24.959 28.333 48 0 8.292-1.708 16.209-5.125 23.667-3.375 7.5-8.5 13.833-15.333 19-4.334 3.25-8.834 5.708-13.5 7.375-8.5 3.167-19 4.75-31.417 4.75l-46.292 0 0-3.042m144.792 4.959c-2.583 0-4.792-.875-6.583-2.709-1.792-1.833-2.667-4-2.667-6.541 0-2.542.875-4.709 2.708-6.5 1.834-1.792 4-2.709 6.542-2.709 2.542 0 4.708.917 6.5 2.709 1.792 1.791 2.708 3.958 2.708 6.5 0 2.541-.875 4.708-2.666 6.541-1.75 1.834-3.917 2.709-6.542 2.709m76.167-114.167c6.041 0 12.208.917 18.583 2.708 6.333 1.792 9.875 2.667 10.667 2.667 1.541 0 3.041-.417 4.458-1.292 1.417-.875 2.375-2.25 2.917-4.083l3.5 0 1.541 37.458-3.791 0c-2.25-7.458-5.167-13.458-8.709-18-6.875-8.583-16.041-12.875-27.625-12.875-11.666 0-21.166 4.625-28.583 13.834-7.417 9.25-11.125 21.916-11.125 38.125 0 14.833 3.917 26.708 11.708 35.583 7.75 8.875 17.625 13.292 29.584 13.292 8.625 0 16.541-2.042 23.833-6.167 4.167-2.333 8.75-5.875 13.75-10.583l3.083 3.083c-3.666 4.667-8.25 8.75-13.75 12.292-9.333 5.958-19.458 8.958-30.333 8.958-17.917 0-32.125-5.708-42.667-17.167-9.708-10.583-14.583-23.791-14.583-39.625 0-16.25 5.167-29.833 15.417-40.875 10.791-11.541 24.833-17.333 42.125-17.333m76.625 114.167c-2.584 0-4.792-.875-6.584-2.709-1.791-1.833-2.666-4-2.666-6.541 0-2.542.916-4.709 2.708-6.5 1.833-1.792 4-2.709 6.542-2.709 2.583 0 4.75.917 6.541 2.709 1.792 1.791 2.667 3.958 2.667 6.5 0 2.541-.875 4.708-2.625 6.541-1.792 1.834-3.958 2.709-6.583 2.709" fill-rule="nonzero"/>
</svg>
